<svg xmlns="http://www.w3.org/2000/svg" viewBox="0 0 760 380" style="background:#fafaf7;font-family:'Inter',ui-sans-serif,system-ui;width:100%;height:auto;display:block;">
<defs><clipPath id="ts-clip"><rect x="92" y="32" width="644" height="292"/></clipPath></defs>
<text x="380.0" y="20" text-anchor="middle" font-size="13" font-weight="700" fill="#1a1612">Basin cumulative ΔStorage (26-polygon network), shaded by hydrologic condition</text>
<rect x="129.2" y="32" width="24.8" height="292" fill="#c75a35" fill-opacity="0.26"/>
<rect x="153.9" y="32" width="24.8" height="292" fill="#c75a35" fill-opacity="0.26"/>
<rect x="203.5" y="32" width="24.8" height="292" fill="#d99a4f" fill-opacity="0.2"/>
<rect x="277.8" y="32" width="24.8" height="292" fill="#c75a35" fill-opacity="0.26"/>
<rect x="302.5" y="32" width="24.8" height="292" fill="#a32d2d" fill-opacity="0.32"/>
<rect x="327.3" y="32" width="24.8" height="292" fill="#c75a35" fill-opacity="0.26"/>
<rect x="352.1" y="32" width="24.8" height="292" fill="#d99a4f" fill-opacity="0.2"/>
<rect x="401.6" y="32" width="24.8" height="292" fill="#d99a4f" fill-opacity="0.2"/>
<rect x="426.4" y="32" width="24.8" height="292" fill="#c75a35" fill-opacity="0.26"/>
<rect x="451.2" y="32" width="24.8" height="292" fill="#a32d2d" fill-opacity="0.32"/>
<rect x="475.9" y="32" width="24.8" height="292" fill="#a32d2d" fill-opacity="0.32"/>
<rect x="500.7" y="32" width="24.8" height="292" fill="#d99a4f" fill-opacity="0.2"/>
<rect x="550.2" y="32" width="24.8" height="292" fill="#d99a4f" fill-opacity="0.2"/>
<rect x="599.8" y="32" width="24.8" height="292" fill="#c75a35" fill-opacity="0.26"/>
<rect x="624.5" y="32" width="24.8" height="292" fill="#a32d2d" fill-opacity="0.32"/>
<rect x="649.3" y="32" width="24.8" height="292" fill="#a32d2d" fill-opacity="0.32"/>
<line x1="92" y1="324.0" x2="736" y2="324.0" stroke="#e7e1cf" stroke-width="0.5"/>
<text x="84" y="327.0" text-anchor="end" font-size="10" fill="#5b5547">-450,000</text>
<line x1="92" y1="294.8" x2="736" y2="294.8" stroke="#e7e1cf" stroke-width="0.5"/>
<text x="84" y="297.8" text-anchor="end" font-size="10" fill="#5b5547">-400,000</text>
<line x1="92" y1="265.6" x2="736" y2="265.6" stroke="#e7e1cf" stroke-width="0.5"/>
<text x="84" y="268.6" text-anchor="end" font-size="10" fill="#5b5547">-350,000</text>
<line x1="92" y1="236.4" x2="736" y2="236.4" stroke="#e7e1cf" stroke-width="0.5"/>
<text x="84" y="239.4" text-anchor="end" font-size="10" fill="#5b5547">-300,000</text>
<line x1="92" y1="207.2" x2="736" y2="207.2" stroke="#e7e1cf" stroke-width="0.5"/>
<text x="84" y="210.2" text-anchor="end" font-size="10" fill="#5b5547">-250,000</text>
<line x1="92" y1="178.0" x2="736" y2="178.0" stroke="#e7e1cf" stroke-width="0.5"/>
<text x="84" y="181.0" text-anchor="end" font-size="10" fill="#5b5547">-200,000</text>
<line x1="92" y1="148.8" x2="736" y2="148.8" stroke="#e7e1cf" stroke-width="0.5"/>
<text x="84" y="151.8" text-anchor="end" font-size="10" fill="#5b5547">-150,000</text>
<line x1="92" y1="119.6" x2="736" y2="119.6" stroke="#e7e1cf" stroke-width="0.5"/>
<text x="84" y="122.6" text-anchor="end" font-size="10" fill="#5b5547">-100,000</text>
<line x1="92" y1="90.4" x2="736" y2="90.4" stroke="#e7e1cf" stroke-width="0.5"/>
<text x="84" y="93.4" text-anchor="end" font-size="10" fill="#5b5547">-50,000</text>
<line x1="92" y1="61.2" x2="736" y2="61.2" stroke="#e7e1cf" stroke-width="0.5"/>
<text x="84" y="64.2" text-anchor="end" font-size="10" fill="#5b5547">0</text>
<line x1="92" y1="32.0" x2="736" y2="32.0" stroke="#e7e1cf" stroke-width="0.5"/>
<text x="84" y="35.0" text-anchor="end" font-size="10" fill="#5b5547">50,000</text>
<line x1="92" y1="61.2" x2="736" y2="61.2" stroke="#5b5547" stroke-width="0.8"/>
<line x1="116.8" y1="324" x2="116.8" y2="328" stroke="#5b5547" stroke-width="0.5"/>
<text x="116.8" y="342" text-anchor="middle" font-size="10" fill="#5b5547">2000</text>
<line x1="240.6" y1="324" x2="240.6" y2="328" stroke="#5b5547" stroke-width="0.5"/>
<text x="240.6" y="342" text-anchor="middle" font-size="10" fill="#5b5547">2005</text>
<line x1="364.5" y1="324" x2="364.5" y2="328" stroke="#5b5547" stroke-width="0.5"/>
<text x="364.5" y="342" text-anchor="middle" font-size="10" fill="#5b5547">2010</text>
<line x1="488.3" y1="324" x2="488.3" y2="328" stroke="#5b5547" stroke-width="0.5"/>
<text x="488.3" y="342" text-anchor="middle" font-size="10" fill="#5b5547">2015</text>
<line x1="612.2" y1="324" x2="612.2" y2="328" stroke="#5b5547" stroke-width="0.5"/>
<text x="612.2" y="342" text-anchor="middle" font-size="10" fill="#5b5547">2020</text>
<line x1="736.0" y1="324" x2="736.0" y2="328" stroke="#5b5547" stroke-width="0.5"/>
<text x="736.0" y="342" text-anchor="middle" font-size="10" fill="#5b5547">2025</text>
<text x="22" y="178.0" transform="rotate(-90,22,178.0)" text-anchor="middle" font-size="11" fill="#5b5547" font-weight="600">Cumulative storage change (AF)</text>
<polyline points="92.0,61.2 116.8,87.4 141.5,103.0 166.3,113.4 191.1,114.8 215.8,103.6 240.6,103.4 265.4,86.3 290.2,124.4 314.9,141.0 339.7,165.5 364.5,160.4 389.2,155.5 414.0,157.8 438.8,190.2 463.5,244.7 488.3,246.4 513.1,236.0 537.8,168.3 562.6,204.0 587.4,166.6 612.2,198.1 636.9,245.9 661.7,295.9 686.5,266.8 711.2,225.3 736.0,196.5" fill="none" stroke="#1f3a5f" stroke-width="2.4" clip-path="url(#ts-clip)"/>
<circle cx="736.0" cy="196.5" r="3.2" fill="#1f3a5f"/>
<text x="730.0" y="188.5" text-anchor="end" font-size="11" font-weight="700" fill="#1f3a5f">-231,743 AF</text>
<polyline points="92.0,61.2 116.8,48.0 141.5,80.9 166.3,113.8 191.1,100.6 215.8,103.6 240.6,90.4 265.4,56.6 290.2,89.5 314.9,125.2 339.7,158.2 364.5,161.1 389.2,127.3 414.0,130.3 438.8,163.2 463.5,199.0 488.3,234.8 513.1,237.7 537.8,203.9 562.6,206.9 587.4,173.1 612.2,206.0 636.9,241.8 661.7,277.6 686.5,243.8 711.2,230.5 736.0,217.3" fill="none" stroke="#7c4a86" stroke-width="2.0" stroke-dasharray="6,4" clip-path="url(#ts-clip)"/>
<circle cx="736.0" cy="217.3" r="3.0" fill="#7c4a86"/>
<text x="730.0" y="231.3" text-anchor="end" font-size="11" font-weight="700" fill="#7c4a86">-267,289 AF (normalized)</text>
<g transform="translate(100,208)">
<rect x="-8" y="-22" width="320" height="132" fill="#fafaf7" fill-opacity="0.92" stroke="#cfc9b8" stroke-width="0.5" rx="2"/>
<line x1="0" y1="-10" x2="22" y2="-10" stroke="#1f3a5f" stroke-width="2.4"/>
<text x="28" y="-7" font-size="11" fill="#1a1612"><tspan font-weight="700">Observed</tspan> (years each polygon measured)</text>
<line x1="0" y1="7" x2="22" y2="7" stroke="#7c4a86" stroke-width="2.0" stroke-dasharray="6,4"/>
<text x="28" y="11" font-size="11" fill="#1a1612"><tspan font-weight="700">Normalized</tspan> (year-type-weighted backcast)</text>
<rect x="0" y="20" width="22" height="10" fill="#a32d2d" fill-opacity="0.32"/>
<text x="28" y="29" font-size="11" fill="#1a1612">Critical</text>
<rect x="0" y="36" width="22" height="10" fill="#c75a35" fill-opacity="0.26"/>
<text x="28" y="45" font-size="11" fill="#1a1612">Dry</text>
<rect x="0" y="52" width="22" height="10" fill="#d99a4f" fill-opacity="0.2"/>
<text x="28" y="61" font-size="11" fill="#1a1612">Below Normal</text>
<rect x="0" y="68" width="22" height="10" fill="#fafaf7" stroke="#cfc9b8" stroke-width="0.5"/>
<text x="28" y="77" font-size="11" fill="#1a1612">Wet / Above N.</text>
</g>
</svg>