<svg xmlns="http://www.w3.org/2000/svg" viewBox="0 0 760 380" style="background:#fafaf7;font-family:'Inter',ui-sans-serif,system-ui;width:100%;height:auto;display:block;">
<defs><clipPath id="ts-clip"><rect x="92" y="32" width="644" height="292"/></clipPath></defs>
<text x="380.0" y="20" text-anchor="middle" font-size="13" font-weight="700" fill="#1a1612">Basin cumulative ΔStorage (26-polygon network), shaded by hydrologic condition</text>
<rect x="129.2" y="32" width="24.8" height="292" fill="#c75a35" fill-opacity="0.26"/>
<rect x="153.9" y="32" width="24.8" height="292" fill="#c75a35" fill-opacity="0.26"/>
<rect x="203.5" y="32" width="24.8" height="292" fill="#d99a4f" fill-opacity="0.2"/>
<rect x="277.8" y="32" width="24.8" height="292" fill="#c75a35" fill-opacity="0.26"/>
<rect x="302.5" y="32" width="24.8" height="292" fill="#a32d2d" fill-opacity="0.32"/>
<rect x="327.3" y="32" width="24.8" height="292" fill="#c75a35" fill-opacity="0.26"/>
<rect x="352.1" y="32" width="24.8" height="292" fill="#d99a4f" fill-opacity="0.2"/>
<rect x="401.6" y="32" width="24.8" height="292" fill="#d99a4f" fill-opacity="0.2"/>
<rect x="426.4" y="32" width="24.8" height="292" fill="#c75a35" fill-opacity="0.26"/>
<rect x="451.2" y="32" width="24.8" height="292" fill="#a32d2d" fill-opacity="0.32"/>
<rect x="475.9" y="32" width="24.8" height="292" fill="#a32d2d" fill-opacity="0.32"/>
<rect x="500.7" y="32" width="24.8" height="292" fill="#d99a4f" fill-opacity="0.2"/>
<rect x="550.2" y="32" width="24.8" height="292" fill="#d99a4f" fill-opacity="0.2"/>
<rect x="599.8" y="32" width="24.8" height="292" fill="#c75a35" fill-opacity="0.26"/>
<rect x="624.5" y="32" width="24.8" height="292" fill="#a32d2d" fill-opacity="0.32"/>
<rect x="649.3" y="32" width="24.8" height="292" fill="#a32d2d" fill-opacity="0.32"/>
<line x1="92" y1="324.0" x2="736" y2="324.0" stroke="#e7e1cf" stroke-width="0.5"/>
<text x="84" y="327.0" text-anchor="end" font-size="10" fill="#5b5547">-350,000</text>
<line x1="92" y1="287.5" x2="736" y2="287.5" stroke="#e7e1cf" stroke-width="0.5"/>
<text x="84" y="290.5" text-anchor="end" font-size="10" fill="#5b5547">-300,000</text>
<line x1="92" y1="251.0" x2="736" y2="251.0" stroke="#e7e1cf" stroke-width="0.5"/>
<text x="84" y="254.0" text-anchor="end" font-size="10" fill="#5b5547">-250,000</text>
<line x1="92" y1="214.5" x2="736" y2="214.5" stroke="#e7e1cf" stroke-width="0.5"/>
<text x="84" y="217.5" text-anchor="end" font-size="10" fill="#5b5547">-200,000</text>
<line x1="92" y1="178.0" x2="736" y2="178.0" stroke="#e7e1cf" stroke-width="0.5"/>
<text x="84" y="181.0" text-anchor="end" font-size="10" fill="#5b5547">-150,000</text>
<line x1="92" y1="141.5" x2="736" y2="141.5" stroke="#e7e1cf" stroke-width="0.5"/>
<text x="84" y="144.5" text-anchor="end" font-size="10" fill="#5b5547">-100,000</text>
<line x1="92" y1="105.0" x2="736" y2="105.0" stroke="#e7e1cf" stroke-width="0.5"/>
<text x="84" y="108.0" text-anchor="end" font-size="10" fill="#5b5547">-50,000</text>
<line x1="92" y1="68.5" x2="736" y2="68.5" stroke="#e7e1cf" stroke-width="0.5"/>
<text x="84" y="71.5" text-anchor="end" font-size="10" fill="#5b5547">0</text>
<line x1="92" y1="32.0" x2="736" y2="32.0" stroke="#e7e1cf" stroke-width="0.5"/>
<text x="84" y="35.0" text-anchor="end" font-size="10" fill="#5b5547">50,000</text>
<line x1="92" y1="68.5" x2="736" y2="68.5" stroke="#5b5547" stroke-width="0.8"/>
<line x1="116.8" y1="324" x2="116.8" y2="328" stroke="#5b5547" stroke-width="0.5"/>
<text x="116.8" y="342" text-anchor="middle" font-size="10" fill="#5b5547">2000</text>
<line x1="240.6" y1="324" x2="240.6" y2="328" stroke="#5b5547" stroke-width="0.5"/>
<text x="240.6" y="342" text-anchor="middle" font-size="10" fill="#5b5547">2005</text>
<line x1="364.5" y1="324" x2="364.5" y2="328" stroke="#5b5547" stroke-width="0.5"/>
<text x="364.5" y="342" text-anchor="middle" font-size="10" fill="#5b5547">2010</text>
<line x1="488.3" y1="324" x2="488.3" y2="328" stroke="#5b5547" stroke-width="0.5"/>
<text x="488.3" y="342" text-anchor="middle" font-size="10" fill="#5b5547">2015</text>
<line x1="612.2" y1="324" x2="612.2" y2="328" stroke="#5b5547" stroke-width="0.5"/>
<text x="612.2" y="342" text-anchor="middle" font-size="10" fill="#5b5547">2020</text>
<line x1="736.0" y1="324" x2="736.0" y2="328" stroke="#5b5547" stroke-width="0.5"/>
<text x="736.0" y="342" text-anchor="middle" font-size="10" fill="#5b5547">2025</text>
<text x="22" y="178.0" transform="rotate(-90,22,178.0)" text-anchor="middle" font-size="11" fill="#5b5547" font-weight="600">Cumulative storage change (AF)</text>
<polyline points="92.0,68.5 116.8,97.5 141.5,113.7 166.3,124.1 191.1,126.7 215.8,116.2 240.6,115.4 265.4,98.2 290.2,137.1 314.9,154.9 339.7,179.9 364.5,175.5 389.2,169.7 414.0,173.3 438.8,208.7 463.5,267.3 488.3,267.4 513.1,256.1 537.8,183.5 562.6,221.1 587.4,181.5 612.2,214.5 636.9,265.2 661.7,316.9 686.5,286.8 711.2,242.2 736.0,212.4" fill="none" stroke="#1f3a5f" stroke-width="2.4" clip-path="url(#ts-clip)"/>
<circle cx="736.0" cy="212.4" r="3.2" fill="#1f3a5f"/>
<text x="730.0" y="204.4" text-anchor="end" font-size="11" font-weight="700" fill="#1f3a5f">-197,112 AF</text>
<polyline points="92.0,68.5 116.8,54.4 141.5,89.5 166.3,124.7 191.1,110.6 215.8,114.6 240.6,100.5 265.4,64.2 290.2,99.4 314.9,137.1 339.7,172.2 364.5,176.2 389.2,140.0 414.0,143.9 438.8,179.1 463.5,216.8 488.3,254.4 513.1,258.4 537.8,222.2 562.6,226.2 587.4,189.9 612.2,225.1 636.9,262.8 661.7,300.5 686.5,264.2 711.2,250.1 736.0,236.0" fill="none" stroke="#7c4a86" stroke-width="2.0" stroke-dasharray="6,4" clip-path="url(#ts-clip)"/>
<circle cx="736.0" cy="236.0" r="3.0" fill="#7c4a86"/>
<text x="730.0" y="250.0" text-anchor="end" font-size="11" font-weight="700" fill="#7c4a86">-229,492 AF (normalized)</text>
<g transform="translate(100,208)">
<rect x="-8" y="-22" width="320" height="132" fill="#fafaf7" fill-opacity="0.92" stroke="#cfc9b8" stroke-width="0.5" rx="2"/>
<line x1="0" y1="-10" x2="22" y2="-10" stroke="#1f3a5f" stroke-width="2.4"/>
<text x="28" y="-7" font-size="11" fill="#1a1612"><tspan font-weight="700">Observed</tspan> (years each polygon measured)</text>
<line x1="0" y1="7" x2="22" y2="7" stroke="#7c4a86" stroke-width="2.0" stroke-dasharray="6,4"/>
<text x="28" y="11" font-size="11" fill="#1a1612"><tspan font-weight="700">Normalized</tspan> (year-type-weighted backcast)</text>
<rect x="0" y="20" width="22" height="10" fill="#a32d2d" fill-opacity="0.32"/>
<text x="28" y="29" font-size="11" fill="#1a1612">Critical</text>
<rect x="0" y="36" width="22" height="10" fill="#c75a35" fill-opacity="0.26"/>
<text x="28" y="45" font-size="11" fill="#1a1612">Dry</text>
<rect x="0" y="52" width="22" height="10" fill="#d99a4f" fill-opacity="0.2"/>
<text x="28" y="61" font-size="11" fill="#1a1612">Below Normal</text>
<rect x="0" y="68" width="22" height="10" fill="#fafaf7" stroke="#cfc9b8" stroke-width="0.5"/>
<text x="28" y="77" font-size="11" fill="#1a1612">Wet / Above N.</text>
</g>
</svg>