<svg xmlns="http://www.w3.org/2000/svg" viewBox="0 0 760 380" style="background:#fafaf7;font-family:'Inter',ui-sans-serif,system-ui;width:100%;height:auto;display:block;">
<defs><clipPath id="ts-clip"><rect x="92" y="32" width="644" height="292"/></clipPath></defs>
<text x="380.0" y="20" text-anchor="middle" font-size="13" font-weight="700" fill="#1a1612">Basin cumulative ΔStorage (28-polygon network), shaded by hydrologic condition</text>
<rect x="129.2" y="32" width="24.8" height="292" fill="#c75a35" fill-opacity="0.26"/>
<rect x="153.9" y="32" width="24.8" height="292" fill="#c75a35" fill-opacity="0.26"/>
<rect x="203.5" y="32" width="24.8" height="292" fill="#d99a4f" fill-opacity="0.2"/>
<rect x="277.8" y="32" width="24.8" height="292" fill="#c75a35" fill-opacity="0.26"/>
<rect x="302.5" y="32" width="24.8" height="292" fill="#a32d2d" fill-opacity="0.32"/>
<rect x="327.3" y="32" width="24.8" height="292" fill="#c75a35" fill-opacity="0.26"/>
<rect x="352.1" y="32" width="24.8" height="292" fill="#d99a4f" fill-opacity="0.2"/>
<rect x="401.6" y="32" width="24.8" height="292" fill="#d99a4f" fill-opacity="0.2"/>
<rect x="426.4" y="32" width="24.8" height="292" fill="#c75a35" fill-opacity="0.26"/>
<rect x="451.2" y="32" width="24.8" height="292" fill="#a32d2d" fill-opacity="0.32"/>
<rect x="475.9" y="32" width="24.8" height="292" fill="#a32d2d" fill-opacity="0.32"/>
<rect x="500.7" y="32" width="24.8" height="292" fill="#d99a4f" fill-opacity="0.2"/>
<rect x="550.2" y="32" width="24.8" height="292" fill="#d99a4f" fill-opacity="0.2"/>
<rect x="599.8" y="32" width="24.8" height="292" fill="#c75a35" fill-opacity="0.26"/>
<rect x="624.5" y="32" width="24.8" height="292" fill="#a32d2d" fill-opacity="0.32"/>
<rect x="649.3" y="32" width="24.8" height="292" fill="#a32d2d" fill-opacity="0.32"/>
<line x1="92" y1="324.0" x2="736" y2="324.0" stroke="#e7e1cf" stroke-width="0.5"/>
<text x="84" y="327.0" text-anchor="end" font-size="10" fill="#5b5547">-350,000</text>
<line x1="92" y1="287.5" x2="736" y2="287.5" stroke="#e7e1cf" stroke-width="0.5"/>
<text x="84" y="290.5" text-anchor="end" font-size="10" fill="#5b5547">-300,000</text>
<line x1="92" y1="251.0" x2="736" y2="251.0" stroke="#e7e1cf" stroke-width="0.5"/>
<text x="84" y="254.0" text-anchor="end" font-size="10" fill="#5b5547">-250,000</text>
<line x1="92" y1="214.5" x2="736" y2="214.5" stroke="#e7e1cf" stroke-width="0.5"/>
<text x="84" y="217.5" text-anchor="end" font-size="10" fill="#5b5547">-200,000</text>
<line x1="92" y1="178.0" x2="736" y2="178.0" stroke="#e7e1cf" stroke-width="0.5"/>
<text x="84" y="181.0" text-anchor="end" font-size="10" fill="#5b5547">-150,000</text>
<line x1="92" y1="141.5" x2="736" y2="141.5" stroke="#e7e1cf" stroke-width="0.5"/>
<text x="84" y="144.5" text-anchor="end" font-size="10" fill="#5b5547">-100,000</text>
<line x1="92" y1="105.0" x2="736" y2="105.0" stroke="#e7e1cf" stroke-width="0.5"/>
<text x="84" y="108.0" text-anchor="end" font-size="10" fill="#5b5547">-50,000</text>
<line x1="92" y1="68.5" x2="736" y2="68.5" stroke="#e7e1cf" stroke-width="0.5"/>
<text x="84" y="71.5" text-anchor="end" font-size="10" fill="#5b5547">0</text>
<line x1="92" y1="32.0" x2="736" y2="32.0" stroke="#e7e1cf" stroke-width="0.5"/>
<text x="84" y="35.0" text-anchor="end" font-size="10" fill="#5b5547">50,000</text>
<line x1="92" y1="68.5" x2="736" y2="68.5" stroke="#5b5547" stroke-width="0.8"/>
<line x1="116.8" y1="324" x2="116.8" y2="328" stroke="#5b5547" stroke-width="0.5"/>
<text x="116.8" y="342" text-anchor="middle" font-size="10" fill="#5b5547">2000</text>
<line x1="240.6" y1="324" x2="240.6" y2="328" stroke="#5b5547" stroke-width="0.5"/>
<text x="240.6" y="342" text-anchor="middle" font-size="10" fill="#5b5547">2005</text>
<line x1="364.5" y1="324" x2="364.5" y2="328" stroke="#5b5547" stroke-width="0.5"/>
<text x="364.5" y="342" text-anchor="middle" font-size="10" fill="#5b5547">2010</text>
<line x1="488.3" y1="324" x2="488.3" y2="328" stroke="#5b5547" stroke-width="0.5"/>
<text x="488.3" y="342" text-anchor="middle" font-size="10" fill="#5b5547">2015</text>
<line x1="612.2" y1="324" x2="612.2" y2="328" stroke="#5b5547" stroke-width="0.5"/>
<text x="612.2" y="342" text-anchor="middle" font-size="10" fill="#5b5547">2020</text>
<line x1="736.0" y1="324" x2="736.0" y2="328" stroke="#5b5547" stroke-width="0.5"/>
<text x="736.0" y="342" text-anchor="middle" font-size="10" fill="#5b5547">2025</text>
<text x="22" y="178.0" transform="rotate(-90,22,178.0)" text-anchor="middle" font-size="11" fill="#5b5547" font-weight="600">Cumulative storage change (AF)</text>
<polyline points="92.0,68.5 116.8,75.5 141.5,93.4 166.3,103.2 191.1,97.9 215.8,84.5 240.6,84.2 265.4,71.2 290.2,102.1 314.9,117.1 339.7,143.5 364.5,138.6 389.2,135.2 414.0,147.0 438.8,179.5 463.5,233.2 488.3,233.9 513.1,228.1 537.8,148.9 562.6,188.9 587.4,141.4 612.2,178.6 636.9,238.1 661.7,277.0 686.5,242.2 711.2,206.4 736.0,174.9" fill="none" stroke="#1f3a5f" stroke-width="2.4" clip-path="url(#ts-clip)"/>
<circle cx="736.0" cy="174.9" r="3.2" fill="#1f3a5f"/>
<text x="730.0" y="166.9" text-anchor="end" font-size="11" font-weight="700" fill="#1f3a5f">-145,732 AF</text>
<polyline points="92.0,68.5 116.8,52.3 141.5,90.7 166.3,129.2 191.1,113.0 215.8,122.1 240.6,105.9 265.4,63.8 290.2,102.2 314.9,138.1 339.7,176.6 364.5,185.7 389.2,143.6 414.0,152.7 438.8,191.2 463.5,227.0 488.3,262.9 513.1,272.0 537.8,229.9 562.6,239.0 587.4,196.9 612.2,235.4 636.9,271.2 661.7,307.0 686.5,265.0 711.2,248.7 736.0,206.6" fill="none" stroke="#7c4a86" stroke-width="2.0" stroke-dasharray="6,4" clip-path="url(#ts-clip)"/>
<circle cx="736.0" cy="206.6" r="3.0" fill="#7c4a86"/>
<text x="730.0" y="220.6" text-anchor="end" font-size="11" font-weight="700" fill="#7c4a86">-189,209 AF (normalized)</text>
<g transform="translate(100,208)">
<rect x="-8" y="-22" width="260" height="132" fill="#fafaf7" fill-opacity="0.92" stroke="#cfc9b8" stroke-width="0.5" rx="2"/>
<line x1="0" y1="-10" x2="22" y2="-10" stroke="#1f3a5f" stroke-width="2.4"/>
<text x="28" y="-7" font-size="11" fill="#1a1612"><tspan font-weight="700">Observed</tspan> (each polygon contributes only years it observed)</text>
<line x1="0" y1="7" x2="22" y2="7" stroke="#7c4a86" stroke-width="2.0" stroke-dasharray="6,4"/>
<text x="28" y="11" font-size="11" fill="#1a1612"><tspan font-weight="700">Normalized</tspan> (year-type-weighted backcast — see methodology)</text>
<rect x="0" y="20" width="22" height="10" fill="#a32d2d" fill-opacity="0.32"/>
<text x="28" y="29" font-size="11" fill="#1a1612">Critical</text>
<rect x="0" y="36" width="22" height="10" fill="#c75a35" fill-opacity="0.26"/>
<text x="28" y="45" font-size="11" fill="#1a1612">Dry</text>
<rect x="0" y="52" width="22" height="10" fill="#d99a4f" fill-opacity="0.2"/>
<text x="28" y="61" font-size="11" fill="#1a1612">Below Normal</text>
<rect x="0" y="68" width="22" height="10" fill="#fafaf7" stroke="#cfc9b8" stroke-width="0.5"/>
<text x="28" y="77" font-size="11" fill="#1a1612">Wet / Above N.</text>
</g>
</svg>