<svg xmlns="http://www.w3.org/2000/svg" viewBox="0 0 760 380" style="background:#fafaf7;font-family:'Inter',ui-sans-serif,system-ui;width:100%;height:auto;display:block;">
<defs><clipPath id="ts-clip"><rect x="92" y="32" width="644" height="292"/></clipPath></defs>
<text x="380.0" y="20" text-anchor="middle" font-size="13" font-weight="700" fill="#1a1612">Basin cumulative ΔStorage (2027 BC RMS network — 28 polygons), shaded by hydrologic condition</text>
<rect x="129.2" y="32" width="24.8" height="292" fill="#c75a35" fill-opacity="0.26"/>
<rect x="153.9" y="32" width="24.8" height="292" fill="#c75a35" fill-opacity="0.26"/>
<rect x="203.5" y="32" width="24.8" height="292" fill="#d99a4f" fill-opacity="0.2"/>
<rect x="277.8" y="32" width="24.8" height="292" fill="#c75a35" fill-opacity="0.26"/>
<rect x="302.5" y="32" width="24.8" height="292" fill="#a32d2d" fill-opacity="0.32"/>
<rect x="327.3" y="32" width="24.8" height="292" fill="#c75a35" fill-opacity="0.26"/>
<rect x="352.1" y="32" width="24.8" height="292" fill="#d99a4f" fill-opacity="0.2"/>
<rect x="401.6" y="32" width="24.8" height="292" fill="#d99a4f" fill-opacity="0.2"/>
<rect x="426.4" y="32" width="24.8" height="292" fill="#c75a35" fill-opacity="0.26"/>
<rect x="451.2" y="32" width="24.8" height="292" fill="#a32d2d" fill-opacity="0.32"/>
<rect x="475.9" y="32" width="24.8" height="292" fill="#a32d2d" fill-opacity="0.32"/>
<rect x="500.7" y="32" width="24.8" height="292" fill="#d99a4f" fill-opacity="0.2"/>
<rect x="550.2" y="32" width="24.8" height="292" fill="#d99a4f" fill-opacity="0.2"/>
<rect x="599.8" y="32" width="24.8" height="292" fill="#c75a35" fill-opacity="0.26"/>
<rect x="624.5" y="32" width="24.8" height="292" fill="#a32d2d" fill-opacity="0.32"/>
<rect x="649.3" y="32" width="24.8" height="292" fill="#a32d2d" fill-opacity="0.32"/>
<line x1="92" y1="324.0" x2="736" y2="324.0" stroke="#e7e1cf" stroke-width="0.5"/>
<text x="84" y="327.0" text-anchor="end" font-size="10" fill="#5b5547">-300,000</text>
<line x1="92" y1="275.3" x2="736" y2="275.3" stroke="#e7e1cf" stroke-width="0.5"/>
<text x="84" y="278.3" text-anchor="end" font-size="10" fill="#5b5547">-250,000</text>
<line x1="92" y1="226.7" x2="736" y2="226.7" stroke="#e7e1cf" stroke-width="0.5"/>
<text x="84" y="229.7" text-anchor="end" font-size="10" fill="#5b5547">-200,000</text>
<line x1="92" y1="178.0" x2="736" y2="178.0" stroke="#e7e1cf" stroke-width="0.5"/>
<text x="84" y="181.0" text-anchor="end" font-size="10" fill="#5b5547">-150,000</text>
<line x1="92" y1="129.3" x2="736" y2="129.3" stroke="#e7e1cf" stroke-width="0.5"/>
<text x="84" y="132.3" text-anchor="end" font-size="10" fill="#5b5547">-100,000</text>
<line x1="92" y1="80.7" x2="736" y2="80.7" stroke="#e7e1cf" stroke-width="0.5"/>
<text x="84" y="83.7" text-anchor="end" font-size="10" fill="#5b5547">-50,000</text>
<line x1="92" y1="32.0" x2="736" y2="32.0" stroke="#e7e1cf" stroke-width="0.5"/>
<text x="84" y="35.0" text-anchor="end" font-size="10" fill="#5b5547">0</text>
<line x1="92" y1="32.0" x2="736" y2="32.0" stroke="#5b5547" stroke-width="0.8"/>
<line x1="116.8" y1="324" x2="116.8" y2="328" stroke="#5b5547" stroke-width="0.5"/>
<text x="116.8" y="342" text-anchor="middle" font-size="10" fill="#5b5547">2000</text>
<line x1="240.6" y1="324" x2="240.6" y2="328" stroke="#5b5547" stroke-width="0.5"/>
<text x="240.6" y="342" text-anchor="middle" font-size="10" fill="#5b5547">2005</text>
<line x1="364.5" y1="324" x2="364.5" y2="328" stroke="#5b5547" stroke-width="0.5"/>
<text x="364.5" y="342" text-anchor="middle" font-size="10" fill="#5b5547">2010</text>
<line x1="488.3" y1="324" x2="488.3" y2="328" stroke="#5b5547" stroke-width="0.5"/>
<text x="488.3" y="342" text-anchor="middle" font-size="10" fill="#5b5547">2015</text>
<line x1="612.2" y1="324" x2="612.2" y2="328" stroke="#5b5547" stroke-width="0.5"/>
<text x="612.2" y="342" text-anchor="middle" font-size="10" fill="#5b5547">2020</text>
<line x1="736.0" y1="324" x2="736.0" y2="328" stroke="#5b5547" stroke-width="0.5"/>
<text x="736.0" y="342" text-anchor="middle" font-size="10" fill="#5b5547">2025</text>
<text x="22" y="178.0" transform="rotate(-90,22,178.0)" text-anchor="middle" font-size="11" fill="#5b5547" font-weight="600">Cumulative storage change (AF)</text>
<polyline points="92.0,32.0 116.8,41.3 141.5,65.2 166.3,78.3 191.1,71.2 215.8,53.3 240.6,53.0 265.4,35.6 290.2,76.8 314.9,96.8 339.7,132.1 364.5,125.4 389.2,120.9 414.0,136.7 438.8,180.0 463.5,251.6 488.3,252.6 513.1,244.8 537.8,139.1 562.6,192.6 587.4,129.2 612.2,178.8 636.9,258.1 661.7,310.0 686.5,263.5 711.2,215.9 736.0,173.8" fill="none" stroke="#1f3a5f" stroke-width="2.4" clip-path="url(#ts-clip)"/>
<circle cx="736.0" cy="173.8" r="3.2" fill="#1f3a5f"/>
<text x="730.0" y="165.8" text-anchor="end" font-size="11" font-weight="700" fill="#1f3a5f">-145,732 AF</text>
<g transform="translate(100,238)">
<rect x="-8" y="-22" width="220" height="102" fill="#fafaf7" fill-opacity="0.92" stroke="#cfc9b8" stroke-width="0.5" rx="2"/>
<line x1="0" y1="-10" x2="22" y2="-10" stroke="#1f3a5f" stroke-width="2.4"/>
<text x="28" y="-7" font-size="11" fill="#1a1612"><tspan font-weight="700">28-polygon cumulative</tspan></text>
<rect x="0" y="2" width="22" height="10" fill="#a32d2d" fill-opacity="0.32"/>
<text x="28" y="11" font-size="11" fill="#1a1612">Critical</text>
<rect x="0" y="18" width="22" height="10" fill="#c75a35" fill-opacity="0.26"/>
<text x="28" y="27" font-size="11" fill="#1a1612">Dry</text>
<rect x="0" y="34" width="22" height="10" fill="#d99a4f" fill-opacity="0.2"/>
<text x="28" y="43" font-size="11" fill="#1a1612">Below Normal</text>
<rect x="0" y="50" width="22" height="10" fill="#fafaf7" stroke="#cfc9b8" stroke-width="0.5"/>
<text x="28" y="59" font-size="11" fill="#1a1612">Wet / Above N.</text>
</g>
</svg>