<svg xmlns="http://www.w3.org/2000/svg" viewBox="0 0 700 1080" style="background:#fafaf7;font-family:ui-sans-serif,system-ui;width:100%;height:auto;display:block;">
<defs><style>.poly{stroke:#5b5547;stroke-width:0.7;cursor:pointer;}.poly:hover{stroke-width:2;filter:brightness(1.05);}.well{fill:#1f1f1f;pointer-events:none;}.label{font-size:8.5px;fill:#332e22;text-anchor:middle;font-weight:500;pointer-events:none;}.title{font-size:13px;font-weight:700;fill:#1a1612;text-anchor:middle;}.subtitle{font-size:11px;fill:#5b5547;text-anchor:middle;font-style:italic;}.legend-text{font-size:10.5px;fill:#332e22;}.legend-title{font-size:11px;font-weight:700;fill:#1a1612;}.legend-bg{fill:#fafaf7;fill-opacity:0.97;stroke:#cfc9b8;stroke-width:0.6;}</style></defs>
<text class="title" x="350.0" y="18">Vina 2027 BC RMS network (29 polygons) — Observed avg storage loss rate (AF/yr)</text>
<text class="subtitle" x="350.0" y="32">Click any polygon for detail. Color = polygon avg loss rate (positive = losing storage).</text>
<path d="M 168.7,481.4 L 168.1,481.3 L 167.6,481.5 L 166.7,481.8 L 165.4,482.5 L 163.5,483.6 L 162.5,484.4 L 161.7,485.2 L 161.1,486.3 L 160.9,487.6 L 160.9,489.0 L 161.1,490.5 L 161.4,492.2 L 161.6,493.9 L 161.5,495.2 L 161.0,496.3 L 160.4,497.1 L 159.5,497.8 L 158.3,498.2 L 157.4,498.1 L 156.4,497.8 L 155.2,497.6 L 153.6,497.3 L 152.6,497.0 L 151.4,496.6 L 150.2,496.2 L 147.8,495.4 L 146.6,495.2 L 145.0,494.3 L 144.0,493.2 L 143.3,492.1 L 142.7,490.8 L 142.1,489.9 L 141.5,488.8 L 140.7,487.1 L 139.9,485.8 L 139.0,484.1 L 138.1,482.2 L 136.8,479.7 L 135.7,477.8 L 134.7,476.2 L 133.5,474.5 L 132.3,472.8 L 130.7,471.1 L 128.1,467.8 L 128.1,467.7 L 126.2,465.4 L 123.6,462.7 L 120.3,459.3 L 118.1,457.3 L 116.0,455.7 L 113.2,454.0 L 110.0,451.8 L 104.1,449.5 L 100.0,448.2 L 97.1,445.5 L 94.9,442.8 L 92.1,439.8 L 88.4,434.5 L 86.4,431.4 L 84.5,427.6 L 82.3,424.0 L 81.6,422.8 L 79.4,419.0 L 78.7,416.6 L 79.6,414.9 L 81.2,412.4 L 82.8,409.7 L 83.7,408.6 L 84.7,407.4 L 86.8,404.8 L 87.9,401.8 L 88.6,396.7 L 89.1,392.6 L 89.9,387.9 L 90.0,384.7 L 88.6,382.4 L 86.6,380.9 L 83.4,380.8 L 79.2,381.7 L 75.1,383.7 L 73.3,385.1 L 73.6,387.4 L 74.0,388.7 L 74.2,390.3 L 72.9,392.0 L 70.9,393.2 L 69.3,393.9 L 68.0,393.4 L 66.1,392.3 L 64.6,390.3 L 64.0,389.7 L 99.2,366.4 L 147.9,388.7 L 163.4,405.4 L 173.9,470.1 L 168.7,481.4 Z" class="poly" fill="#a8c8b0" data-short="22N01W05M001M" data-ma="North" data-base-year="1999" data-end-year="2025" data-span="26" data-area="7,541" data-rms-wells="22N01W05M001M" data-sy="0.1000" data-sy-source="uniform (0.10)" data-avg-dgwe="+0.00" data-cum-stor="+0" data-avg-rate="+0" data-critdry-share="82%" data-crit-share="39%" data-bucket-wet="+3,255" data-bucket-an="+6,134" data-bucket-bn="-1,005" data-bucket-dry="-4,361" data-bucket-critical="-4,022" data-hold="0" data-project="0" data-project-name="" data-coverage="+0" data-late=""><title>Click for 22N01W05M001M detail</title></path>
<path d="M 293.6,306.7 L 247.3,316.1 L 201.1,263.8 L 199.7,237.8 L 203.8,237.9 L 228.8,237.8 L 254.6,237.8 L 279.7,237.4 L 316.6,236.7 L 316.6,236.7 L 324.9,248.2 L 332.2,260.2 L 336.1,267.8 L 337.7,271.9 L 341.1,278.9 L 293.6,306.7 Z" class="poly" fill="#e3a76f" data-short="23N01E07H001M" data-ma="North" data-base-year="2019" data-end-year="2025" data-span="6" data-area="8,272" data-rms-wells="23N01E07H001M" data-sy="0.1000" data-sy-source="uniform (0.10)" data-avg-dgwe="-0.57" data-cum-stor="-2,813" data-avg-rate="-469" data-critdry-share="86%" data-crit-share="70%" data-bucket-wet="-662" data-bucket-an="+1,737" data-bucket-bn="+0" data-bucket-dry="-703" data-bucket-critical="-3,185" data-hold="469" data-project="0" data-project-name="" data-coverage="-469" data-late="1"><title>Click for 23N01E07H001M detail</title></path>
<path d="M 352.5,402.1 L 280.6,384.7 L 293.6,306.7 L 341.1,278.9 L 345.6,288.2 L 349.8,296.1 L 353.4,302.9 L 354.2,304.3 L 360.1,316.9 L 362.0,320.6 L 367.9,330.2 L 378.1,341.4 L 387.0,352.4 L 392.1,359.5 L 395.2,364.5 L 352.5,402.1 Z" class="poly" fill="#e3a76f" data-short="23N01E33A001M" data-ma="North" data-base-year="2003" data-end-year="2025" data-span="22" data-area="8,878" data-rms-wells="23N01E33A001M" data-sy="0.1000" data-sy-source="uniform (0.10)" data-avg-dgwe="-0.67" data-cum-stor="-13,006" data-avg-rate="-591" data-critdry-share="81%" data-crit-share="63%" data-bucket-wet="+4,270" data-bucket-an="-1,252" data-bucket-bn="+5,149" data-bucket-dry="-3,729" data-bucket-critical="-17,445" data-hold="591" data-project="0" data-project-name="" data-coverage="-591" data-late="1"><title>Click for 23N01E33A001M detail</title></path>
<path d="M 242.5,430.7 L 173.9,470.1 L 163.4,405.4 L 204.1,349.2 L 225.6,345.4 L 253.9,397.5 L 242.5,430.7 Z" class="poly" fill="#e3a76f" data-short="23N01W36P001M" data-ma="North" data-base-year="1999" data-end-year="2025" data-span="26" data-area="7,088" data-rms-wells="23N01W36P001M" data-sy="0.1000" data-sy-source="uniform (0.10)" data-avg-dgwe="-0.45" data-cum-stor="-8,223" data-avg-rate="-316" data-critdry-share="80%" data-crit-share="29%" data-bucket-wet="+22,648" data-bucket-an="+7,514" data-bucket-bn="-3,367" data-bucket-dry="-23,959" data-bucket-critical="-11,058" data-hold="316" data-project="3,500" data-project-name="Rock Creek recharge" data-coverage="+3,184" data-late=""><title>Click for 23N01W36P001M detail</title></path>
<path d="M 64.0,389.7 L 62.1,387.5 L 60.1,385.4 L 59.9,385.2 L 59.6,384.6 L 59.5,384.3 L 58.8,383.1 L 58.5,382.6 L 58.1,381.7 L 57.9,381.3 L 57.7,380.7 L 57.5,380.3 L 57.2,379.8 L 57.0,379.0 L 56.7,378.5 L 56.5,378.2 L 56.0,376.6 L 55.8,376.1 L 55.6,375.8 L 55.4,375.6 L 55.2,375.6 L 54.5,375.3 L 54.1,375.3 L 53.9,375.2 L 53.4,375.3 L 52.9,375.3 L 51.8,375.3 L 51.5,375.2 L 50.7,375.0 L 50.1,374.6 L 48.8,373.7 L 47.5,372.6 L 46.6,372.0 L 45.3,370.8 L 44.8,370.4 L 44.4,370.2 L 42.8,368.8 L 42.4,368.4 L 42.1,368.0 L 41.7,367.4 L 41.0,366.6 L 40.6,366.1 L 39.8,365.3 L 39.4,365.0 L 39.0,364.8 L 38.8,364.5 L 38.5,364.3 L 37.7,363.7 L 37.3,363.3 L 36.8,363.1 L 36.4,362.8 L 36.0,362.4 L 35.3,360.9 L 35.2,360.4 L 35.1,360.0 L 35.0,359.3 L 35.0,358.8 L 35.1,358.3 L 35.2,357.9 L 35.5,357.4 L 35.9,356.9 L 36.2,356.5 L 36.5,356.2 L 36.9,355.8 L 37.6,355.3 L 37.9,355.1 L 39.0,354.4 L 39.6,354.0 L 40.3,353.3 L 40.9,352.7 L 41.6,351.9 L 42.3,351.0 L 42.8,350.3 L 43.1,349.5 L 43.4,348.7 L 43.6,347.4 L 43.8,346.1 L 44.2,344.2 L 44.4,343.7 L 44.6,343.2 L 44.8,342.6 L 45.8,340.7 L 46.2,339.9 L 46.5,339.2 L 46.7,338.6 L 46.8,338.1 L 46.9,337.2 L 46.9,336.1 L 46.9,335.1 L 46.9,334.6 L 46.7,333.8 L 46.5,333.2 L 46.3,332.8 L 46.0,332.3 L 45.7,331.9 L 45.3,331.3 L 44.2,330.4 L 43.9,330.0 L 43.3,329.5 L 42.4,329.1 L 41.8,328.7 L 41.3,328.4 L 40.7,328.1 L 40.2,327.8 L 39.8,327.5 L 38.5,326.6 L 38.2,326.3 L 37.4,325.3 L 36.8,324.4 L 36.3,323.6 L 35.4,322.6 L 35.0,322.1 L 34.4,321.5 L 34.1,321.1 L 33.7,320.7 L 33.3,320.2 L 32.6,319.1 L 32.3,318.4 L 31.8,317.6 L 31.4,316.6 L 31.2,316.3 L 31.0,315.9 L 30.7,315.0 L 30.5,314.6 L 30.3,313.7 L 30.0,312.8 L 30.0,312.4 L 30.0,311.4 L 30.1,310.9 L 30.2,310.4 L 30.3,310.1 L 31.2,308.3 L 32.0,307.2 L 32.3,306.6 L 33.4,305.3 L 33.8,304.7 L 34.2,304.3 L 34.6,303.7 L 35.4,302.7 L 35.8,302.2 L 36.5,301.6 L 36.9,301.4 L 37.2,301.1 L 37.9,300.8 L 38.4,300.6 L 39.1,300.1 L 39.6,299.7 L 40.0,299.6 L 40.9,298.9 L 41.3,298.4 L 42.2,297.4 L 43.0,296.4 L 43.3,295.9 L 44.1,294.8 L 44.6,293.9 L 44.9,293.3 L 45.2,292.9 L 45.5,292.3 L 46.1,291.0 L 46.1,290.7 L 46.8,288.8 L 47.0,288.5 L 47.6,286.9 L 47.7,286.3 L 48.1,285.0 L 48.1,284.6 L 48.3,282.4 L 48.2,281.8 L 48.2,281.3 L 48.0,279.5 L 47.9,279.1 L 47.7,278.3 L 47.4,277.3 L 47.2,275.9 L 47.2,274.7 L 47.2,274.3 L 47.4,272.8 L 47.7,272.0 L 48.3,270.8 L 49.7,269.2 L 50.0,268.8 L 51.2,267.5 L 52.4,266.3 L 52.4,266.2 L 104.3,310.1 L 99.2,366.4 L 64.0,389.7 Z" class="poly" fill="#a8c8b0" data-short="23N02W25C001M" data-ma="North" data-base-year="1999" data-end-year="2025" data-span="26" data-area="5,850" data-rms-wells="23N02W25C001M" data-sy="0.1000" data-sy-source="uniform (0.10)" data-avg-dgwe="+0.18" data-cum-stor="+2,691" data-avg-rate="+104" data-critdry-share="52%" data-crit-share="25%" data-bucket-wet="+12,548" data-bucket-an="+6,552" data-bucket-bn="-7,664" data-bucket-dry="-4,855" data-bucket-critical="-3,890" data-hold="0" data-project="0" data-project-name="" data-coverage="+0" data-late=""><title>Click for 23N02W25C001M detail</title></path>
<path d="M 225.6,345.4 L 247.3,316.1 L 293.6,306.7 L 280.6,384.7 L 253.9,397.5 L 225.6,345.4 Z" class="poly" fill="#e3a76f" data-short="23N01E29P002M" data-ma="North" data-base-year="1999" data-end-year="2025" data-span="26" data-area="3,968" data-rms-wells="23N01E29P002M" data-sy="0.1000" data-sy-source="uniform (0.10)" data-avg-dgwe="-0.67" data-cum-stor="-6,904" data-avg-rate="-266" data-critdry-share="82%" data-crit-share="40%" data-bucket-wet="+7,639" data-bucket-an="+2,163" data-bucket-bn="-377" data-bucket-dry="-8,313" data-bucket-critical="-8,016" data-hold="266" data-project="3,500" data-project-name="Rock Creek recharge" data-coverage="+3,234" data-late=""><title>Click for 23N01E29P002M detail</title></path>
<path d="M 135.0,309.2 L 104.3,310.1 L 52.4,266.2 L 53.2,265.5 L 54.3,264.4 L 54.7,264.0 L 55.0,263.7 L 55.9,262.6 L 56.2,262.4 L 56.9,261.4 L 57.4,260.9 L 57.7,260.4 L 58.2,259.7 L 58.6,259.0 L 60.5,256.3 L 60.7,255.9 L 60.9,255.3 L 61.2,254.8 L 61.3,254.6 L 61.3,254.6 L 61.7,253.8 L 62.0,253.4 L 62.5,252.5 L 62.6,252.3 L 63.1,251.1 L 63.3,250.4 L 63.6,249.8 L 64.3,248.6 L 65.9,246.9 L 67.0,245.3 L 67.3,244.7 L 67.6,243.9 L 67.7,243.6 L 67.7,242.9 L 67.6,241.9 L 67.6,241.9 L 67.5,241.4 L 67.4,240.9 L 67.2,240.5 L 67.2,240.5 L 66.8,239.9 L 66.8,239.9 L 66.0,238.9 L 66.0,238.9 L 65.9,238.8 L 65.9,238.8 L 65.1,238.3 L 65.1,238.3 L 61.8,236.9 L 61.8,236.9 L 82.0,237.0 L 120.3,237.4 L 120.3,237.3 L 120.3,237.3 L 129.2,237.4 L 150.9,237.5 L 135.0,309.2 Z" class="poly" fill="#f0d9a8" data-short="23N01W09E001M" data-ma="North" data-base-year="1999" data-end-year="2025" data-span="26" data-area="5,311" data-rms-wells="23N01W09E001M" data-sy="0.1000" data-sy-source="uniform (0.10)" data-avg-dgwe="-0.11" data-cum-stor="-1,487" data-avg-rate="-57" data-critdry-share="70%" data-crit-share="14%" data-bucket-wet="+16,198" data-bucket-an="+4,912" data-bucket-bn="-5,550" data-bucket-dry="-14,180" data-bucket-critical="-2,868" data-hold="57" data-project="0" data-project-name="" data-coverage="-57" data-late=""><title>Click for 23N01W09E001M detail</title></path>
<path d="M 163.1,312.3 L 151.0,313.9 L 135.0,309.2 L 150.9,237.5 L 153.9,237.5 L 179.2,237.8 L 199.7,237.8 L 201.1,263.8 L 163.1,312.3 Z" class="poly" fill="#f0d9a8" data-short="23N01W10M001M" data-ma="North" data-base-year="2002" data-end-year="2025" data-span="23" data-area="3,522" data-rms-wells="23N01W10M001M" data-sy="0.1000" data-sy-source="uniform (0.10)" data-avg-dgwe="-0.10" data-cum-stor="-804" data-avg-rate="-35" data-critdry-share="70%" data-crit-share="35%" data-bucket-wet="+8,233" data-bucket-an="+3,031" data-bucket-bn="-1,848" data-bucket-dry="-5,363" data-bucket-critical="-4,857" data-hold="35" data-project="0" data-project-name="" data-coverage="-35" data-late="1"><title>Click for 23N01W10M001M detail</title></path>
<path d="M 225.6,345.4 L 204.1,349.2 L 163.1,312.3 L 201.1,263.8 L 247.3,316.1 L 225.6,345.4 Z" class="poly" fill="#f0d9a8" data-short="23N01W14R002M" data-ma="North" data-base-year="1999" data-end-year="2025" data-span="26" data-area="3,975" data-rms-wells="23N01W14R002M" data-sy="0.1000" data-sy-source="uniform (0.10)" data-avg-dgwe="-0.57" data-cum-stor="-5,922" data-avg-rate="-228" data-critdry-share="79%" data-crit-share="48%" data-bucket-wet="+3,372" data-bucket-an="+2,398" data-bucket-bn="-961" data-bucket-dry="-4,054" data-bucket-critical="-6,677" data-hold="228" data-project="0" data-project-name="" data-coverage="-228" data-late=""><title>Click for 23N01W14R002M detail</title></path>
<path d="M 147.9,388.7 L 151.0,313.9 L 163.1,312.3 L 204.1,349.2 L 163.4,405.4 L 147.9,388.7 Z" class="poly" fill="#f0d9a8" data-short="23N01W27L001M" data-ma="North" data-base-year="1999" data-end-year="2025" data-span="26" data-area="3,166" data-rms-wells="23N01W27L001M" data-sy="0.1000" data-sy-source="uniform (0.10)" data-avg-dgwe="-0.18" data-cum-stor="-1,456" data-avg-rate="-56" data-critdry-share="73%" data-crit-share="29%" data-bucket-wet="+10,332" data-bucket-an="+3,672" data-bucket-bn="-2,897" data-bucket-dry="-8,226" data-bucket-critical="-4,338" data-hold="56" data-project="0" data-project-name="" data-coverage="-56" data-late=""><title>Click for 23N01W27L001M detail</title></path>
<path d="M 147.9,388.7 L 99.2,366.4 L 104.3,310.1 L 135.0,309.2 L 151.0,313.9 L 147.9,388.7 Z" class="poly" fill="#a8c8b0" data-short="23N01W28M004M" data-ma="North" data-base-year="2009" data-end-year="2025" data-span="16" data-area="3,359" data-rms-wells="23N01W28M004M" data-sy="0.1000" data-sy-source="uniform (0.10)" data-avg-dgwe="+0.11" data-cum-stor="+597" data-avg-rate="+37" data-critdry-share="59%" data-crit-share="32%" data-bucket-wet="+8,613" data-bucket-an="+2,450" data-bucket-bn="-4,476" data-bucket-dry="-2,959" data-bucket-critical="-3,030" data-hold="0" data-project="0" data-project-name="" data-coverage="+0" data-late="1"><title>Click for 23N01W28M004M detail</title></path>
<path d="M 173.9,470.1 L 242.5,430.7 L 262.7,438.5 L 304.2,484.9 L 291.3,518.0 L 290.7,516.7 L 290.7,516.7 L 289.9,516.9 L 288.2,517.2 L 287.9,515.3 L 289.6,515.0 L 291.0,514.8 L 291.0,514.8 L 291.0,514.8 L 291.0,514.7 L 290.9,514.0 L 290.4,510.8 L 290.4,510.8 L 290.3,510.8 L 290.3,510.8 L 290.2,510.7 L 290.2,510.7 L 290.2,510.7 L 290.1,510.7 L 290.1,510.7 L 290.0,510.7 L 290.0,510.7 L 289.9,510.7 L 289.9,510.6 L 289.8,510.6 L 289.8,510.6 L 289.8,510.6 L 289.8,510.6 L 289.7,510.6 L 289.7,510.6 L 289.7,510.6 L 289.7,510.6 L 289.6,510.6 L 289.6,510.6 L 289.6,510.6 L 289.5,510.6 L 289.5,510.6 L 289.5,510.6 L 289.4,510.7 L 289.3,510.7 L 289.3,510.7 L 289.2,510.7 L 289.2,510.7 L 289.2,510.8 L 289.1,510.8 L 289.0,510.8 L 288.9,510.8 L 288.9,510.8 L 288.9,510.9 L 288.8,510.9 L 288.8,510.9 L 288.8,510.9 L 288.7,510.9 L 288.6,510.9 L 288.4,510.7 L 288.4,510.7 L 288.4,510.7 L 288.4,510.7 L 288.4,510.7 L 288.4,510.7 L 288.4,510.7 L 288.3,510.6 L 288.3,510.6 L 288.2,510.5 L 288.2,510.5 L 288.1,510.4 L 288.1,510.4 L 288.0,510.3 L 288.0,510.3 L 287.8,510.2 L 287.8,510.2 L 287.7,510.1 L 287.7,510.1 L 287.5,510.0 L 287.5,510.0 L 287.1,509.8 L 287.1,509.8 L 287.0,509.8 L 287.0,509.8 L 286.9,509.7 L 286.9,509.7 L 286.8,509.6 L 286.8,509.6 L 286.6,509.5 L 286.6,509.5 L 286.1,509.1 L 286.1,509.1 L 286.0,509.1 L 286.0,509.1 L 285.9,509.0 L 285.9,509.0 L 285.8,509.0 L 285.8,509.0 L 285.6,508.8 L 285.6,508.8 L 285.5,508.7 L 285.5,508.7 L 285.4,508.7 L 285.4,508.7 L 285.2,508.6 L 285.2,508.6 L 285.1,508.5 L 285.1,508.5 L 285.0,508.5 L 284.9,508.5 L 284.8,508.5 L 284.7,508.4 L 284.5,508.4 L 284.4,508.5 L 284.2,508.5 L 284.1,508.4 L 284.0,508.4 L 284.0,508.4 L 283.9,508.3 L 283.9,508.3 L 283.8,508.8 L 282.1,508.2 L 282.1,508.2 L 282.5,507.2 L 282.4,507.1 L 282.4,507.1 L 282.4,507.0 L 282.4,506.9 L 282.3,506.8 L 282.3,506.8 L 282.3,506.8 L 282.2,506.6 L 282.2,506.6 L 282.1,506.5 L 282.1,506.5 L 281.9,506.3 L 281.9,506.3 L 281.6,506.2 L 281.6,506.2 L 281.3,506.1 L 281.3,506.1 L 281.2,506.0 L 281.2,506.0 L 281.1,505.9 L 281.1,505.9 L 281.1,505.9 L 281.1,505.9 L 281.0,505.9 L 281.0,505.9 L 281.0,505.8 L 281.0,505.8 L 280.9,505.8 L 280.9,505.8 L 280.8,505.8 L 280.7,505.8 L 280.5,505.7 L 280.4,505.7 L 280.4,505.7 L 280.4,505.7 L 280.3,505.7 L 280.3,505.7 L 280.2,505.7 L 280.0,505.7 L 280.0,505.7 L 279.9,505.6 L 279.9,505.6 L 279.9,505.6 L 279.9,505.6 L 279.8,505.6 L 279.8,505.6 L 279.7,505.5 L 279.7,505.5 L 279.7,505.4 L 279.7,505.4 L 279.5,505.3 L 279.5,505.3 L 279.4,505.2 L 279.4,505.2 L 279.3,505.1 L 279.3,505.1 L 279.2,505.0 L 279.2,505.0 L 279.0,504.8 L 279.0,504.8 L 279.0,504.8 L 279.0,504.8 L 278.9,504.7 L 278.9,504.7 L 278.8,504.7 L 278.7,504.7 L 278.6,504.6 L 278.5,504.6 L 278.5,504.6 L 278.4,504.6 L 278.4,504.6 L 278.3,504.6 L 278.1,504.7 L 277.9,504.8 L 277.8,504.9 L 277.7,505.0 L 277.4,505.1 L 277.3,505.2 L 277.3,505.2 L 277.2,505.3 L 277.1,505.5 L 276.9,505.6 L 276.8,505.8 L 276.7,505.9 L 276.6,506.0 L 276.6,506.1 L 276.5,506.3 L 276.3,506.5 L 276.0,506.9 L 275.8,507.0 L 275.7,507.2 L 275.6,507.3 L 275.2,507.5 L 275.2,507.5 L 275.2,507.5 L 275.0,507.6 L 274.6,507.7 L 274.3,507.7 L 274.0,507.7 L 273.7,507.7 L 273.4,507.6 L 273.4,507.6 L 273.3,507.6 L 273.3,507.6 L 273.3,507.6 L 273.3,507.6 L 273.2,507.5 L 273.2,507.5 L 273.2,507.5 L 273.1,507.5 L 273.1,507.5 L 273.0,507.5 L 272.8,507.4 L 272.6,507.4 L 272.6,507.4 L 272.5,507.5 L 272.3,507.5 L 272.2,507.6 L 272.0,507.7 L 271.8,507.8 L 271.7,507.8 L 271.5,507.8 L 271.4,507.9 L 271.4,507.9 L 271.2,507.9 L 271.0,507.9 L 270.7,507.9 L 270.5,508.0 L 270.5,508.0 L 270.3,508.1 L 270.0,508.3 L 269.8,508.4 L 269.5,508.6 L 269.3,508.8 L 269.2,508.8 L 269.1,508.9 L 268.9,509.2 L 268.7,509.3 L 268.6,509.4 L 268.5,509.5 L 268.5,509.6 L 268.4,509.7 L 268.4,509.7 L 268.4,509.7 L 268.3,509.8 L 268.2,509.9 L 268.2,509.9 L 268.1,509.9 L 268.1,510.0 L 268.0,510.0 L 268.0,510.0 L 267.9,510.1 L 267.9,510.1 L 267.8,510.1 L 267.8,510.1 L 267.7,510.2 L 267.6,510.2 L 267.5,510.2 L 267.3,510.3 L 267.1,510.5 L 266.9,510.6 L 266.7,510.7 L 266.5,510.7 L 266.5,510.7 L 266.3,510.7 L 266.2,510.7 L 266.2,510.7 L 266.1,510.7 L 266.0,510.7 L 266.0,510.6 L 265.8,510.6 L 265.8,510.6 L 265.7,510.5 L 265.7,510.5 L 265.7,510.5 L 265.7,510.5 L 265.6,510.4 L 265.6,510.4 L 265.5,510.3 L 265.5,510.3 L 265.5,510.3 L 265.3,510.3 L 265.3,510.3 L 265.2,510.3 L 265.1,510.3 L 265.1,510.3 L 264.8,510.3 L 264.6,510.3 L 264.5,510.3 L 264.4,510.3 L 264.4,510.4 L 264.2,510.4 L 264.0,510.5 L 263.8,510.7 L 263.7,510.9 L 263.6,510.9 L 263.6,510.9 L 263.4,511.1 L 263.3,511.2 L 263.2,511.3 L 262.9,511.5 L 262.7,511.6 L 262.7,511.6 L 262.5,511.8 L 262.4,511.9 L 262.2,512.0 L 262.0,512.1 L 261.7,512.2 L 261.4,512.3 L 261.1,512.3 L 260.8,512.4 L 260.6,512.4 L 260.4,512.4 L 260.2,512.4 L 260.1,512.4 L 260.0,512.4 L 259.8,512.4 L 259.7,512.4 L 259.7,512.4 L 259.5,512.3 L 259.3,512.3 L 259.3,512.3 L 259.2,512.3 L 259.0,512.2 L 259.0,512.2 L 259.0,512.2 L 258.8,512.1 L 258.8,512.1 L 258.8,512.0 L 258.8,512.0 L 258.6,512.1 L 258.5,512.1 L 258.4,512.1 L 258.4,512.1 L 258.4,512.0 L 258.4,512.0 L 258.3,512.1 L 258.3,512.1 L 258.1,512.1 L 258.1,512.0 L 258.1,512.0 L 257.8,512.0 L 257.7,512.1 L 257.4,512.1 L 257.3,512.1 L 257.1,512.2 L 257.0,512.2 L 256.8,512.3 L 256.7,512.4 L 256.5,512.6 L 256.3,512.9 L 256.1,513.2 L 256.1,513.3 L 256.0,513.4 L 255.8,513.5 L 255.7,513.6 L 255.6,513.8 L 255.5,514.0 L 255.4,514.2 L 255.3,514.4 L 255.2,514.5 L 255.0,514.7 L 254.8,514.8 L 254.7,514.9 L 254.3,515.0 L 254.2,515.0 L 254.0,515.0 L 253.8,515.0 L 253.6,515.0 L 253.4,515.0 L 253.1,515.2 L 252.9,515.4 L 252.8,515.5 L 252.6,515.6 L 252.5,515.8 L 252.4,516.1 L 252.4,516.2 L 252.2,516.4 L 252.1,516.6 L 252.0,516.6 L 251.8,516.7 L 251.7,516.8 L 251.6,516.9 L 251.4,517.0 L 251.3,517.0 L 251.2,517.0 L 250.9,517.0 L 250.8,517.1 L 250.7,517.0 L 250.6,516.9 L 250.6,516.9 L 250.5,516.7 L 250.5,516.7 L 250.3,516.7 L 250.3,516.7 L 250.1,516.7 L 250.0,516.8 L 249.8,516.9 L 249.6,517.1 L 249.4,517.2 L 249.2,517.3 L 249.1,517.4 L 248.8,517.5 L 248.7,517.6 L 248.6,517.7 L 248.4,517.9 L 248.2,518.0 L 248.1,518.1 L 248.0,518.2 L 247.7,518.3 L 247.5,518.4 L 247.3,518.5 L 247.1,518.6 L 247.0,518.8 L 246.9,518.9 L 246.8,519.0 L 246.7,519.2 L 246.7,519.3 L 246.6,519.4 L 246.5,519.6 L 246.3,519.6 L 246.2,519.7 L 246.1,519.7 L 245.9,519.6 L 245.9,519.6 L 245.6,519.6 L 245.1,519.9 L 245.0,520.0 L 244.8,520.1 L 244.7,520.2 L 244.6,520.2 L 244.3,520.4 L 244.2,520.4 L 244.1,520.5 L 244.0,520.6 L 243.7,520.6 L 243.7,520.6 L 243.4,520.6 L 243.1,520.6 L 242.9,520.5 L 242.6,520.5 L 242.3,520.4 L 242.1,520.3 L 242.1,520.3 L 241.9,520.2 L 241.9,520.2 L 241.5,520.1 L 241.2,520.1 L 241.0,520.1 L 240.8,520.1 L 240.2,520.3 L 239.7,520.7 L 239.3,521.1 L 238.9,521.3 L 238.5,521.7 L 238.1,522.0 L 237.7,522.2 L 237.2,522.3 L 236.8,522.5 L 236.6,522.7 L 236.4,523.0 L 236.1,523.1 L 236.0,523.3 L 235.6,523.4 L 235.3,523.5 L 235.0,523.6 L 234.7,523.6 L 234.3,523.7 L 233.5,523.6 L 232.8,523.5 L 232.7,523.4 L 232.7,523.4 L 232.3,523.3 L 231.7,523.3 L 231.3,523.3 L 230.8,523.2 L 230.0,523.1 L 229.4,523.6 L 229.0,524.0 L 228.5,524.2 L 228.3,524.4 L 227.9,524.4 L 227.6,524.5 L 227.2,524.4 L 227.2,524.4 L 226.9,524.3 L 226.9,524.3 L 226.6,524.1 L 226.6,524.1 L 226.3,524.1 L 225.9,524.3 L 225.6,524.4 L 225.4,524.5 L 224.9,524.5 L 224.3,524.0 L 224.3,524.0 L 223.8,523.6 L 223.8,523.6 L 223.1,523.5 L 221.3,523.7 L 220.8,523.5 L 220.8,523.5 L 220.6,523.3 L 220.6,523.3 L 220.4,523.0 L 220.4,523.0 L 220.1,523.0 L 220.0,523.2 L 219.7,523.4 L 219.4,523.6 L 218.9,523.8 L 218.6,524.1 L 218.3,524.3 L 218.1,524.4 L 217.8,524.5 L 217.5,524.5 L 217.2,524.6 L 217.0,524.7 L 216.8,524.7 L 216.5,524.7 L 216.0,524.7 L 215.7,524.9 L 215.5,525.1 L 215.3,525.1 L 215.0,525.2 L 214.8,525.1 L 214.5,525.1 L 214.5,525.1 L 214.4,525.1 L 214.4,525.1 L 214.1,525.1 L 213.9,525.2 L 213.6,525.3 L 213.4,525.4 L 213.2,525.4 L 212.5,525.7 L 212.2,526.0 L 212.0,526.3 L 211.9,526.5 L 211.8,526.9 L 211.8,526.9 L 212.0,527.1 L 212.2,527.6 L 212.2,527.6 L 212.6,528.2 L 212.6,528.2 L 212.9,529.0 L 212.9,529.3 L 212.8,530.6 L 212.8,531.6 L 212.6,532.0 L 212.4,532.6 L 212.0,533.3 L 211.8,533.5 L 211.4,533.8 L 211.1,534.2 L 210.9,534.5 L 210.9,535.3 L 211.1,535.9 L 210.9,536.5 L 210.8,536.8 L 210.7,537.0 L 210.5,537.5 L 210.5,537.8 L 210.3,538.3 L 210.1,538.7 L 209.9,538.9 L 209.8,539.2 L 209.7,539.3 L 209.6,540.1 L 209.3,540.3 L 209.0,540.3 L 208.8,540.4 L 208.6,540.5 L 208.2,540.7 L 208.1,540.9 L 207.9,541.1 L 207.7,541.3 L 207.4,541.4 L 207.0,541.3 L 206.7,541.5 L 206.3,541.8 L 206.3,542.1 L 206.3,542.3 L 206.1,542.7 L 205.9,543.0 L 205.3,543.4 L 204.7,543.7 L 204.2,544.2 L 203.6,544.4 L 203.1,544.7 L 202.9,545.3 L 202.8,546.2 L 202.7,546.8 L 202.2,550.8 L 199.5,555.3 L 199.4,555.6 L 199.4,555.6 L 199.4,555.6 L 199.4,555.2 L 199.0,554.1 L 198.6,552.9 L 198.3,551.7 L 197.7,550.7 L 197.2,549.0 L 196.4,546.9 L 195.7,545.6 L 194.5,543.3 L 193.8,541.8 L 193.3,540.5 L 193.1,539.4 L 193.1,538.0 L 193.3,537.1 L 193.6,535.8 L 193.7,534.5 L 193.9,533.5 L 193.8,532.6 L 193.5,531.2 L 193.3,530.3 L 192.8,529.0 L 192.3,527.9 L 191.4,526.6 L 190.5,525.4 L 189.7,524.4 L 188.7,523.6 L 188.3,522.7 L 187.9,521.8 L 187.7,520.5 L 187.7,519.6 L 187.7,518.9 L 188.0,517.9 L 188.2,516.6 L 188.6,515.7 L 189.2,514.4 L 189.9,513.4 L 190.6,512.5 L 191.4,511.3 L 192.0,510.3 L 192.4,509.4 L 192.5,508.0 L 192.4,506.5 L 192.3,504.9 L 192.3,503.2 L 192.3,501.4 L 191.8,500.2 L 191.4,499.4 L 190.9,498.4 L 190.1,497.5 L 189.3,496.8 L 188.4,496.4 L 187.5,496.2 L 186.9,496.3 L 186.0,496.5 L 185.5,496.7 L 185.0,497.1 L 184.7,497.8 L 184.4,498.7 L 184.0,500.0 L 183.5,501.6 L 182.8,503.3 L 182.3,504.7 L 181.9,506.1 L 181.5,507.3 L 181.3,508.8 L 181.1,510.6 L 181.0,512.0 L 180.8,513.8 L 180.7,515.9 L 180.3,517.6 L 179.6,518.4 L 178.6,519.4 L 178.1,520.1 L 177.3,520.7 L 176.1,521.4 L 174.8,521.9 L 173.4,522.4 L 171.7,522.6 L 170.6,522.3 L 169.8,521.7 L 169.1,521.1 L 168.1,520.3 L 167.2,519.7 L 166.2,518.9 L 165.7,518.0 L 165.1,517.1 L 164.5,516.2 L 164.1,514.8 L 164.1,513.7 L 164.2,512.5 L 164.3,511.3 L 164.5,510.1 L 165.1,508.8 L 165.7,507.8 L 166.3,506.6 L 166.9,505.4 L 167.1,504.6 L 167.8,504.0 L 168.5,503.6 L 169.4,503.1 L 170.6,502.8 L 172.0,502.4 L 172.4,501.8 L 172.9,501.0 L 173.2,499.9 L 173.3,498.9 L 173.4,497.5 L 173.6,496.0 L 174.0,494.4 L 174.1,493.4 L 174.4,492.1 L 174.0,490.6 L 173.8,489.9 L 173.3,488.8 L 173.0,488.1 L 172.5,487.0 L 172.0,486.1 L 171.3,485.0 L 170.5,483.6 L 169.6,482.2 L 168.9,481.4 L 168.7,481.4 L 173.9,470.1 Z M 238.2,556.4 L 238.2,555.2 L 238.2,554.9 L 243.1,553.0 L 243.4,552.9 L 243.5,552.9 L 238.2,556.4 Z M 274.3,532.1 L 274.8,530.6 L 275.8,527.8 L 279.3,527.3 L 279.6,527.2 L 281.8,526.9 L 282.2,526.8 L 274.3,532.1 Z M 284.6,525.2 L 284.2,522.8 L 289.4,522.0 L 284.6,525.2 Z" class="poly" fill="#cb7740" data-short="22N01E20K001M" data-ma="Chico" data-base-year="2000" data-end-year="2022" data-span="22" data-area="9,186" data-rms-wells="22N01E20K001M" data-sy="0.1000" data-sy-source="uniform (0.10)" data-avg-dgwe="-0.98" data-cum-stor="-19,751" data-avg-rate="-898" data-critdry-share="92%" data-crit-share="53%" data-bucket-wet="+15,938" data-bucket-an="+2,940" data-bucket-bn="+5,650" data-bucket-dry="-18,667" data-bucket-critical="-25,611" data-hold="898" data-project="0" data-project-name="" data-coverage="-898" data-late="1"><title>Click for 22N01E20K001M detail</title></path>
<path d="M 345.6,416.9 L 262.7,438.5 L 242.5,430.7 L 253.9,397.5 L 280.6,384.7 L 352.5,402.1 L 345.6,416.9 Z" class="poly" fill="#f0d9a8" data-short="22N01E09B001M" data-ma="Chico" data-base-year="2002" data-end-year="2025" data-span="23" data-area="3,718" data-rms-wells="22N01E09B001M" data-sy="0.1000" data-sy-source="uniform (0.10)" data-avg-dgwe="-0.60" data-cum-stor="-5,093" data-avg-rate="-221" data-critdry-share="93%" data-crit-share="57%" data-bucket-wet="+4,257" data-bucket-an="+3,141" data-bucket-bn="+1,115" data-bucket-dry="-5,242" data-bucket-critical="-8,365" data-hold="221" data-project="0" data-project-name="" data-coverage="-221" data-late="1"><title>Click for 22N01E09B001M detail</title></path>
<path d="M 526.3,699.9 L 598.7,737.6 L 526.3,821.2 L 522.8,818.0 L 522.8,818.0 L 521.6,817.0 L 521.6,807.8 L 521.6,807.8 L 521.6,807.8 L 521.6,807.8 L 512.1,808.0 L 511.3,808.1 L 511.3,808.1 L 511.3,808.1 L 510.6,807.6 L 510.6,807.6 L 509.4,806.5 L 509.4,806.5 L 509.4,806.5 L 509.4,806.5 L 509.3,814.0 L 509.3,815.1 L 509.3,815.1 L 509.4,815.2 L 509.4,815.2 L 509.4,833.3 L 508.0,833.2 L 506.0,833.2 L 499.4,833.3 L 499.4,833.3 L 499.4,833.3 L 499.7,832.5 L 499.7,832.5 L 499.9,831.9 L 499.9,831.9 L 500.5,830.0 L 500.5,830.0 L 500.7,828.9 L 500.7,828.9 L 502.1,817.9 L 502.1,817.9 L 502.4,816.0 L 502.4,816.0 L 502.6,813.8 L 502.6,813.8 L 502.7,812.0 L 502.9,808.7 L 502.9,808.7 L 503.2,805.8 L 503.2,805.8 L 502.9,800.7 L 502.9,800.7 L 503.0,800.0 L 503.0,800.0 L 502.8,797.4 L 502.8,797.4 L 502.6,796.4 L 502.7,795.6 L 502.7,795.6 L 502.8,794.7 L 502.8,794.7 L 502.5,794.2 L 502.5,794.2 L 502.3,791.6 L 502.3,791.6 L 502.0,786.5 L 502.0,786.5 L 501.7,783.4 L 501.6,783.1 L 501.6,783.1 L 501.6,782.7 L 501.6,782.7 L 501.6,781.8 L 501.6,781.8 L 501.6,780.5 L 501.6,780.5 L 501.7,778.9 L 501.7,778.9 L 501.7,777.5 L 501.7,777.5 L 501.9,776.2 L 501.9,776.2 L 502.1,774.7 L 502.1,774.7 L 502.1,773.8 L 502.1,773.8 L 502.2,773.7 L 502.2,773.7 L 502.4,773.3 L 503.2,772.1 L 503.3,771.9 L 503.3,771.6 L 503.3,771.6 L 503.3,771.5 L 503.1,771.3 L 503.1,771.3 L 503.1,771.3 L 503.0,771.3 L 501.7,771.3 L 499.3,771.4 L 497.0,771.4 L 496.5,771.4 L 496.5,771.4 L 496.3,770.7 L 496.4,769.4 L 496.4,769.4 L 496.4,764.1 L 496.4,764.1 L 496.4,763.5 L 496.4,763.5 L 496.4,763.2 L 496.4,763.2 L 496.4,757.7 L 496.4,757.7 L 496.4,756.9 L 496.4,756.9 L 496.4,753.3 L 496.4,753.3 L 496.4,753.4 L 490.8,754.2 L 490.6,754.2 L 490.5,754.1 L 490.5,754.1 L 490.5,754.1 L 490.5,754.1 L 490.2,753.9 L 490.2,753.9 L 489.9,753.7 L 489.9,753.7 L 487.4,751.3 L 487.4,751.3 L 487.0,750.9 L 487.0,750.9 L 479.4,744.5 L 479.4,744.5 L 479.0,744.2 L 479.0,744.2 L 478.9,744.1 L 478.9,744.1 L 478.3,743.6 L 478.3,743.6 L 475.8,741.7 L 526.3,699.9 Z" class="poly" fill="#cb7740" data-short="20N02E24C001M" data-ma="South" data-base-year="2000" data-end-year="2024" data-span="24" data-area="7,862" data-rms-wells="20N02E24C001M" data-sy="0.1000" data-sy-source="uniform (0.10)" data-avg-dgwe="-0.97" data-cum-stor="-18,353" data-avg-rate="-765" data-critdry-share="85%" data-crit-share="51%" data-bucket-wet="+1,760" data-bucket-an="+3,463" data-bucket-bn="+600" data-bucket-dry="-9,652" data-bucket-critical="-14,525" data-hold="765" data-project="1,250" data-project-name="Conjunctive use (surface water replaces groundwater)" data-coverage="+485" data-late="1"><title>Click for 20N02E24C001M detail</title></path>
<path d="M 367.2,542.3 L 373.7,538.0 L 476.6,554.2 L 435.0,618.9 L 401.5,625.6 L 400.1,625.2 L 360.2,562.0 L 367.2,542.3 Z" class="poly" fill="#a8c8b0" data-short="21N02E18C003M" data-ma="South" data-base-year="2011" data-end-year="2025" data-span="14" data-area="6,431" data-rms-wells="21N02E18C003M" data-sy="0.1000" data-sy-source="uniform (0.10)" data-avg-dgwe="+0.90" data-cum-stor="+8,078" data-avg-rate="+577" data-critdry-share="61%" data-crit-share="37%" data-bucket-wet="+26,416" data-bucket-an="+3,693" data-bucket-bn="-11,508" data-bucket-dry="-5,877" data-bucket-critical="-4,647" data-hold="0" data-project="0" data-project-name="" data-coverage="+0" data-late="1"><title>Click for 21N02E18C003M detail</title></path>
<path d="M 261.5,727.7 L 261.6,734.8 L 261.3,734.8 L 261.3,734.9 L 260.8,734.9 L 252.8,735.0 L 261.5,727.7 Z M 332.6,667.6 L 380.9,680.9 L 402.9,716.5 L 401.5,718.2 L 400.7,719.2 L 399.9,720.4 L 398.8,721.6 L 397.4,723.3 L 396.5,724.7 L 395.7,726.0 L 394.4,728.2 L 392.9,731.1 L 392.1,732.8 L 390.5,735.2 L 389.8,736.2 L 389.8,736.2 L 389.4,738.1 L 389.4,738.1 L 388.7,740.0 L 388.7,740.0 L 387.6,742.7 L 387.6,742.7 L 386.5,744.6 L 385.2,745.7 L 385.2,745.7 L 385.2,745.6 L 384.9,734.5 L 384.9,734.5 L 384.7,734.1 L 384.7,734.1 L 384.7,734.1 L 383.4,734.1 L 377.0,734.0 L 376.9,734.0 L 376.6,734.0 L 368.8,733.9 L 367.9,733.6 L 362.5,733.6 L 356.8,733.7 L 356.5,733.7 L 356.0,733.8 L 355.8,733.8 L 353.8,733.7 L 351.5,733.7 L 350.2,733.9 L 348.7,734.3 L 348.5,734.6 L 347.9,735.5 L 347.7,736.1 L 347.0,736.1 L 346.4,736.1 L 346.2,736.1 L 343.5,736.2 L 340.7,736.2 L 340.3,736.2 L 340.0,736.4 L 338.3,737.8 L 338.0,738.0 L 337.1,738.0 L 336.5,738.3 L 335.8,738.7 L 335.8,738.7 L 335.8,739.2 L 335.8,739.2 L 335.8,740.0 L 335.8,740.1 L 335.9,740.4 L 335.9,740.4 L 335.9,740.5 L 335.9,740.5 L 336.0,742.4 L 336.0,742.4 L 336.0,743.3 L 335.8,743.3 L 335.4,743.3 L 331.6,743.4 L 324.1,743.4 L 323.8,743.4 L 323.4,743.4 L 323.2,743.4 L 323.2,743.4 L 323.2,743.4 L 323.1,743.1 L 323.1,743.1 L 323.0,742.0 L 323.0,742.0 L 323.0,739.2 L 323.0,739.2 L 323.0,734.6 L 323.0,734.6 L 323.0,733.4 L 323.0,733.2 L 323.0,733.2 L 322.9,725.7 L 322.9,724.4 L 322.9,724.4 L 322.9,721.7 L 322.9,721.7 L 322.8,720.9 L 322.8,720.9 L 322.8,719.8 L 322.8,719.8 L 322.8,717.1 L 322.8,717.1 L 322.8,715.3 L 322.8,715.3 L 322.8,715.1 L 322.8,715.1 L 322.7,714.8 L 322.7,714.8 L 322.8,712.8 L 322.8,712.8 L 322.7,709.1 L 322.7,709.1 L 322.7,709.0 L 322.7,708.7 L 322.7,708.7 L 322.7,708.7 L 322.4,708.7 L 320.7,708.7 L 314.5,708.8 L 310.4,708.9 L 292.2,709.1 L 292.0,709.2 L 291.8,709.2 L 286.0,709.1 L 285.8,709.2 L 285.5,709.4 L 283.1,709.5 L 332.6,667.6 Z M 412.2,731.4 L 412.2,736.0 L 411.7,734.2 L 409.7,727.5 L 412.2,731.4 Z" class="poly" fill="#f0d9a8" data-short="20N01E02H003M" data-ma="South" data-base-year="2002" data-end-year="2025" data-span="23" data-area="5,202" data-rms-wells="20N01E02H003M" data-sy="0.1000" data-sy-source="uniform (0.10)" data-avg-dgwe="-0.44" data-cum-stor="-5,280" data-avg-rate="-230" data-critdry-share="84%" data-crit-share="48%" data-bucket-wet="+10,447" data-bucket-an="+3,627" data-bucket-bn="+1,367" data-bucket-dry="-9,157" data-bucket-critical="-11,564" data-hold="230" data-project="0" data-project-name="" data-coverage="-230" data-late="1"><title>Click for 20N01E02H003M detail</title></path>
<path d="M 412.2,731.4 L 447.8,663.3 L 520.8,686.5 L 526.3,699.9 L 475.8,741.7 L 471.6,738.5 L 471.6,738.5 L 471.6,738.5 L 456.7,742.1 L 454.2,745.2 L 454.2,745.2 L 454.1,745.5 L 454.2,745.9 L 454.2,745.9 L 455.9,747.9 L 455.9,747.9 L 450.9,751.7 L 440.0,760.3 L 440.0,760.3 L 440.0,760.3 L 438.7,759.5 L 438.7,759.5 L 438.7,759.5 L 422.3,765.5 L 420.8,766.0 L 420.8,766.0 L 413.8,741.6 L 413.8,741.6 L 413.6,741.3 L 413.6,741.3 L 412.2,736.0 L 412.2,731.4 Z" class="poly" fill="#e3a76f" data-short="20N02E09G001M" data-ma="South" data-base-year="2002" data-end-year="2024" data-span="22" data-area="6,522" data-rms-wells="20N02E09G001M" data-sy="0.1000" data-sy-source="uniform (0.10)" data-avg-dgwe="-0.56" data-cum-stor="-8,017" data-avg-rate="-364" data-critdry-share="92%" data-crit-share="43%" data-bucket-wet="+5,877" data-bucket-an="+2,107" data-bucket-bn="+1,787" data-bucket-dry="-10,719" data-bucket-critical="-7,069" data-hold="364" data-project="2,250" data-project-name="Conjunctive use (surface water replaces groundwater)" data-coverage="+1,886" data-late="1"><title>Click for 20N02E09G001M detail</title></path>
<path d="M 652.2,730.4 L 649.6,735.9 L 649.6,736.0 L 648.2,738.2 L 646.5,740.4 L 644.9,741.7 L 632.2,751.5 L 629.2,753.1 L 625.8,754.9 L 622.3,756.4 L 616.0,760.1 L 604.5,769.1 L 600.3,771.8 L 598.1,773.6 L 593.3,778.8 L 593.3,778.8 L 592.3,781.8 L 592.3,781.8 L 591.9,784.0 L 591.9,784.0 L 592.3,787.1 L 592.9,789.7 L 596.5,799.6 L 598.9,810.9 L 598.9,810.9 L 599.7,820.0 L 599.7,820.0 L 600.9,828.1 L 600.9,828.1 L 600.9,834.7 L 600.9,834.7 L 600.9,834.7 L 600.9,834.7 L 599.8,834.7 L 590.1,834.9 L 590.1,836.6 L 590.2,837.1 L 590.2,837.2 L 590.2,840.2 L 585.6,840.2 L 585.6,841.0 L 585.6,843.3 L 584.4,843.3 L 584.2,843.3 L 582.5,843.3 L 580.2,843.2 L 577.0,843.2 L 574.5,843.1 L 574.4,843.1 L 574.4,843.1 L 571.7,843.1 L 571.7,842.3 L 571.7,841.1 L 571.6,839.4 L 571.6,837.9 L 571.6,836.4 L 571.6,834.8 L 571.6,832.9 L 571.6,832.9 L 571.6,832.7 L 571.6,832.7 L 571.5,832.5 L 571.5,832.5 L 555.2,832.6 L 554.2,832.6 L 552.7,832.7 L 551.4,832.9 L 546.9,833.0 L 546.9,833.0 L 546.9,839.1 L 546.9,839.1 L 546.8,839.4 L 546.1,839.3 L 546.1,839.3 L 546.1,839.3 L 541.2,834.8 L 541.2,834.8 L 540.0,833.6 L 540.0,833.6 L 537.4,831.2 L 537.4,831.2 L 534.5,828.5 L 534.5,828.5 L 532.4,826.7 L 532.4,826.7 L 532.0,826.3 L 532.0,826.3 L 526.3,821.2 L 598.7,737.6 L 652.2,730.4 Z" class="poly" fill="#e3a76f" data-short="20N03E33L001M" data-ma="South" data-base-year="2000" data-end-year="2025" data-span="25" data-area="5,182" data-rms-wells="20N03E33L001M" data-sy="0.1000" data-sy-source="uniform (0.10)" data-avg-dgwe="-0.69" data-cum-stor="-8,871" data-avg-rate="-355" data-critdry-share="69%" data-crit-share="40%" data-bucket-wet="+2,178" data-bucket-an="+1,744" data-bucket-bn="-3,129" data-bucket-dry="-3,914" data-bucket-critical="-5,751" data-hold="355" data-project="1,250" data-project-name="Conjunctive use (surface water replaces groundwater)" data-coverage="+895" data-late="1"><title>Click for 20N03E33L001M detail</title></path>
<path d="M 367.2,542.3 L 360.2,562.0 L 326.2,601.4 L 267.0,589.1 L 268.1,587.7 L 269.1,587.2 L 270.1,587.1 L 270.3,587.1 L 270.9,586.7 L 271.0,586.1 L 271.5,584.6 L 272.3,583.9 L 273.3,583.7 L 273.5,583.5 L 275.2,582.1 L 275.2,582.1 L 275.5,581.9 L 275.5,581.9 L 275.5,581.9 L 275.5,581.9 L 275.6,581.8 L 276.7,581.2 L 277.9,579.9 L 278.3,578.0 L 274.5,575.9 L 274.5,575.9 L 274.0,575.5 L 274.0,575.5 L 273.7,575.0 L 273.7,575.0 L 273.6,574.4 L 273.7,572.3 L 273.8,569.0 L 273.8,569.0 L 272.3,569.6 L 269.7,570.4 L 266.0,571.7 L 263.6,570.1 L 263.6,570.1 L 258.3,571.8 L 254.7,572.0 L 252.5,571.9 L 250.8,572.0 L 250.4,572.0 L 249.1,572.4 L 248.5,572.4 L 247.5,572.5 L 246.5,572.9 L 245.9,573.7 L 245.3,573.9 L 244.4,573.6 L 244.4,573.6 L 244.4,572.1 L 244.4,572.1 L 244.1,572.2 L 244.0,572.3 L 243.8,572.4 L 243.6,572.6 L 243.2,572.8 L 243.0,572.9 L 242.7,573.0 L 242.5,573.1 L 242.3,573.1 L 241.9,573.2 L 241.6,573.3 L 241.3,573.6 L 241.2,573.7 L 240.9,574.2 L 240.7,574.4 L 240.4,574.7 L 240.2,574.9 L 239.8,575.1 L 239.4,575.0 L 239.2,575.0 L 238.9,575.0 L 238.7,574.9 L 238.6,574.9 L 238.5,574.9 L 238.3,575.0 L 238.3,573.1 L 238.2,569.9 L 238.2,556.4 L 243.5,552.9 L 263.4,545.3 L 266.8,544.3 L 270.8,542.9 L 272.2,538.8 L 273.0,536.1 L 273.9,533.3 L 274.3,532.1 L 282.2,526.8 L 284.8,526.4 L 284.8,526.1 L 284.6,525.2 L 289.4,522.0 L 290.5,521.8 L 367.2,542.3 Z" class="poly" fill="#e3a76f" data-short="21N01E10B003M" data-ma="South" data-base-year="1999" data-end-year="2025" data-span="26" data-area="6,309" data-rms-wells="21N01E10B003M" data-sy="0.1000" data-sy-source="uniform (0.10)" data-avg-dgwe="-0.84" data-cum-stor="-13,753" data-avg-rate="-529" data-critdry-share="84%" data-crit-share="40%" data-bucket-wet="+12,113" data-bucket-an="+6,876" data-bucket-bn="+1,546" data-bucket-dry="-17,885" data-bucket-critical="-16,403" data-hold="529" data-project="1,500" data-project-name="Comanche Creek recharge" data-coverage="+971" data-late=""><title>Click for 21N01E10B003M detail</title></path>
<path d="M 400.1,625.2 L 342.5,627.4 L 326.2,601.4 L 360.2,562.0 L 400.1,625.2 Z" class="poly" fill="#cb7740" data-short="21N01E13L004M" data-ma="South" data-base-year="2012" data-end-year="2025" data-span="13" data-area="2,713" data-rms-wells="21N01E13L004M" data-sy="0.1000" data-sy-source="uniform (0.10)" data-avg-dgwe="-4.00" data-cum-stor="-14,121" data-avg-rate="-1,086" data-critdry-share="97%" data-crit-share="28%" data-bucket-wet="+4,041" data-bucket-an="+3,180" data-bucket-bn="+1,539" data-bucket-dry="-16,291" data-bucket-critical="-6,590" data-hold="1,086" data-project="0" data-project-name="" data-coverage="-1,086" data-late="1"><title>Click for 21N01E13L004M detail</title></path>
<path d="M 401.5,625.6 L 380.9,680.9 L 332.6,667.6 L 342.5,627.4 L 400.1,625.2 L 401.5,625.6 Z" class="poly" fill="#f0d9a8" data-short="21N01E25K001M" data-ma="South" data-base-year="1999" data-end-year="2025" data-span="26" data-area="2,748" data-rms-wells="21N01E25K001M" data-sy="0.1000" data-sy-source="uniform (0.10)" data-avg-dgwe="-0.89" data-cum-stor="-6,375" data-avg-rate="-245" data-critdry-share="89%" data-crit-share="45%" data-bucket-wet="+6,732" data-bucket-an="+2,336" data-bucket-bn="-82" data-bucket-dry="-7,667" data-bucket-critical="-7,694" data-hold="245" data-project="0" data-project-name="" data-coverage="-245" data-late=""><title>Click for 21N01E25K001M detail</title></path>
<path d="M 326.2,601.4 L 342.5,627.4 L 332.6,667.6 L 283.1,709.5 L 283.0,709.5 L 261.0,709.6 L 261.0,709.6 L 261.0,709.7 L 261.1,719.0 L 261.1,719.0 L 261.1,721.6 L 261.1,721.6 L 261.2,721.8 L 261.4,723.0 L 261.4,723.0 L 261.5,727.7 L 252.8,735.0 L 242.1,735.2 L 241.7,698.0 L 241.7,686.3 L 241.7,685.1 L 241.7,684.8 L 241.7,677.7 L 241.7,670.2 L 241.7,662.4 L 230.7,666.1 L 230.3,666.2 L 227.7,667.0 L 227.4,667.1 L 215.2,671.5 L 214.9,671.6 L 214.1,671.9 L 213.0,666.0 L 212.9,660.4 L 221.1,659.3 L 224.0,657.0 L 224.5,656.5 L 224.5,647.6 L 224.6,641.7 L 224.7,635.4 L 231.3,635.5 L 242.9,635.7 L 243.2,635.7 L 243.3,635.7 L 243.4,627.9 L 243.5,611.5 L 243.5,610.7 L 246.0,610.7 L 246.4,599.6 L 249.0,597.6 L 252.1,595.1 L 252.9,594.3 L 254.3,593.3 L 254.8,592.7 L 256.5,591.3 L 256.9,590.8 L 260.3,589.7 L 260.3,589.7 L 260.7,590.1 L 263.8,589.2 L 264.8,589.6 L 265.5,589.7 L 265.8,589.8 L 266.0,589.8 L 266.1,589.6 L 266.4,589.6 L 266.7,589.5 L 267.0,589.1 L 326.2,601.4 Z" class="poly" fill="#cb7740" data-short="21N01E27D001M" data-ma="South" data-base-year="1999" data-end-year="2025" data-span="26" data-area="10,931" data-rms-wells="21N01E27D001M" data-sy="0.1000" data-sy-source="uniform (0.10)" data-avg-dgwe="-0.76" data-cum-stor="-21,643" data-avg-rate="-832" data-critdry-share="79%" data-crit-share="45%" data-bucket-wet="+25,523" data-bucket-an="+6,886" data-bucket-bn="-1,148" data-bucket-dry="-22,627" data-bucket-critical="-30,278" data-hold="832" data-project="0" data-project-name="" data-coverage="-832" data-late=""><title>Click for 21N01E27D001M detail</title></path>
<path d="M 476.6,554.2 L 523.8,528.2 L 526.0,531.3 L 529.2,536.7 L 531.1,539.3 L 534.2,543.5 L 540.6,553.0 L 520.8,686.5 L 447.8,663.3 L 435.0,618.9 L 476.6,554.2 Z" class="poly" fill="#e3a76f" data-short="21N02E26E006M" data-ma="South" data-base-year="2008" data-end-year="2025" data-span="17" data-area="11,064" data-rms-wells="21N02E26E006M" data-sy="0.1000" data-sy-source="uniform (0.10)" data-avg-dgwe="-0.43" data-cum-stor="-8,013" data-avg-rate="-471" data-critdry-share="81%" data-crit-share="46%" data-bucket-wet="-236" data-bucket-an="+4,925" data-bucket-bn="+3,945" data-bucket-dry="-3,661" data-bucket-critical="-12,986" data-hold="471" data-project="0" data-project-name="" data-coverage="-471" data-late="1"><title>Click for 21N02E26E006M detail</title></path>
<path d="M 380.9,680.9 L 401.5,625.6 L 435.0,618.9 L 447.8,663.3 L 412.2,731.4 L 409.7,727.5 L 407.9,721.2 L 407.4,718.8 L 407.1,717.6 L 406.3,714.5 L 406.1,714.0 L 405.9,713.4 L 405.8,713.2 L 405.8,713.2 L 405.8,713.2 L 405.7,713.2 L 405.3,713.3 L 404.8,713.6 L 404.4,713.9 L 404.1,714.3 L 403.5,715.5 L 403.2,716.1 L 402.9,716.5 L 380.9,680.9 Z" class="poly" fill="#a8c8b0" data-short="21N02E32E001M" data-ma="South" data-base-year="2009" data-end-year="2025" data-span="16" data-area="4,534" data-rms-wells="21N02E32E001M" data-sy="0.1000" data-sy-source="uniform (0.10)" data-avg-dgwe="+0.00" data-cum-stor="+0" data-avg-rate="+0" data-critdry-share="75%" data-crit-share="58%" data-bucket-wet="+7,209" data-bucket-an="+4,829" data-bucket-bn="+567" data-bucket-dry="-2,834" data-bucket-critical="-9,771" data-hold="0" data-project="0" data-project-name="" data-coverage="+0" data-late="1"><title>Click for 21N02E32E001M detail</title></path>
<path d="M 598.7,737.6 L 526.3,699.9 L 520.8,686.5 L 540.6,553.0 L 541.2,553.8 L 548.4,566.2 L 556.1,576.4 L 565.8,587.9 L 572.8,596.9 L 576.4,601.9 L 580.7,607.8 L 584.9,613.1 L 589.3,618.7 L 591.4,621.8 L 593.6,625.0 L 598.0,630.5 L 599.7,632.3 L 600.5,633.2 L 601.5,634.0 L 603.1,635.3 L 607.2,638.8 L 609.8,641.4 L 620.0,651.5 L 631.2,664.4 L 634.5,668.1 L 635.9,669.3 L 639.5,671.8 L 641.8,672.7 L 642.9,673.0 L 655.1,673.0 L 659.0,674.3 L 661.6,675.5 L 663.5,677.0 L 665.8,679.2 L 668.3,683.1 L 670.0,688.1 L 670.0,688.1 L 669.5,693.2 L 669.5,693.2 L 668.5,696.0 L 668.5,696.0 L 667.3,698.3 L 666.1,699.9 L 663.5,701.9 L 661.0,703.7 L 657.7,706.7 L 655.0,710.5 L 653.6,712.4 L 653.6,712.4 L 653.6,718.2 L 653.6,718.2 L 654.2,723.7 L 654.2,723.7 L 654.1,725.0 L 654.1,725.0 L 652.7,729.4 L 652.7,729.4 L 652.2,730.4 L 598.7,737.6 Z" class="poly" fill="#e3a76f" data-short="21N03E32B001M" data-ma="South" data-base-year="2000" data-end-year="2025" data-span="25" data-area="14,223" data-rms-wells="21N03E32B001M" data-sy="0.1000" data-sy-source="uniform (0.10)" data-avg-dgwe="-0.18" data-cum-stor="-6,542" data-avg-rate="-262" data-critdry-share="70%" data-crit-share="22%" data-bucket-wet="+260" data-bucket-an="+1,152" data-bucket-bn="-324" data-bucket-dry="-5,225" data-bucket-critical="-2,405" data-hold="262" data-project="0" data-project-name="" data-coverage="-262" data-late="1"><title>Click for 21N03E32B001M detail</title></path>
<path d="M 373.7,538.0 L 367.2,542.3 L 290.5,521.8 L 290.6,521.8 L 293.0,521.4 L 292.9,521.3 L 292.9,521.3 L 291.5,518.3 L 291.5,518.3 L 291.3,518.0 L 304.2,484.9 L 340.7,461.7 L 369.5,489.1 L 373.7,538.0 Z" class="poly" fill="#e3a76f" data-short="CWSCH01b" data-ma="Chico" data-base-year="1999" data-end-year="2025" data-span="26" data-area="4,440" data-rms-wells="CWSCH01b" data-sy="0.1000" data-sy-source="uniform (0.10)" data-avg-dgwe="-0.73" data-cum-stor="-8,436" data-avg-rate="-324" data-critdry-share="66%" data-crit-share="38%" data-bucket-wet="+9,324" data-bucket-an="-888" data-bucket-bn="-1,110" data-bucket-dry="-4,662" data-bucket-critical="-11,100" data-hold="324" data-project="0" data-project-name="" data-coverage="-324" data-late=""><title>Click for CWSCH01b detail</title></path>
<path d="M 340.7,461.7 L 304.2,484.9 L 262.7,438.5 L 345.6,416.9 L 340.7,461.7 Z" class="poly" fill="#f0d9a8" data-short="CWSCH02" data-ma="Chico" data-base-year="2000" data-end-year="2025" data-span="25" data-area="3,232" data-rms-wells="CWSCH02" data-sy="0.1000" data-sy-source="uniform (0.10)" data-avg-dgwe="-0.52" data-cum-stor="-4,201" data-avg-rate="-168" data-critdry-share="64%" data-crit-share="22%" data-bucket-wet="+970" data-bucket-an="+3,070" data-bucket-bn="+5,817" data-bucket-dry="-12,442" data-bucket-critical="-1,616" data-hold="168" data-project="0" data-project-name="" data-coverage="-168" data-late="1"><title>Click for CWSCH02 detail</title></path>
<path d="M 369.5,489.1 L 340.7,461.7 L 345.6,416.9 L 352.5,402.1 L 395.2,364.5 L 400.0,372.2 L 411.7,386.0 L 419.5,398.2 L 423.4,403.2 L 425.7,405.7 L 432.3,411.6 L 434.4,414.0 L 438.1,417.6 L 444.4,422.9 L 446.8,425.0 L 453.8,432.6 L 459.9,438.3 L 463.8,443.0 L 369.5,489.1 Z" class="poly" fill="#e3a76f" data-short="CWSCH03" data-ma="Chico" data-base-year="2000" data-end-year="2025" data-span="25" data-area="8,658" data-rms-wells="CWSCH03" data-sy="0.1000" data-sy-source="uniform (0.10)" data-avg-dgwe="-0.48" data-cum-stor="-10,390" data-avg-rate="-416" data-critdry-share="82%" data-crit-share="60%" data-bucket-wet="-3,896" data-bucket-an="+2,598" data-bucket-bn="+6,927" data-bucket-dry="+866" data-bucket-critical="-16,884" data-hold="416" data-project="0" data-project-name="" data-coverage="-416" data-late="1"><title>Click for CWSCH03 detail</title></path>
<path d="M 476.6,554.2 L 373.7,538.0 L 369.5,489.1 L 463.8,443.0 L 471.3,451.9 L 473.9,455.9 L 478.2,464.7 L 481.1,469.6 L 486.8,478.1 L 493.2,487.0 L 495.2,490.5 L 496.9,493.5 L 504.8,505.7 L 505.3,506.3 L 507.4,509.0 L 507.7,509.3 L 507.7,509.3 L 508.5,510.4 L 510.4,512.8 L 511.2,513.8 L 522.7,526.7 L 523.8,528.2 L 476.6,554.2 Z" class="poly" fill="#e3a76f" data-short="CWSCH07" data-ma="Chico" data-base-year="2000" data-end-year="2025" data-span="25" data-area="11,033" data-rms-wells="CWSCH07" data-sy="0.1000" data-sy-source="uniform (0.10)" data-avg-dgwe="-0.64" data-cum-stor="-17,652" data-avg-rate="-706" data-critdry-share="54%" data-crit-share="30%" data-bucket-wet="+9,930" data-bucket-an="-11,584" data-bucket-bn="+15,446" data-bucket-dry="-12,688" data-bucket-critical="-18,756" data-hold="706" data-project="0" data-project-name="" data-coverage="-706" data-late="1"><title>Click for CWSCH07 detail</title></path>
<circle class="well" cx="108.5" cy="403.6" r="3.0"/>
<text class="label" x="120.8" y="449.3">05M00</text>
<circle class="well" cx="247.7" cy="269.8" r="3.0"/>
<text class="label" x="281.7" y="261.4">07H00</text>
<circle class="well" cx="303.2" cy="364.7" r="3.0"/>
<text class="label" x="354.1" y="334.5">33A00</text>
<circle class="well" cx="214.9" cy="386.3" r="3.0"/>
<text class="label" x="215.1" y="404.1">36P00</text>
<circle class="well" cx="68.6" cy="343.2" r="3.0"/>
<text class="label" x="44.0" y="333.5">25C00</text>
<circle class="well" cx="265.7" cy="358.5" r="3.0"/>
<text class="label" x="254.4" y="349.3">29P00</text>
<circle class="well" cx="131.0" cy="269.4" r="3.0"/>
<text class="label" x="71.9" y="251.7">09E00</text>
<circle class="well" cx="155.5" cy="274.8" r="3.0"/>
<text class="label" x="166.4" y="273.6">10M00</text>
<circle class="well" cx="201.3" cy="310.8" r="3.0"/>
<text class="label" x="211.1" y="322.0">14R00</text>
<circle class="well" cx="165.6" cy="350.5" r="3.0"/>
<text class="label" x="162.9" y="359.7">27L00</text>
<circle class="well" cx="133.4" cy="349.1" r="3.0"/>
<text class="label" x="130.9" y="346.2">28M00</text>
<circle class="well" cx="266.8" cy="477.0" r="3.0"/>
<text class="label" x="245.8" y="515.3">20K00</text>
<circle class="well" cx="291.6" cy="412.8" r="3.0"/>
<text class="label" x="297.6" y="412.5">09B00</text>
<circle class="well" cx="515.7" cy="758.2" r="3.0"/>
<text class="label" x="501.7" y="784.9">24C00</text>
<circle class="well" cx="390.7" cy="584.6" r="3.0"/>
<text class="label" x="397.7" y="576.1">18C00</text>
<circle class="well" cx="357.3" cy="698.7" r="3.0"/>
<text class="label" x="343.1" y="729.1">02H00</text>
<circle class="well" cx="467.3" cy="699.2" r="3.0"/>
<text class="label" x="445.8" y="742.1">09G00</text>
<circle class="well" cx="589.8" cy="823.0" r="3.0"/>
<text class="label" x="581.4" y="814.2">33L00</text>
<circle class="well" cx="322.3" cy="560.0" r="3.0"/>
<text class="label" x="263.5" y="569.1">10B00</text>
<circle class="well" cx="367.6" cy="599.3" r="3.0"/>
<text class="label" x="365.8" y="608.2">13L00</text>
<circle class="well" cx="369.7" cy="653.5" r="3.0"/>
<text class="label" x="376.5" y="642.0">25K00</text>
<circle class="well" cx="306.3" cy="637.8" r="3.0"/>
<text class="label" x="252.4" y="649.2">27D00</text>
<circle class="well" cx="484.3" cy="645.2" r="3.0"/>
<text class="label" x="503.8" y="573.5">26E00</text>
<circle class="well" cx="407.3" cy="667.6" r="3.0"/>
<text class="label" x="406.7" y="703.5">32E00</text>
<circle class="well" cx="567.7" cy="657.7" r="3.0"/>
<text class="label" x="625.4" y="669.3">32B00</text>
<circle class="well" cx="337.1" cy="504.6" r="3.0"/>
<text class="label" x="318.8" y="515.4">CWSCH01b</text>
<circle class="well" cx="337.1" cy="504.6" r="3.0"/>
<text class="label" x="318.8" y="452.8">CWSCH02</text>
<circle class="well" cx="337.1" cy="504.6" r="3.0"/>
<text class="label" x="411.9" y="420.7">CWSCH03</text>
<circle class="well" cx="337.1" cy="504.6" r="3.0"/>
<text class="label" x="484.6" y="500.1">CWSCH07</text>
<g transform="translate(16,990)">
<rect class="legend-bg" x="-8" y="-22" width="675" height="86"/>
<text class="legend-title" x="0" y="-6">Polygon avg observed storage loss rate (AF/yr)</text>
<text class="legend-text" x="0" y="9" font-style="italic" font-size="9.5" fill="#5b5547">light green = gaining storage  ·  oranges → reds = loss magnitude per year</text>
<rect x="11.0" y="18" width="60" height="18" fill="#a8c8b0" stroke="#332e22" stroke-width="0.4"/>
<text class="legend-text" x="41.0" y="48" text-anchor="middle">Gaining</text>
<rect x="93.0" y="18" width="60" height="18" fill="#f0d9a8" stroke="#332e22" stroke-width="0.4"/>
<text class="legend-text" x="123.0" y="48" text-anchor="middle">Loss < 250</text>
<rect x="175.0" y="18" width="60" height="18" fill="#e3a76f" stroke="#332e22" stroke-width="0.4"/>
<text class="legend-text" x="205.0" y="48" text-anchor="middle">Loss < 750</text>
<rect x="257.0" y="18" width="60" height="18" fill="#cb7740" stroke="#332e22" stroke-width="0.4"/>
<text class="legend-text" x="287.0" y="48" text-anchor="middle">Loss < 1,500</text>
<rect x="339.0" y="18" width="60" height="18" fill="#a84a2c" stroke="#332e22" stroke-width="0.4"/>
<text class="legend-text" x="369.0" y="48" text-anchor="middle">Loss < 2,500</text>
<rect x="421.0" y="18" width="60" height="18" fill="#7c2820" stroke="#332e22" stroke-width="0.4"/>
<text class="legend-text" x="451.0" y="48" text-anchor="middle">Loss ≥ 2,500</text>
<circle cx="508" cy="22" r="3"/>
<text class="legend-text" x="518" y="26">Proposed 2027 RMS well</text>
</g>
</svg>