<svg xmlns="http://www.w3.org/2000/svg" viewBox="0 0 700 820" style="background:#fafaf7;font-family:ui-sans-serif,system-ui;width:100%;height:auto;display:block;">
<defs><style>.poly{stroke:#5b5547;stroke-width:0.7;cursor:pointer;}.poly:hover{stroke-width:2;filter:brightness(1.05);}.well{fill:#1f1f1f;pointer-events:none;}.well-project{fill:#1f3a5f;stroke:#fafaf7;stroke-width:1.2;pointer-events:none;}.label{font-size:8.5px;fill:#332e22;text-anchor:middle;font-weight:500;pointer-events:none;}.title{font-size:13px;font-weight:700;fill:#1a1612;text-anchor:middle;}.subtitle{font-size:11px;fill:#5b5547;text-anchor:middle;font-style:italic;}.legend-text{font-size:10.5px;fill:#332e22;}.legend-title{font-size:11px;font-weight:700;fill:#1a1612;}.legend-bg{fill:#fafaf7;fill-opacity:0.97;stroke:#cfc9b8;stroke-width:0.6;}</style></defs>
<text class="title" x="350.0" y="18">Vina 2027 BC RMS network (28 polygons) — Coverage status after project portfolio (target 2032)</text>
<text class="subtitle" x="350.0" y="32">Click any polygon for detail. Color = project allocation minus polygon avg loss rate (AF/yr).</text>
<path d="M 163.7,275.5 L 181.3,383.1 L 181.2,383.8 L 181.2,383.8 L 181.1,385.9 L 180.7,387.6 L 179.9,388.4 L 179.0,389.4 L 178.4,390.1 L 177.6,390.7 L 176.5,391.4 L 175.2,391.9 L 173.7,392.4 L 172.0,392.6 L 171.0,392.3 L 170.2,391.7 L 169.4,391.1 L 168.5,390.3 L 167.6,389.7 L 166.6,388.9 L 166.1,388.0 L 165.4,387.1 L 164.9,386.2 L 164.5,384.8 L 164.4,383.8 L 164.5,382.5 L 164.6,381.3 L 164.9,380.3 L 164.9,380.1 L 165.5,378.8 L 166.0,377.9 L 166.7,376.6 L 167.2,375.5 L 167.5,374.7 L 168.2,374.0 L 168.9,373.6 L 169.8,373.1 L 170.9,372.8 L 172.3,372.4 L 172.8,371.9 L 173.3,371.0 L 173.6,370.0 L 173.6,369.2 L 173.7,368.9 L 173.7,367.6 L 173.9,366.0 L 174.3,364.4 L 174.5,363.4 L 174.7,362.2 L 174.7,361.9 L 174.4,360.6 L 174.2,359.9 L 173.6,358.9 L 173.3,358.1 L 172.9,357.1 L 172.3,356.2 L 171.6,355.0 L 170.9,353.6 L 170.0,352.3 L 169.2,351.5 L 168.5,351.4 L 167.9,351.5 L 167.0,351.8 L 165.8,352.5 L 165.7,352.6 L 164.0,353.6 L 163.8,353.7 L 162.8,354.5 L 162.1,355.3 L 161.5,356.4 L 161.2,357.6 L 161.2,359.1 L 161.5,360.5 L 161.8,362.2 L 162.0,364.0 L 161.8,365.2 L 161.4,366.3 L 160.8,367.2 L 159.8,367.8 L 158.7,368.3 L 157.8,368.1 L 156.8,367.8 L 155.5,367.6 L 154.0,367.4 L 153.0,367.0 L 151.8,366.6 L 150.6,366.3 L 148.2,365.5 L 147.0,365.2 L 145.8,364.6 L 145.4,364.3 L 144.3,363.3 L 143.7,362.1 L 143.1,360.8 L 142.5,359.9 L 141.9,358.8 L 141.1,357.3 L 141.0,357.2 L 140.3,355.8 L 139.4,354.1 L 138.5,352.2 L 137.2,349.8 L 136.0,347.8 L 135.1,346.2 L 133.9,344.6 L 132.7,342.9 L 131.1,341.1 L 128.5,337.9 L 128.5,337.8 L 127.0,336.0 L 126.6,335.5 L 124.0,332.8 L 122.4,331.2 L 122.0,330.8 L 120.7,329.4 L 118.5,327.4 L 116.4,325.8 L 113.6,324.1 L 110.4,321.8 L 104.5,319.6 L 102.1,318.8 L 100.4,318.3 L 100.1,318.0 L 99.5,317.4 L 97.5,315.5 L 97.2,315.1 L 95.4,312.9 L 92.6,309.9 L 88.8,304.6 L 86.8,301.5 L 84.9,297.7 L 84.7,297.3 L 82.7,294.1 L 82.0,292.8 L 79.8,289.1 L 79.1,286.7 L 79.1,286.7 L 80.0,285.0 L 80.3,284.6 L 81.6,282.5 L 83.2,279.8 L 83.9,278.9 L 84.2,278.7 L 85.1,277.5 L 87.2,274.9 L 88.0,272.8 L 88.3,271.9 L 89.0,267.0 L 114.0,243.1 L 148.3,258.8 L 163.7,275.5 Z" class="poly" fill="#a8c8b0" data-short="22N01W05M001M" data-ma="North" data-base-year="1999" data-end-year="2025" data-span="26" data-area="7,468" data-rms-wells="22N01W05M001M" data-sy="0.0825" data-sy-source="SVSim" data-avg-dgwe="+0.00" data-cum-stor="+0" data-avg-rate="+0" data-critdry-share="82%" data-crit-share="39%" data-bucket-wet="+3,152" data-bucket-an="+4,518" data-bucket-bn="-821" data-bucket-dry="-3,563" data-bucket-critical="-3,286" data-hold="0" data-project="0" data-project-name="" data-coverage="+0" data-late=""><title>Click for 22N01W05M001M detail</title></path>
<path d="M 247.5,186.3 L 208.8,142.3 L 220.3,108.1 L 229.1,108.1 L 254.9,108.0 L 280.0,107.6 L 288.6,107.5 L 316.9,106.9 L 325.2,118.4 L 332.5,130.4 L 336.4,138.0 L 338.0,142.1 L 345.8,158.4 L 349.6,165.5 L 247.5,186.3 Z" class="poly" fill="#e3a76f" data-short="23N01E07H001M" data-ma="North" data-base-year="2019" data-end-year="2025" data-span="6" data-area="8,342" data-rms-wells="23N01E07H001M" data-sy="0.0935" data-sy-source="SVSim" data-avg-dgwe="-0.57" data-cum-stor="-2,652" data-avg-rate="-442" data-critdry-share="86%" data-crit-share="70%" data-bucket-wet="+78" data-bucket-an="+936" data-bucket-bn="+0" data-bucket-dry="-663" data-bucket-critical="-3,003" data-hold="442" data-project="0" data-project-name="" data-coverage="-442" data-late="1"><title>Click for 23N01E07H001M detail</title></path>
<path d="M 225.9,215.5 L 265.0,287.4 L 264.9,287.8 L 264.7,288.2 L 264.4,288.4 L 263.8,288.6 L 263.6,288.8 L 263.3,290.2 L 263.3,290.5 L 263.0,290.9 L 263.0,291.0 L 262.9,291.5 L 263.0,291.8 L 263.0,292.5 L 263.1,293.0 L 263.1,293.2 L 263.1,293.3 L 262.8,294.0 L 261.1,296.4 L 260.8,296.9 L 260.1,298.5 L 258.9,299.7 L 258.7,299.7 L 258.5,299.8 L 257.9,300.1 L 256.9,300.0 L 256.8,300.0 L 256.9,303.7 L 256.9,306.4 L 256.9,306.4 L 256.9,306.4 L 257.6,306.4 L 259.3,306.4 L 260.1,306.4 L 260.5,306.4 L 261.0,306.4 L 261.8,306.4 L 262.8,306.4 L 263.1,306.4 L 263.2,306.4 L 264.0,306.4 L 264.1,306.4 L 264.8,306.3 L 265.0,306.3 L 265.2,306.3 L 265.4,306.3 L 265.6,306.3 L 265.8,306.3 L 266.1,306.3 L 266.3,306.3 L 266.5,306.3 L 266.8,306.3 L 267.0,306.3 L 267.3,306.3 L 267.5,306.3 L 267.7,306.3 L 267.9,306.3 L 268.2,306.3 L 268.4,306.3 L 268.6,306.3 L 268.9,306.3 L 270.4,306.3 L 270.5,306.3 L 270.6,306.2 L 270.8,306.4 L 270.6,306.6 L 271.2,307.4 L 271.7,308.0 L 272.0,308.3 L 273.1,309.8 L 275.0,312.3 L 276.0,313.5 L 275.3,314.0 L 274.9,314.4 L 274.2,314.9 L 273.6,315.3 L 273.0,315.8 L 272.4,316.3 L 271.8,316.7 L 271.1,317.2 L 271.0,317.3 L 272.3,319.0 L 273.6,320.6 L 276.9,325.0 L 275.4,325.0 L 275.4,324.9 L 274.3,325.0 L 271.7,325.0 L 271.2,325.0 L 270.4,325.0 L 270.5,325.2 L 271.1,325.9 L 271.2,326.0 L 271.2,326.1 L 271.4,326.3 L 271.6,326.6 L 271.9,326.9 L 272.3,327.4 L 272.6,327.9 L 273.2,327.5 L 274.0,326.9 L 274.5,326.5 L 275.1,326.0 L 276.3,325.1 L 277.4,326.5 L 278.2,327.6 L 278.6,328.1 L 280.1,330.0 L 280.4,330.4 L 280.8,331.0 L 281.1,331.4 L 281.5,331.9 L 282.0,332.5 L 282.0,332.5 L 280.4,333.7 L 279.6,334.3 L 277.2,336.2 L 277.1,336.3 L 279.0,338.7 L 277.8,339.7 L 276.5,340.7 L 276.6,340.8 L 277.0,341.2 L 277.4,341.8 L 277.5,341.9 L 278.0,342.6 L 278.4,343.1 L 278.4,343.1 L 278.4,343.1 L 277.2,344.1 L 276.1,345.0 L 276.0,345.0 L 275.8,345.1 L 274.7,346.0 L 274.2,345.8 L 273.7,345.5 L 272.0,344.6 L 270.0,343.5 L 269.3,343.0 L 268.4,342.6 L 267.7,342.1 L 267.1,341.8 L 266.6,341.5 L 263.8,340.0 L 263.2,339.7 L 262.5,339.3 L 261.8,338.9 L 261.1,338.5 L 261.1,338.6 L 259.7,337.9 L 258.3,337.1 L 257.1,336.5 L 256.8,336.3 L 256.5,336.1 L 256.1,335.9 L 255.6,335.6 L 254.2,334.8 L 253.0,334.1 L 250.4,332.7 L 250.4,332.7 L 249.7,332.3 L 242.2,328.1 L 242.1,328.5 L 242.0,328.7 L 241.3,332.1 L 240.9,334.1 L 240.8,334.5 L 240.9,334.5 L 241.4,334.5 L 247.9,336.1 L 248.4,336.3 L 248.8,336.4 L 249.3,336.6 L 249.9,337.0 L 250.0,337.1 L 250.1,337.3 L 250.1,338.2 L 250.1,339.2 L 251.2,339.2 L 251.2,338.2 L 251.2,337.4 L 254.2,339.0 L 254.3,340.3 L 254.3,341.5 L 255.1,341.5 L 255.1,340.3 L 255.1,339.5 L 256.3,340.1 L 259.4,341.9 L 259.4,345.5 L 259.4,346.2 L 259.5,347.6 L 259.5,348.5 L 259.5,348.7 L 260.5,348.7 L 261.8,348.6 L 262.9,348.6 L 263.9,348.6 L 266.8,348.6 L 267.0,348.6 L 267.0,348.7 L 269.8,348.7 L 269.7,349.6 L 270.1,349.6 L 270.1,349.8 L 270.1,351.6 L 270.1,352.2 L 271.9,352.2 L 271.9,351.6 L 273.2,351.6 L 275.7,351.6 L 276.3,351.6 L 276.3,351.6 L 276.3,351.7 L 276.3,351.7 L 276.3,351.7 L 276.2,351.9 L 276.2,351.9 L 276.2,351.9 L 276.2,351.9 L 276.2,352.0 L 276.2,352.0 L 276.2,352.0 L 276.2,352.1 L 276.2,352.1 L 276.2,352.1 L 276.2,352.1 L 276.1,352.2 L 276.1,352.2 L 276.1,352.2 L 276.1,352.3 L 276.1,352.3 L 276.1,352.4 L 276.1,354.1 L 276.1,354.2 L 276.0,354.3 L 275.9,354.3 L 275.9,354.3 L 275.9,354.4 L 275.9,354.4 L 276.6,355.0 L 278.5,356.1 L 278.5,356.9 L 278.5,356.9 L 278.5,356.9 L 278.5,358.8 L 278.5,360.0 L 278.5,360.9 L 278.5,361.3 L 278.5,361.7 L 278.5,362.2 L 278.4,362.2 L 278.4,362.2 L 278.4,362.3 L 278.4,362.3 L 278.4,362.5 L 278.4,364.0 L 278.4,365.6 L 278.4,367.0 L 278.3,368.0 L 278.3,368.4 L 278.3,368.8 L 278.4,369.2 L 278.4,369.5 L 278.4,370.1 L 278.4,370.1 L 278.6,374.6 L 278.5,374.7 L 278.4,374.7 L 278.2,374.8 L 278.1,374.9 L 277.9,375.0 L 277.7,375.2 L 277.5,375.3 L 277.3,375.5 L 277.2,375.7 L 277.0,375.9 L 276.9,376.2 L 276.8,376.3 L 276.6,376.5 L 276.3,376.9 L 276.1,377.1 L 275.9,377.3 L 275.5,377.5 L 275.2,377.7 L 274.9,377.7 L 274.6,377.8 L 274.3,377.8 L 274.0,377.7 L 273.7,377.6 L 273.5,377.6 L 273.3,377.5 L 273.1,377.5 L 272.8,377.5 L 272.6,377.5 L 272.5,377.6 L 272.3,377.8 L 272.0,377.8 L 271.8,377.9 L 271.6,377.9 L 271.5,377.9 L 271.3,377.9 L 271.0,377.9 L 270.8,378.0 L 270.6,378.1 L 270.3,378.3 L 270.1,378.4 L 269.8,378.7 L 269.6,378.8 L 269.4,378.9 L 269.1,379.2 L 269.0,379.3 L 268.8,379.5 L 268.6,379.8 L 268.5,379.9 L 268.4,380.0 L 268.3,380.1 L 268.1,380.2 L 267.9,380.2 L 267.8,380.3 L 267.6,380.4 L 267.4,380.5 L 267.2,380.6 L 267.0,380.7 L 266.8,380.7 L 266.6,380.7 L 266.3,380.7 L 266.1,380.6 L 265.9,380.5 L 265.8,380.4 L 265.6,380.3 L 265.4,380.3 L 265.1,380.3 L 264.9,380.3 L 264.7,380.4 L 264.5,380.4 L 264.3,380.6 L 264.1,380.7 L 263.9,381.0 L 263.7,381.1 L 263.5,381.3 L 263.2,381.5 L 263.0,381.6 L 262.8,381.8 L 262.7,381.9 L 262.5,382.0 L 262.3,382.1 L 262.0,382.2 L 261.7,382.3 L 261.4,382.4 L 261.1,382.4 L 260.9,382.4 L 260.7,382.4 L 260.5,382.5 L 260.3,382.4 L 260.1,382.4 L 260.0,382.4 L 259.8,382.3 L 259.6,382.3 L 259.6,382.3 L 259.5,382.3 L 259.3,382.2 L 259.3,382.2 L 259.1,382.2 L 259.1,382.1 L 258.9,382.1 L 258.8,382.1 L 258.7,382.1 L 258.7,382.1 L 258.6,382.1 L 258.6,382.1 L 258.4,382.1 L 258.4,382.1 L 258.1,382.1 L 258.0,382.1 L 257.7,382.1 L 257.6,382.1 L 257.4,382.2 L 257.3,382.2 L 257.1,382.4 L 257.0,382.5 L 256.8,382.6 L 256.6,382.9 L 256.4,383.2 L 256.4,383.3 L 256.3,383.4 L 256.1,383.5 L 256.0,383.7 L 255.9,383.8 L 255.8,384.0 L 255.7,384.2 L 255.6,384.4 L 255.5,384.5 L 255.3,384.7 L 255.1,384.8 L 255.0,384.9 L 254.6,385.0 L 254.5,385.0 L 254.3,385.0 L 254.1,385.0 L 253.9,385.0 L 253.7,385.0 L 253.4,385.2 L 253.2,385.4 L 253.1,385.5 L 252.9,385.7 L 252.8,385.9 L 252.7,386.1 L 252.7,386.2 L 252.5,386.4 L 252.4,386.6 L 252.3,386.7 L 252.2,386.7 L 252.0,386.8 L 251.9,386.9 L 251.7,387.0 L 251.6,387.0 L 251.5,387.0 L 251.2,387.1 L 251.1,387.1 L 251.0,387.1 L 250.9,386.9 L 250.8,386.8 L 250.6,386.7 L 250.4,386.7 L 250.3,386.8 L 250.1,387.0 L 249.9,387.1 L 249.7,387.3 L 249.5,387.3 L 249.4,387.4 L 249.2,387.6 L 249.0,387.7 L 248.9,387.7 L 248.7,387.9 L 248.5,388.0 L 248.4,388.1 L 248.3,388.2 L 248.0,388.3 L 247.8,388.4 L 247.6,388.5 L 247.5,388.6 L 247.3,388.8 L 247.2,389.0 L 247.1,389.1 L 247.0,389.2 L 247.0,389.3 L 246.9,389.5 L 246.8,389.6 L 246.6,389.7 L 246.5,389.7 L 246.4,389.7 L 246.2,389.6 L 245.9,389.6 L 245.5,389.9 L 245.3,390.0 L 245.1,390.1 L 244.9,390.2 L 244.6,390.4 L 244.5,390.4 L 244.5,390.5 L 244.3,390.6 L 244.0,390.6 L 244.0,390.6 L 243.7,390.6 L 243.4,390.6 L 243.2,390.6 L 242.9,390.5 L 242.6,390.4 L 242.4,390.3 L 242.2,390.2 L 241.9,390.1 L 241.6,390.1 L 241.3,390.1 L 241.1,390.1 L 240.5,390.3 L 240.0,390.7 L 239.7,391.1 L 239.2,391.3 L 238.9,391.7 L 238.4,392.0 L 238.0,392.2 L 237.6,392.3 L 237.1,392.5 L 236.9,392.7 L 236.7,393.0 L 236.4,393.1 L 236.3,393.3 L 235.9,393.4 L 235.6,393.5 L 235.3,393.6 L 235.0,393.6 L 234.6,393.7 L 233.8,393.6 L 233.2,393.5 L 233.0,393.4 L 232.6,393.3 L 232.1,393.3 L 231.7,393.3 L 231.1,393.2 L 230.3,393.2 L 229.7,393.6 L 229.3,394.0 L 228.9,394.2 L 228.6,394.4 L 228.3,394.4 L 227.9,394.5 L 227.5,394.4 L 227.2,394.3 L 227.0,394.1 L 226.6,394.2 L 226.2,394.4 L 225.9,394.4 L 225.7,394.5 L 225.2,394.5 L 224.6,394.0 L 224.1,393.6 L 223.5,393.5 L 221.6,393.7 L 221.1,393.5 L 220.9,393.3 L 220.7,393.0 L 220.5,393.0 L 220.3,393.2 L 220.0,393.4 L 219.7,393.6 L 219.2,393.9 L 218.9,394.1 L 218.6,394.3 L 218.4,394.4 L 218.1,394.5 L 217.8,394.5 L 217.5,394.6 L 217.3,394.7 L 216.9,394.7 L 216.4,394.7 L 216.1,394.9 L 215.8,395.1 L 215.6,395.1 L 215.3,395.2 L 215.1,395.2 L 214.8,395.1 L 214.7,395.1 L 214.4,395.1 L 214.2,395.2 L 214.0,395.3 L 213.8,395.4 L 213.5,395.5 L 212.8,395.7 L 212.5,396.0 L 212.3,396.3 L 212.2,396.5 L 212.1,396.9 L 212.3,397.1 L 212.5,397.6 L 212.9,398.2 L 213.2,399.0 L 213.2,399.3 L 213.2,400.6 L 213.2,401.6 L 212.9,402.0 L 212.7,402.6 L 212.3,403.3 L 212.2,403.5 L 211.7,403.8 L 211.4,404.2 L 211.2,404.5 L 211.2,405.3 L 211.4,405.9 L 211.3,406.5 L 211.0,407.0 L 210.9,407.5 L 210.8,407.8 L 210.7,408.3 L 210.3,408.9 L 210.1,409.2 L 210.0,409.3 L 209.9,410.1 L 209.7,410.3 L 209.4,410.3 L 209.1,410.4 L 208.9,410.5 L 208.5,410.7 L 208.4,410.9 L 208.3,411.1 L 208.0,411.3 L 207.7,411.4 L 207.3,411.3 L 207.0,411.5 L 206.7,411.8 L 206.6,412.1 L 206.6,412.3 L 206.5,412.7 L 206.2,413.0 L 205.6,413.4 L 205.1,413.7 L 204.5,414.2 L 204.0,414.4 L 203.5,414.7 L 203.2,415.3 L 203.1,416.2 L 203.1,416.8 L 202.5,420.8 L 199.8,425.6 L 199.7,425.2 L 199.3,424.1 L 199.3,424.0 L 199.3,423.8 L 199.0,422.9 L 198.6,421.7 L 198.1,420.7 L 197.5,419.0 L 196.8,416.9 L 196.1,415.6 L 196.0,415.6 L 194.8,413.3 L 194.1,411.8 L 193.6,410.5 L 193.5,409.4 L 193.5,408.0 L 193.6,407.1 L 194.0,405.8 L 194.1,404.8 L 194.1,404.5 L 194.1,404.4 L 194.2,403.5 L 194.2,402.6 L 193.9,401.2 L 193.6,400.3 L 193.6,400.2 L 193.2,399.0 L 192.7,397.9 L 191.8,396.6 L 190.9,395.4 L 190.1,394.5 L 189.1,393.6 L 188.7,392.7 L 188.3,391.8 L 188.1,390.5 L 188.0,389.6 L 188.1,388.9 L 188.3,387.9 L 188.5,386.7 L 189.0,385.7 L 189.6,384.5 L 190.2,383.5 L 190.9,382.5 L 191.7,381.3 L 192.3,380.3 L 192.7,379.4 L 192.8,378.0 L 192.8,376.5 L 192.7,375.0 L 192.7,373.3 L 192.6,371.5 L 192.1,370.3 L 191.7,369.4 L 191.2,368.4 L 190.4,367.5 L 190.3,367.4 L 190.0,367.1 L 189.7,366.9 L 189.6,366.8 L 188.8,366.5 L 187.8,366.3 L 187.2,366.3 L 186.4,366.5 L 185.8,366.8 L 185.4,367.1 L 185.0,367.8 L 184.8,368.7 L 184.4,370.0 L 183.8,371.6 L 183.1,373.3 L 182.6,374.7 L 182.3,376.2 L 181.9,377.4 L 181.9,377.4 L 181.7,378.9 L 181.5,380.6 L 181.4,382.1 L 181.3,383.1 L 181.3,383.1 L 163.7,275.5 L 204.4,219.4 L 225.9,215.5 Z" class="poly" fill="#6b9479" data-short="23N01W36P001M" data-ma="North" data-base-year="1999" data-end-year="2025" data-span="26" data-area="15,173" data-rms-wells="23N01W36P001M" data-sy="0.0648" data-sy-source="SVSim" data-avg-dgwe="-0.45" data-cum-stor="-11,405" data-avg-rate="-439" data-critdry-share="80%" data-crit-share="29%" data-bucket-wet="+38,788" data-bucket-an="+3,048" data-bucket-bn="-4,670" data-bucket-dry="-33,233" data-bucket-critical="-15,338" data-hold="439" data-project="2,000" data-project-name="Rock Creek recharge" data-coverage="+1,561" data-late=""><title>Click for 23N01W36P001M detail</title></path>
<path d="M 104.7,180.2 L 101.1,219.4 L 47.4,242.3 L 47.1,242.1 L 45.8,241.0 L 45.2,240.5 L 44.8,240.3 L 43.3,238.9 L 42.9,238.6 L 42.5,238.1 L 42.2,237.5 L 41.8,237.1 L 41.5,236.7 L 41.0,236.2 L 40.2,235.4 L 39.9,235.1 L 39.5,234.9 L 39.2,234.7 L 38.9,234.4 L 38.2,233.8 L 37.8,233.5 L 37.3,233.2 L 36.8,232.9 L 36.5,232.6 L 35.8,231.0 L 35.7,230.6 L 35.6,230.1 L 35.5,229.5 L 35.5,229.4 L 35.5,229.0 L 35.6,228.5 L 35.7,228.0 L 36.0,227.5 L 36.4,227.0 L 36.7,226.6 L 37.0,226.3 L 37.3,226.0 L 37.7,225.7 L 38.0,225.4 L 38.4,225.3 L 39.5,224.6 L 39.8,224.3 L 40.1,224.1 L 40.4,223.7 L 40.7,223.4 L 41.4,222.8 L 42.1,222.0 L 42.8,221.2 L 43.1,220.6 L 43.2,220.4 L 43.6,219.6 L 43.8,218.9 L 44.1,217.5 L 44.3,216.3 L 44.7,214.4 L 44.8,213.8 L 45.0,213.3 L 45.3,212.8 L 46.3,210.8 L 46.6,210.1 L 46.9,209.3 L 47.1,208.8 L 47.2,208.2 L 47.4,207.3 L 47.4,206.3 L 47.4,205.3 L 47.3,204.7 L 47.2,204.3 L 47.2,203.9 L 47.0,203.4 L 46.8,203.1 L 46.8,203.0 L 46.7,202.9 L 46.7,202.9 L 46.5,202.5 L 46.2,202.0 L 45.8,201.5 L 44.7,200.5 L 44.3,200.2 L 43.8,199.7 L 42.9,199.2 L 42.3,198.9 L 41.8,198.5 L 41.1,198.2 L 40.8,198.0 L 40.7,197.9 L 40.3,197.7 L 38.9,196.8 L 38.7,196.5 L 38.6,196.4 L 37.8,195.5 L 37.2,194.6 L 36.7,193.8 L 35.8,192.8 L 35.4,192.3 L 34.8,191.7 L 34.5,191.3 L 34.2,190.9 L 33.8,190.3 L 33.1,189.3 L 32.7,188.6 L 32.2,187.7 L 31.8,186.8 L 31.6,186.4 L 31.5,186.1 L 31.2,185.2 L 31.0,184.8 L 30.7,183.9 L 30.6,183.2 L 30.0,183.0 L 30.5,182.4 L 30.5,181.5 L 30.6,181.1 L 30.7,180.6 L 30.8,180.2 L 31.7,178.4 L 32.4,177.3 L 32.8,176.8 L 33.4,176.0 L 33.8,175.5 L 34.2,174.9 L 34.7,174.4 L 35.1,173.8 L 35.9,172.8 L 36.3,172.4 L 37.0,171.8 L 37.4,171.6 L 37.7,171.3 L 38.3,171.0 L 38.9,170.7 L 39.5,170.3 L 39.7,170.1 L 39.9,170.0 L 40.1,169.9 L 40.4,169.8 L 41.3,169.0 L 41.8,168.6 L 42.7,167.6 L 42.8,167.4 L 43.4,166.6 L 43.8,166.1 L 44.5,165.0 L 45.1,164.1 L 45.4,163.5 L 45.7,163.0 L 46.0,162.5 L 46.5,161.2 L 46.6,160.9 L 47.3,159.0 L 47.4,158.6 L 48.0,157.0 L 48.2,156.4 L 48.2,156.4 L 48.5,155.2 L 48.6,154.8 L 48.7,152.5 L 48.7,152.0 L 48.6,151.5 L 48.4,149.7 L 48.4,149.3 L 48.1,148.5 L 47.9,147.5 L 47.7,146.1 L 47.6,144.9 L 47.6,144.5 L 47.7,143.8 L 47.9,143.0 L 48.1,142.2 L 48.8,141.0 L 50.1,139.4 L 50.4,139.0 L 51.7,137.7 L 52.8,136.5 L 52.9,136.4 L 104.7,180.2 Z" class="poly" fill="#a8c8b0" data-short="23N02W25C001M" data-ma="North" data-base-year="1999" data-end-year="2025" data-span="26" data-area="4,900" data-rms-wells="23N02W25C001M" data-sy="0.0845" data-sy-source="basin-mean fallback" data-avg-dgwe="+0.18" data-cum-stor="+1,904" data-avg-rate="+73" data-critdry-share="52%" data-crit-share="25%" data-bucket-wet="+9,790" data-bucket-an="+3,726" data-bucket-bn="-5,423" data-bucket-dry="-3,436" data-bucket-critical="-2,753" data-hold="0" data-project="0" data-project-name="" data-coverage="+0" data-late=""><title>Click for 23N02W25C001M detail</title></path>
<path d="M 349.6,165.5 L 350.0,166.3 L 353.7,173.1 L 354.4,174.5 L 360.3,187.1 L 362.2,190.8 L 368.1,200.3 L 378.3,211.5 L 386.6,221.9 L 387.2,222.6 L 392.3,229.7 L 400.2,242.3 L 411.9,256.1 L 419.7,268.3 L 423.5,273.3 L 425.8,275.8 L 432.5,281.7 L 436.3,285.8 L 436.3,285.8 L 433.2,287.5 L 430.4,289.0 L 428.9,289.8 L 427.6,290.0 L 417.5,291.2 L 410.0,292.8 L 402.9,298.5 L 396.7,303.3 L 396.7,303.4 L 396.4,303.4 L 395.3,303.4 L 396.3,302.5 L 396.1,302.0 L 392.0,290.5 L 392.0,290.5 L 392.0,290.5 L 382.3,278.3 L 377.6,278.5 L 377.6,279.3 L 363.7,279.8 L 353.7,280.1 L 349.3,280.2 L 348.3,280.2 L 344.6,280.3 L 341.3,280.3 L 339.9,280.3 L 339.7,280.3 L 338.2,280.4 L 337.3,280.4 L 336.6,280.4 L 335.0,280.4 L 331.3,280.4 L 331.1,280.5 L 331.0,280.3 L 328.9,277.0 L 328.9,276.8 L 328.9,275.6 L 328.9,274.3 L 329.0,274.3 L 328.9,268.1 L 330.1,268.1 L 331.9,268.0 L 331.8,267.9 L 331.9,267.9 L 331.8,262.0 L 331.8,261.9 L 330.0,261.9 L 328.7,262.0 L 328.7,260.4 L 328.6,259.6 L 328.5,259.1 L 328.4,257.5 L 328.4,255.9 L 328.4,255.7 L 328.4,255.6 L 328.5,253.0 L 328.5,253.0 L 328.5,253.0 L 323.3,253.1 L 323.3,253.0 L 323.2,252.9 L 323.2,252.8 L 323.1,252.8 L 323.1,252.7 L 323.0,252.6 L 323.0,252.6 L 322.9,252.5 L 322.9,252.4 L 322.9,252.3 L 322.8,252.3 L 322.8,252.2 L 322.8,252.1 L 322.7,252.0 L 322.7,251.9 L 322.6,251.8 L 322.6,251.8 L 322.6,251.7 L 322.5,251.6 L 322.5,251.5 L 322.5,251.5 L 322.5,251.4 L 322.5,251.3 L 322.4,251.2 L 322.4,251.1 L 322.4,251.1 L 322.4,251.0 L 322.4,250.9 L 322.4,250.8 L 322.3,250.7 L 322.3,250.7 L 322.3,250.6 L 322.3,250.5 L 322.3,250.4 L 322.3,250.3 L 322.3,250.3 L 322.3,250.2 L 322.4,244.4 L 322.2,237.0 L 322.2,235.5 L 322.2,235.1 L 322.1,232.8 L 322.3,231.0 L 322.3,231.0 L 322.3,231.0 L 321.8,231.0 L 320.5,231.0 L 319.0,231.0 L 317.1,231.0 L 316.2,231.0 L 315.9,231.0 L 315.9,232.1 L 315.9,232.2 L 314.6,232.4 L 314.6,232.4 L 314.6,232.3 L 314.6,232.3 L 314.6,232.3 L 314.2,232.3 L 314.2,232.5 L 313.5,232.6 L 313.1,232.7 L 313.1,232.7 L 313.7,233.6 L 311.7,234.0 L 311.5,234.0 L 311.5,234.2 L 311.5,234.4 L 311.5,236.5 L 311.5,238.3 L 311.4,238.3 L 311.1,238.9 L 310.3,239.2 L 309.5,239.2 L 309.4,239.2 L 309.4,239.1 L 307.8,238.5 L 307.4,238.5 L 307.4,238.6 L 307.4,239.0 L 307.4,239.6 L 307.4,239.7 L 307.4,241.0 L 305.6,241.0 L 305.5,241.0 L 305.3,241.0 L 305.3,240.0 L 303.5,237.2 L 303.5,231.4 L 303.5,231.4 L 303.5,231.4 L 303.4,231.4 L 301.4,231.4 L 300.0,231.5 L 298.8,229.7 L 297.5,227.6 L 296.1,225.4 L 296.0,225.3 L 296.0,225.3 L 296.0,225.3 L 296.0,225.2 L 295.9,225.2 L 295.6,224.7 L 295.5,224.6 L 295.5,224.5 L 295.5,224.5 L 295.5,224.5 L 295.5,224.5 L 295.5,224.4 L 295.4,224.4 L 295.4,224.4 L 295.4,224.4 L 293.4,221.4 L 293.4,221.4 L 293.4,221.4 L 289.4,222.7 L 288.7,223.9 L 287.8,225.7 L 287.6,225.5 L 287.6,225.5 L 287.6,225.5 L 287.1,226.5 L 286.0,226.1 L 286.0,226.4 L 286.0,227.0 L 285.7,227.0 L 285.7,227.1 L 285.2,227.4 L 283.9,228.3 L 284.2,228.8 L 285.1,230.1 L 285.6,230.8 L 285.6,231.6 L 285.6,231.6 L 285.6,231.6 L 285.9,231.6 L 286.0,231.7 L 286.0,231.7 L 286.0,231.8 L 286.4,232.3 L 291.0,239.5 L 291.0,241.0 L 290.9,241.7 L 290.9,242.1 L 291.0,243.3 L 291.0,244.3 L 291.0,244.3 L 291.0,244.3 L 291.2,244.3 L 291.3,244.3 L 293.9,244.2 L 297.4,249.7 L 297.4,252.3 L 297.3,256.5 L 297.3,268.4 L 297.4,270.4 L 292.2,270.4 L 292.3,270.5 L 292.4,270.9 L 292.5,270.9 L 292.5,270.9 L 297.4,271.0 L 297.4,273.3 L 297.4,274.7 L 297.3,281.0 L 297.3,281.0 L 297.3,281.0 L 297.6,281.0 L 297.7,283.4 L 297.7,283.4 L 296.7,282.8 L 296.3,282.4 L 295.7,281.9 L 295.3,281.6 L 294.7,280.9 L 294.1,280.9 L 293.1,280.1 L 292.8,279.9 L 292.5,279.7 L 291.9,279.5 L 291.5,279.4 L 291.4,279.4 L 291.3,279.3 L 291.3,279.3 L 291.2,279.3 L 289.3,279.4 L 288.9,279.3 L 288.5,279.1 L 287.3,278.4 L 286.2,277.7 L 285.7,277.3 L 285.5,277.0 L 285.3,276.8 L 285.3,276.6 L 285.2,276.3 L 285.0,276.2 L 284.9,276.0 L 284.4,275.4 L 283.3,274.8 L 282.4,274.6 L 281.4,274.6 L 280.7,274.7 L 280.1,274.9 L 278.7,275.4 L 278.1,275.6 L 277.9,275.6 L 277.5,275.6 L 277.1,275.4 L 276.7,275.1 L 276.5,274.9 L 274.5,275.0 L 274.6,275.3 L 274.8,275.7 L 275.2,276.2 L 275.2,276.2 L 275.2,276.3 L 275.2,276.3 L 275.2,276.3 L 275.2,276.3 L 275.2,276.3 L 275.2,276.3 L 275.2,276.4 L 275.2,276.4 L 275.2,276.4 L 275.3,276.4 L 275.3,276.4 L 275.3,276.4 L 275.3,276.5 L 275.3,276.5 L 275.3,276.5 L 275.3,276.5 L 275.3,276.5 L 275.3,276.5 L 275.3,276.6 L 275.3,276.6 L 275.3,276.6 L 275.3,276.6 L 275.3,276.6 L 275.3,276.7 L 275.3,276.7 L 275.3,276.7 L 275.3,276.7 L 275.3,276.7 L 275.3,276.7 L 275.3,276.8 L 275.3,276.8 L 275.3,276.8 L 275.3,276.8 L 275.3,276.8 L 275.3,276.9 L 275.3,276.9 L 275.3,276.9 L 275.3,276.9 L 275.0,277.0 L 274.5,277.6 L 273.9,277.4 L 273.7,277.4 L 273.6,277.4 L 273.1,277.4 L 272.6,276.8 L 272.4,276.7 L 272.0,276.1 L 271.9,276.1 L 271.4,275.5 L 271.0,275.0 L 271.0,275.0 L 270.6,274.5 L 270.3,274.0 L 269.9,273.5 L 269.6,273.0 L 269.2,272.5 L 268.9,272.0 L 268.6,271.5 L 268.3,271.0 L 268.0,270.5 L 267.7,270.0 L 267.3,269.5 L 267.0,269.0 L 266.7,268.5 L 266.4,268.0 L 266.5,266.7 L 266.5,266.3 L 266.5,265.3 L 266.5,264.0 L 266.5,263.5 L 266.4,262.1 L 266.4,261.4 L 266.4,260.7 L 266.4,259.9 L 266.2,259.9 L 266.2,259.9 L 266.2,260.0 L 266.2,260.0 L 266.1,260.1 L 266.1,260.2 L 266.1,260.3 L 266.1,260.4 L 266.1,260.5 L 265.1,260.5 L 264.1,260.5 L 263.1,260.5 L 261.8,260.5 L 261.5,260.1 L 260.8,259.1 L 260.4,259.1 L 259.9,259.1 L 259.7,259.1 L 259.4,259.1 L 258.9,259.1 L 258.5,259.1 L 258.0,259.1 L 257.5,259.1 L 257.5,258.1 L 257.5,258.0 L 257.5,257.7 L 257.5,256.8 L 256.9,256.8 L 256.3,256.8 L 256.2,256.8 L 255.5,256.8 L 255.2,256.8 L 254.8,256.8 L 254.1,256.8 L 254.1,256.2 L 251.9,256.1 L 251.9,256.4 L 251.8,256.4 L 251.8,256.9 L 251.1,256.9 L 250.4,257.1 L 250.7,257.2 L 250.9,257.4 L 251.7,258.4 L 260.2,269.0 L 260.7,269.6 L 265.6,275.4 L 267.8,278.1 L 267.9,278.2 L 269.8,280.5 L 269.8,280.5 L 269.8,280.5 L 269.2,281.3 L 268.7,282.0 L 268.6,282.7 L 267.5,284.0 L 266.5,286.0 L 266.4,286.1 L 265.7,286.7 L 265.4,286.9 L 265.1,287.2 L 265.0,287.4 L 225.9,215.5 L 247.5,186.3 L 349.6,165.5 Z" class="poly" fill="#a8c8b0" data-short="23N01E29P002M" data-ma="North" data-base-year="1999" data-end-year="2025" data-span="26" data-area="14,798" data-rms-wells="23N01E29P002M" data-sy="0.0629" data-sy-source="SVSim" data-avg-dgwe="-0.67" data-cum-stor="-16,196" data-avg-rate="-623" data-critdry-share="82%" data-crit-share="40%" data-bucket-wet="+21,642" data-bucket-an="+1,350" data-bucket-bn="-884" data-bucket-dry="-19,501" data-bucket-critical="-18,803" data-hold="623" data-project="2,000" data-project-name="Rock Creek recharge" data-coverage="+1,377" data-late=""><title>Click for 23N01E29P002M detail</title></path>
<path d="M 208.8,142.3 L 189.5,149.2 L 149.4,116.2 L 145.4,107.7 L 154.3,107.8 L 179.6,108.0 L 204.1,108.1 L 220.3,108.1 L 208.8,142.3 Z" class="poly" fill="#f0d9a8" data-short="23N01W03H004M" data-ma="North" data-base-year="2012" data-end-year="2025" data-span="13" data-area="1,996" data-rms-wells="23N01W03H004M" data-sy="0.1098" data-sy-source="SVSim" data-avg-dgwe="-0.34" data-cum-stor="-964" data-avg-rate="-74" data-critdry-share="58%" data-crit-share="45%" data-bucket-wet="+1,705" data-bucket-an="+535" data-bucket-bn="-1,249" data-bucket-dry="-662" data-bucket-critical="-1,293" data-hold="74" data-project="0" data-project-name="" data-coverage="-74" data-late="1"><title>Click for 23N01W03H004M detail</title></path>
<path d="M 149.4,116.2 L 135.4,179.3 L 104.7,180.2 L 52.9,136.4 L 53.3,136.0 L 53.6,135.7 L 53.7,135.7 L 54.7,134.6 L 55.1,134.2 L 55.4,133.9 L 56.4,132.8 L 56.6,132.6 L 57.4,131.6 L 57.8,131.1 L 58.2,130.6 L 58.7,129.9 L 59.1,129.2 L 60.9,126.5 L 61.1,126.1 L 61.4,125.5 L 61.7,125.0 L 61.8,124.8 L 62.1,124.0 L 62.4,123.6 L 63.0,122.7 L 63.0,122.5 L 63.5,121.3 L 63.7,120.6 L 64.0,120.0 L 64.8,118.9 L 66.3,117.1 L 67.4,115.6 L 67.8,114.9 L 68.1,114.2 L 68.1,113.8 L 68.1,113.1 L 68.0,112.1 L 67.9,111.6 L 67.8,111.1 L 67.6,110.7 L 67.3,110.1 L 66.5,109.1 L 66.3,109.0 L 65.5,108.5 L 65.5,108.5 L 64.3,108.0 L 62.9,107.4 L 62.8,107.4 L 62.3,107.2 L 62.3,107.2 L 62.9,107.2 L 88.3,107.4 L 88.5,107.7 L 89.2,107.7 L 119.7,107.6 L 120.7,107.6 L 120.7,107.5 L 129.6,107.6 L 145.4,107.7 L 149.4,116.2 Z" class="poly" fill="#f0d9a8" data-short="23N01W09E001M" data-ma="North" data-base-year="1999" data-end-year="2025" data-span="26" data-area="5,275" data-rms-wells="23N01W09E001M" data-sy="0.0821" data-sy-source="SVSim" data-avg-dgwe="-0.11" data-cum-stor="-1,213" data-avg-rate="-47" data-critdry-share="70%" data-crit-share="14%" data-bucket-wet="+15,071" data-bucket-an="+2,144" data-bucket-bn="-4,526" data-bucket-dry="-11,563" data-bucket-critical="-2,339" data-hold="47" data-project="0" data-project-name="" data-coverage="-47" data-late=""><title>Click for 23N01W09E001M detail</title></path>
<path d="M 135.4,179.3 L 149.4,116.2 L 189.5,149.2 L 163.5,182.4 L 151.4,184.1 L 135.4,179.3 Z" class="poly" fill="#f0d9a8" data-short="23N01W10M001M" data-ma="North" data-base-year="2002" data-end-year="2025" data-span="23" data-area="2,110" data-rms-wells="23N01W10M001M" data-sy="0.0797" data-sy-source="SVSim" data-avg-dgwe="-0.10" data-cum-stor="-384" data-avg-rate="-17" data-critdry-share="70%" data-crit-share="35%" data-bucket-wet="+4,607" data-bucket-an="+771" data-bucket-bn="-883" data-bucket-dry="-2,561" data-bucket-critical="-2,319" data-hold="17" data-project="0" data-project-name="" data-coverage="-17" data-late="1"><title>Click for 23N01W10M001M detail</title></path>
<path d="M 208.8,142.3 L 247.5,186.3 L 225.9,215.5 L 204.4,219.4 L 163.5,182.4 L 189.5,149.2 L 208.8,142.3 Z" class="poly" fill="#f0d9a8" data-short="23N01W14R002M" data-ma="North" data-base-year="1999" data-end-year="2025" data-span="26" data-area="3,865" data-rms-wells="23N01W14R002M" data-sy="0.0594" data-sy-source="SVSim" data-avg-dgwe="-0.57" data-cum-stor="-3,421" data-avg-rate="-132" data-critdry-share="79%" data-crit-share="48%" data-bucket-wet="+2,614" data-bucket-an="+719" data-bucket-bn="-555" data-bucket-dry="-2,342" data-bucket-critical="-3,857" data-hold="132" data-project="0" data-project-name="" data-coverage="-132" data-late=""><title>Click for 23N01W14R002M detail</title></path>
<path d="M 163.5,182.4 L 204.4,219.4 L 163.7,275.5 L 148.3,258.8 L 151.4,184.1 L 163.5,182.4 Z" class="poly" fill="#f0d9a8" data-short="23N01W27L001M" data-ma="North" data-base-year="1999" data-end-year="2025" data-span="26" data-area="3,166" data-rms-wells="23N01W27L001M" data-sy="0.0675" data-sy-source="SVSim" data-avg-dgwe="-0.18" data-cum-stor="-983" data-avg-rate="-38" data-critdry-share="73%" data-crit-share="29%" data-bucket-wet="+8,306" data-bucket-an="+1,146" data-bucket-bn="-1,955" data-bucket-dry="-5,552" data-bucket-critical="-2,928" data-hold="38" data-project="0" data-project-name="" data-coverage="-38" data-late=""><title>Click for 23N01W27L001M detail</title></path>
<path d="M 148.3,258.8 L 114.0,243.1 L 101.1,219.4 L 104.7,180.2 L 135.4,179.3 L 151.4,184.1 L 148.3,258.8 Z" class="poly" fill="#a8c8b0" data-short="23N01W28M004M" data-ma="North" data-base-year="2009" data-end-year="2025" data-span="16" data-area="3,227" data-rms-wells="23N01W28M004M" data-sy="0.0950" data-sy-source="SVSim" data-avg-dgwe="+0.11" data-cum-stor="+545" data-avg-rate="+34" data-critdry-share="59%" data-crit-share="32%" data-bucket-wet="+8,898" data-bucket-an="+1,198" data-bucket-bn="-4,084" data-bucket-dry="-2,701" data-bucket-critical="-2,765" data-hold="0" data-project="0" data-project-name="" data-coverage="+0" data-late="1"><title>Click for 23N01W28M004M detail</title></path>
<path d="M 101.1,219.4 L 114.0,243.1 L 89.0,267.0 L 89.0,266.8 L 89.5,262.7 L 90.3,258.3 L 90.3,258.0 L 90.5,254.9 L 89.1,252.5 L 87.0,251.0 L 83.8,251.0 L 79.6,251.9 L 76.0,253.6 L 75.5,253.9 L 73.7,255.2 L 74.0,257.5 L 74.4,258.9 L 74.6,260.4 L 74.6,260.5 L 73.4,262.1 L 71.4,263.3 L 69.8,264.0 L 68.4,263.5 L 66.5,262.4 L 65.0,260.4 L 62.5,257.6 L 60.5,255.6 L 60.3,255.3 L 60.0,254.7 L 59.9,254.4 L 59.2,253.2 L 59.0,252.8 L 58.6,251.8 L 58.3,251.4 L 58.1,250.8 L 58.0,250.4 L 57.7,249.9 L 57.4,249.1 L 57.2,248.7 L 57.0,248.3 L 56.5,246.7 L 56.3,246.2 L 56.0,245.9 L 55.9,245.7 L 55.7,245.7 L 54.9,245.5 L 54.6,245.4 L 54.4,245.3 L 53.8,245.4 L 53.4,245.4 L 52.2,245.5 L 51.9,245.4 L 51.2,245.1 L 51.1,245.1 L 50.6,244.8 L 49.3,243.8 L 49.1,243.7 L 48.6,243.2 L 48.0,242.7 L 47.4,242.3 L 101.1,219.4 Z" class="poly" fill="#a8c8b0" data-short="23N01W31M004M" data-ma="North" data-base-year="2009" data-end-year="2024" data-span="15" data-area="1,575" data-rms-wells="23N01W31M004M" data-sy="0.0864" data-sy-source="SVSim" data-avg-dgwe="+0.05" data-cum-stor="+104" data-avg-rate="+7" data-critdry-share="55%" data-crit-share="21%" data-bucket-wet="+2,368" data-bucket-an="+75" data-bucket-bn="-1,064" data-bucket-dry="-926" data-bucket-critical="-349" data-hold="0" data-project="0" data-project-name="" data-coverage="+0" data-late="1"><title>Click for 23N01W31M004M detail</title></path>
<path d="M 297.3,258.8 L 297.3,256.5 L 297.4,252.3 L 297.4,249.7 L 293.9,244.2 L 291.3,244.3 L 291.2,244.3 L 291.0,244.3 L 291.0,244.3 L 291.0,244.3 L 291.0,243.3 L 290.9,242.1 L 290.9,241.7 L 291.0,241.0 L 291.0,239.5 L 286.4,232.3 L 286.0,231.8 L 286.0,231.7 L 286.0,231.7 L 285.9,231.6 L 285.6,231.6 L 285.6,231.6 L 285.6,231.6 L 285.6,230.8 L 285.1,230.1 L 284.2,228.8 L 283.9,228.3 L 285.2,227.4 L 285.7,227.1 L 285.7,227.0 L 286.0,227.0 L 286.0,226.4 L 286.0,226.1 L 287.1,226.5 L 287.6,225.5 L 287.6,225.5 L 287.6,225.5 L 287.8,225.7 L 288.7,223.9 L 289.4,222.7 L 293.4,221.4 L 293.4,221.4 L 293.4,221.4 L 295.4,224.4 L 295.4,224.4 L 295.4,224.4 L 295.5,224.4 L 295.5,224.5 L 295.5,224.5 L 295.5,224.5 L 295.5,224.5 L 295.5,224.6 L 295.6,224.7 L 295.9,225.2 L 296.0,225.2 L 296.0,225.3 L 296.0,225.3 L 296.0,225.3 L 296.1,225.4 L 297.5,227.6 L 298.8,229.7 L 300.0,231.5 L 301.4,231.4 L 303.4,231.4 L 303.5,231.4 L 303.5,231.4 L 303.5,231.4 L 303.5,237.2 L 305.3,240.0 L 305.3,241.0 L 305.5,241.0 L 305.6,241.0 L 307.4,241.0 L 307.4,239.7 L 307.4,239.6 L 307.4,239.0 L 307.4,238.6 L 307.4,238.5 L 307.8,238.5 L 309.4,239.1 L 309.4,239.2 L 309.5,239.2 L 310.3,239.2 L 311.1,238.9 L 311.4,238.3 L 311.5,238.3 L 311.5,236.5 L 311.5,234.4 L 311.5,234.2 L 311.5,234.0 L 311.7,234.0 L 313.7,233.6 L 313.1,232.7 L 313.1,232.7 L 313.5,232.6 L 314.2,232.5 L 314.2,232.3 L 314.6,232.3 L 314.6,232.3 L 314.6,232.3 L 314.6,232.4 L 314.6,232.4 L 315.9,232.2 L 315.9,232.1 L 315.9,231.0 L 316.2,231.0 L 317.1,231.0 L 319.0,231.0 L 320.5,231.0 L 321.8,231.0 L 322.3,231.0 L 322.3,231.0 L 322.3,231.0 L 322.1,232.8 L 322.2,235.1 L 322.2,235.5 L 322.2,237.0 L 322.4,244.4 L 322.3,250.2 L 322.3,250.3 L 322.3,250.3 L 322.3,250.4 L 322.3,250.5 L 322.3,250.6 L 322.3,250.7 L 322.3,250.7 L 322.4,250.8 L 322.4,250.9 L 322.4,251.0 L 322.4,251.1 L 322.4,251.1 L 322.4,251.2 L 322.5,251.3 L 322.5,251.4 L 322.5,251.5 L 322.5,251.5 L 322.5,251.6 L 322.6,251.7 L 322.6,251.8 L 322.6,251.8 L 322.7,251.9 L 322.7,252.0 L 322.8,252.1 L 322.8,252.2 L 322.8,252.3 L 322.9,252.3 L 322.9,252.4 L 322.9,252.5 L 323.0,252.6 L 323.0,252.6 L 323.1,252.7 L 323.1,252.8 L 323.2,252.8 L 323.2,252.9 L 323.3,253.0 L 323.3,253.1 L 328.5,253.0 L 328.5,253.0 L 328.5,253.0 L 328.4,255.6 L 328.4,255.7 L 328.4,255.9 L 328.4,257.5 L 328.5,259.1 L 328.6,259.6 L 328.7,260.4 L 328.7,262.0 L 330.0,261.9 L 331.8,261.9 L 331.8,262.0 L 331.9,267.2 L 297.3,258.8 Z M 378.4,278.4 L 382.3,278.3 L 383.4,279.7 L 378.4,278.4 Z M 426.6,290.1 L 427.6,290.0 L 428.9,289.8 L 430.4,289.0 L 433.2,287.5 L 436.3,285.8 L 445.8,294.8 L 426.6,290.1 Z" class="poly" fill="#6b9479" data-short="23N01E33A001M" data-ma="Chico" data-base-year="2003" data-end-year="2025" data-span="22" data-area="1,092" data-rms-wells="23N01E33A001M" data-sy="0.1124" data-sy-source="SVSim" data-avg-dgwe="-0.67" data-cum-stor="-1,799" data-avg-rate="-82" data-critdry-share="81%" data-crit-share="63%" data-bucket-wet="+828" data-bucket-an="-410" data-bucket-bn="+712" data-bucket-dry="-516" data-bucket-critical="-2,413" data-hold="82" data-project="2,000" data-project-name="Recharge project" data-coverage="+1,918" data-late="1"><title>Click for 23N01E33A001M detail</title></path>
<path d="M 257.4,306.4 L 256.9,306.4 L 256.9,306.4 L 256.9,306.4 L 256.9,306.2 L 257.4,306.4 Z M 501.2,401.1 L 496.9,403.9 L 496.9,403.9 L 496.9,403.9 L 496.9,403.9 L 496.8,403.9 L 496.8,403.9 L 496.8,403.9 L 496.8,403.9 L 496.8,403.9 L 496.8,404.0 L 496.8,404.0 L 496.8,404.0 L 496.8,404.0 L 496.8,404.0 L 496.8,404.0 L 496.7,404.0 L 496.7,404.0 L 496.7,404.0 L 496.7,404.0 L 496.7,404.0 L 496.7,404.0 L 496.7,404.0 L 496.7,404.0 L 496.7,404.0 L 496.7,404.0 L 496.6,404.0 L 496.6,404.0 L 496.6,404.0 L 496.6,404.0 L 496.6,404.0 L 496.6,404.0 L 496.6,404.0 L 496.6,404.0 L 496.6,404.0 L 496.6,404.1 L 496.6,404.1 L 496.5,404.1 L 496.5,404.1 L 496.5,404.1 L 496.5,404.1 L 496.5,404.1 L 496.5,404.1 L 496.5,404.1 L 496.5,404.1 L 496.5,404.1 L 496.5,404.1 L 496.4,404.1 L 496.4,404.1 L 496.4,404.1 L 496.4,404.1 L 496.4,404.1 L 496.4,404.1 L 496.4,404.1 L 496.4,404.1 L 496.4,404.1 L 496.4,404.1 L 496.3,404.1 L 496.3,404.1 L 496.3,404.1 L 487.9,407.1 L 487.9,407.1 L 487.9,407.1 L 487.9,407.1 L 487.9,407.1 L 487.9,407.1 L 487.9,407.1 L 487.9,407.1 L 487.9,407.1 L 487.9,407.1 L 487.8,407.1 L 487.8,407.1 L 487.8,407.1 L 487.8,407.1 L 487.8,407.1 L 487.8,407.1 L 487.8,407.1 L 487.8,407.1 L 487.8,407.2 L 487.8,407.2 L 487.8,407.2 L 487.7,407.2 L 487.7,407.2 L 487.7,407.2 L 487.7,407.2 L 487.7,407.2 L 487.7,407.2 L 487.7,407.2 L 487.7,407.2 L 487.7,407.2 L 487.7,407.2 L 487.7,407.2 L 487.6,407.2 L 487.6,407.2 L 487.6,407.2 L 487.6,407.2 L 487.6,407.2 L 487.6,407.2 L 487.6,407.2 L 487.6,407.2 L 487.6,407.2 L 487.6,407.3 L 487.5,407.3 L 487.5,407.3 L 487.5,407.3 L 487.5,407.3 L 487.5,407.3 L 487.5,407.3 L 487.5,407.3 L 487.5,407.3 L 487.5,407.3 L 487.5,407.3 L 487.5,407.3 L 487.4,407.3 L 487.4,407.3 L 487.4,407.3 L 487.4,407.3 L 487.4,407.3 L 487.4,407.3 L 487.4,407.3 L 487.4,407.3 L 487.4,407.3 L 487.4,407.3 L 487.4,407.3 L 487.3,407.4 L 487.3,407.4 L 487.3,407.4 L 487.3,407.4 L 487.3,407.4 L 487.3,407.4 L 487.3,407.4 L 487.3,407.4 L 487.3,407.4 L 487.3,407.4 L 487.3,407.4 L 487.3,407.4 L 487.2,407.4 L 487.2,407.4 L 487.2,407.4 L 487.2,407.4 L 487.2,407.4 L 487.2,407.4 L 482.5,410.0 L 474.1,414.5 L 474.1,414.5 L 474.1,414.5 L 474.1,414.5 L 474.1,414.5 L 474.1,414.5 L 474.1,414.5 L 474.1,414.5 L 474.1,414.5 L 474.1,414.5 L 474.1,414.5 L 474.1,414.5 L 474.1,414.5 L 474.1,414.5 L 474.1,414.5 L 474.1,414.5 L 474.1,414.5 L 474.1,414.5 L 474.1,414.5 L 474.1,414.5 L 474.1,414.5 L 474.1,414.5 L 474.1,414.5 L 474.1,414.5 L 474.1,414.5 L 474.0,414.5 L 474.0,414.5 L 474.0,414.5 L 474.0,414.5 L 474.0,414.5 L 474.0,414.5 L 474.0,414.5 L 474.0,414.6 L 474.0,414.6 L 474.0,414.6 L 474.0,414.6 L 474.0,414.6 L 474.0,414.6 L 474.0,414.6 L 474.0,414.6 L 474.0,414.6 L 474.0,414.6 L 474.0,414.6 L 474.0,414.6 L 474.0,414.6 L 474.0,414.6 L 474.0,414.6 L 474.0,414.6 L 474.0,414.6 L 474.0,414.6 L 474.0,414.6 L 474.0,414.6 L 474.0,414.6 L 474.0,414.6 L 474.0,414.6 L 474.0,414.6 L 474.0,414.6 L 474.0,414.6 L 474.0,414.6 L 474.0,414.6 L 474.0,414.6 L 474.0,414.6 L 474.0,414.6 L 474.0,414.6 L 474.0,414.6 L 474.0,414.6 L 474.0,414.6 L 474.0,414.6 L 473.9,414.6 L 473.9,414.6 L 473.9,414.6 L 473.9,414.6 L 473.9,414.6 L 473.9,414.6 L 473.9,414.6 L 473.9,414.6 L 473.9,414.6 L 473.9,414.6 L 473.9,414.6 L 473.9,414.6 L 473.9,414.6 L 473.9,414.6 L 473.9,414.6 L 473.9,414.6 L 473.9,414.6 L 473.9,414.6 L 473.9,414.6 L 473.9,414.6 L 473.9,414.6 L 473.9,414.6 L 473.9,414.6 L 473.9,414.6 L 473.9,414.6 L 473.9,414.6 L 473.9,414.6 L 473.9,414.6 L 473.9,414.6 L 473.9,414.6 L 473.9,414.6 L 473.9,414.6 L 473.9,414.6 L 473.9,414.6 L 473.9,414.6 L 473.9,414.6 L 473.9,414.6 L 473.9,414.6 L 473.9,414.6 L 473.4,414.7 L 472.5,414.9 L 462.4,416.2 L 459.7,416.5 L 457.9,416.7 L 441.8,418.8 L 437.4,419.4 L 430.3,420.3 L 429.8,420.3 L 429.3,420.8 L 427.2,421.0 L 424.5,420.9 L 419.2,419.9 L 418.9,420.1 L 418.6,420.3 L 417.6,422.7 L 417.3,423.9 L 418.4,427.9 L 418.5,429.3 L 418.4,431.2 L 416.5,433.2 L 417.6,434.5 L 417.8,434.8 L 421.6,439.2 L 421.8,439.6 L 423.5,441.6 L 423.8,441.9 L 425.5,443.8 L 428.6,447.5 L 428.8,447.7 L 433.3,453.0 L 433.9,453.6 L 434.1,453.9 L 437.2,457.4 L 439.2,459.7 L 438.4,460.4 L 438.2,460.5 L 435.8,463.0 L 430.3,468.5 L 430.3,468.4 L 430.2,468.3 L 430.1,468.2 L 430.1,468.2 L 429.8,467.8 L 429.7,467.6 L 429.6,467.6 L 429.6,467.5 L 429.5,467.5 L 429.5,467.4 L 429.5,467.4 L 429.4,467.4 L 429.4,467.3 L 429.3,467.3 L 429.3,467.2 L 429.2,467.2 L 429.2,467.1 L 429.2,467.1 L 429.1,467.1 L 428.6,466.6 L 428.6,466.6 L 428.5,466.6 L 428.5,466.6 L 428.5,466.6 L 428.5,466.6 L 428.5,466.6 L 428.5,466.6 L 428.5,466.6 L 428.5,466.5 L 428.5,466.5 L 428.5,466.5 L 428.4,466.5 L 428.4,466.5 L 428.4,466.5 L 428.4,466.5 L 428.4,466.5 L 428.4,466.5 L 428.4,466.5 L 428.4,466.5 L 428.4,466.5 L 428.4,466.5 L 428.3,466.5 L 428.3,466.5 L 428.3,466.5 L 427.7,466.4 L 427.2,466.4 L 426.5,466.4 L 426.4,466.4 L 426.4,466.4 L 426.4,466.4 L 426.3,466.4 L 426.3,466.4 L 426.3,466.4 L 426.2,466.4 L 426.2,466.4 L 426.2,466.3 L 426.1,466.3 L 426.1,466.3 L 426.1,466.3 L 426.0,466.3 L 426.0,466.3 L 426.0,466.3 L 425.9,466.3 L 425.9,466.3 L 425.9,466.3 L 425.8,466.3 L 425.8,466.2 L 425.8,466.2 L 425.7,466.2 L 425.7,466.2 L 425.7,466.2 L 425.7,466.2 L 425.6,466.2 L 425.6,466.1 L 425.4,466.0 L 423.2,464.9 L 421.7,464.0 L 421.4,463.8 L 420.1,463.2 L 418.0,462.0 L 416.9,461.6 L 416.8,461.4 L 416.7,461.3 L 416.0,461.1 L 415.9,461.0 L 415.4,460.9 L 415.6,460.6 L 415.6,458.9 L 416.5,454.1 L 416.5,454.0 L 416.6,452.4 L 416.1,451.7 L 415.2,450.9 L 414.8,449.3 L 414.7,448.4 L 414.7,448.3 L 414.7,447.3 L 415.2,444.5 L 415.8,442.7 L 415.8,442.1 L 415.7,441.7 L 415.4,441.3 L 414.9,440.4 L 414.7,439.5 L 414.5,438.6 L 412.5,438.6 L 411.1,438.5 L 408.6,438.5 L 406.6,438.5 L 400.3,438.4 L 395.6,438.3 L 395.6,435.7 L 395.6,429.0 L 395.6,428.9 L 395.3,428.9 L 395.2,428.9 L 395.2,428.9 L 395.5,426.7 L 395.5,426.5 L 395.7,425.2 L 395.7,425.2 L 395.9,423.8 L 396.3,420.6 L 396.3,420.5 L 396.4,419.3 L 395.3,420.1 L 394.1,420.8 L 393.0,421.5 L 392.4,421.9 L 391.8,422.3 L 390.9,422.9 L 389.9,423.6 L 388.9,424.2 L 387.9,424.9 L 387.3,425.3 L 386.8,425.6 L 386.2,426.0 L 385.6,426.4 L 384.9,426.9 L 384.8,427.0 L 384.6,427.1 L 378.6,415.8 L 376.6,416.8 L 375.6,417.4 L 375.1,417.8 L 374.4,418.1 L 372.9,418.4 L 372.0,418.9 L 371.8,419.0 L 370.8,419.5 L 369.8,419.9 L 369.5,420.1 L 368.7,420.5 L 368.5,419.9 L 368.3,419.5 L 368.1,419.1 L 367.9,418.6 L 367.8,418.2 L 367.7,418.0 L 367.6,417.7 L 367.4,417.3 L 367.3,416.9 L 367.2,416.9 L 367.0,416.4 L 366.9,416.0 L 366.7,415.6 L 366.6,415.2 L 365.9,415.8 L 365.3,416.3 L 363.9,417.4 L 363.9,417.3 L 362.8,418.2 L 361.5,419.3 L 361.2,419.5 L 360.6,420.1 L 359.8,420.7 L 358.5,421.9 L 358.2,421.7 L 358.2,421.7 L 358.2,421.7 L 357.5,420.8 L 357.4,420.7 L 356.6,419.4 L 356.4,419.2 L 355.9,418.5 L 355.3,417.7 L 354.4,416.5 L 351.7,413.2 L 351.5,413.2 L 349.9,411.4 L 350.3,411.2 L 350.4,410.8 L 350.4,410.7 L 350.6,410.5 L 350.9,410.3 L 351.0,410.3 L 351.1,410.3 L 351.2,410.3 L 351.3,410.2 L 351.4,410.2 L 351.8,410.2 L 352.1,410.2 L 352.4,410.1 L 352.7,410.1 L 352.9,410.2 L 353.2,410.1 L 353.4,410.0 L 353.6,409.9 L 353.8,409.8 L 354.2,409.8 L 354.2,409.8 L 354.3,409.8 L 354.3,409.6 L 354.5,409.5 L 354.5,409.5 L 354.5,409.4 L 355.0,409.0 L 355.1,408.7 L 355.0,408.4 L 355.0,408.1 L 355.1,407.9 L 355.0,407.8 L 355.0,407.8 L 355.0,407.8 L 355.1,407.4 L 355.1,407.3 L 355.5,406.8 L 355.7,406.6 L 355.9,406.4 L 356.3,405.8 L 356.4,405.5 L 356.9,405.5 L 357.2,405.1 L 357.3,404.5 L 357.6,404.1 L 354.9,404.1 L 353.8,404.0 L 353.5,404.1 L 350.7,404.2 L 344.6,404.6 L 344.0,404.6 L 343.7,404.6 L 343.5,404.4 L 341.3,401.7 L 338.6,398.5 L 338.3,398.5 L 333.3,393.2 L 333.3,393.2 L 333.3,393.2 L 333.6,393.2 L 332.8,392.4 L 331.5,390.9 L 331.5,391.1 L 331.4,391.1 L 331.4,391.1 L 331.0,392.3 L 328.9,399.1 L 328.9,399.3 L 328.5,399.3 L 325.7,398.4 L 324.9,398.2 L 324.3,398.6 L 324.2,398.7 L 324.1,399.0 L 324.0,399.2 L 323.8,399.4 L 323.8,399.4 L 323.6,399.7 L 323.5,399.7 L 323.0,399.9 L 322.8,400.1 L 322.5,400.3 L 322.2,400.2 L 321.7,400.2 L 322.1,398.9 L 322.2,398.5 L 322.4,398.1 L 322.5,397.8 L 322.6,397.5 L 322.4,397.4 L 319.8,396.6 L 318.6,396.3 L 318.7,395.8 L 318.7,395.8 L 318.7,395.8 L 318.8,395.6 L 317.2,395.1 L 316.6,394.9 L 316.4,395.6 L 316.5,395.6 L 316.0,397.0 L 315.2,399.2 L 314.7,400.8 L 314.5,401.3 L 314.5,401.3 L 311.9,400.5 L 311.3,400.2 L 309.8,399.7 L 310.0,399.1 L 310.2,398.5 L 310.3,398.2 L 310.4,398.0 L 310.6,397.4 L 310.7,396.9 L 310.9,396.2 L 311.3,395.1 L 311.8,393.4 L 312.0,392.9 L 312.5,392.8 L 312.8,392.7 L 313.7,392.5 L 313.9,392.5 L 314.1,392.5 L 314.4,392.4 L 314.8,392.4 L 315.6,392.2 L 315.9,392.2 L 315.8,391.9 L 315.8,391.6 L 316.5,391.5 L 316.4,390.9 L 316.2,389.6 L 316.2,389.6 L 316.2,389.6 L 316.1,388.4 L 316.0,388.2 L 316.0,387.9 L 315.8,386.9 L 315.5,384.7 L 314.8,384.8 L 314.1,384.9 L 314.1,384.9 L 314.1,384.9 L 314.0,384.5 L 314.0,384.1 L 313.9,383.8 L 313.9,383.4 L 313.8,383.0 L 313.8,382.6 L 313.6,381.7 L 312.2,381.9 L 309.4,382.3 L 307.3,382.6 L 306.5,382.7 L 304.0,383.1 L 303.7,383.2 L 303.8,384.0 L 303.9,384.8 L 302.7,385.0 L 302.0,385.1 L 301.3,385.2 L 301.4,385.5 L 301.4,385.8 L 301.5,386.3 L 301.6,386.8 L 301.2,386.9 L 300.5,387.0 L 300.2,387.0 L 299.8,387.1 L 299.4,387.1 L 299.1,387.2 L 298.8,387.2 L 298.7,386.7 L 298.6,386.3 L 298.6,385.9 L 298.5,385.6 L 298.5,385.3 L 298.4,385.0 L 298.4,384.6 L 298.4,384.3 L 298.3,384.0 L 295.3,384.3 L 294.0,384.5 L 294.0,384.4 L 293.8,383.1 L 293.4,381.0 L 293.4,380.9 L 292.8,381.0 L 292.0,380.7 L 292.0,380.7 L 290.6,380.8 L 290.6,380.8 L 290.6,380.8 L 290.5,380.8 L 290.5,380.8 L 290.5,380.8 L 290.4,380.8 L 290.4,380.7 L 290.3,380.7 L 290.3,380.7 L 290.2,380.7 L 290.2,380.7 L 290.1,380.7 L 290.1,380.6 L 290.0,380.6 L 290.0,380.6 L 290.0,380.6 L 289.9,380.6 L 289.9,380.6 L 289.9,380.6 L 289.9,380.6 L 289.8,380.6 L 289.8,380.6 L 289.8,380.6 L 289.7,380.6 L 289.6,380.7 L 289.6,380.7 L 289.5,380.7 L 289.5,380.7 L 289.5,380.8 L 289.4,380.8 L 289.3,380.8 L 289.3,380.8 L 289.2,380.9 L 289.1,380.9 L 289.1,380.9 L 289.1,380.9 L 289.1,380.9 L 289.0,380.9 L 289.0,380.9 L 288.9,380.9 L 288.7,380.7 L 288.7,380.7 L 288.7,380.7 L 288.6,380.6 L 288.4,380.5 L 288.3,380.4 L 288.3,380.4 L 288.1,380.2 L 288.0,380.2 L 287.8,380.0 L 287.4,379.8 L 287.3,379.8 L 287.3,379.8 L 287.2,379.8 L 287.2,379.7 L 287.0,379.6 L 286.3,379.1 L 286.2,379.1 L 285.5,378.6 L 285.3,378.5 L 285.3,378.5 L 285.2,378.5 L 285.1,378.5 L 284.9,378.5 L 284.9,378.5 L 284.8,378.5 L 284.6,378.5 L 284.5,378.5 L 284.5,378.5 L 284.3,378.5 L 284.3,378.4 L 284.2,378.3 L 283.7,380.1 L 282.0,379.6 L 282.8,377.2 L 282.8,377.2 L 282.7,377.1 L 282.7,377.0 L 282.6,376.9 L 282.6,376.8 L 282.6,376.8 L 282.5,376.6 L 282.4,376.5 L 282.2,376.4 L 281.9,376.3 L 281.6,376.1 L 281.6,376.1 L 281.5,376.0 L 281.4,376.0 L 281.4,375.9 L 281.3,375.9 L 281.2,375.9 L 281.2,375.8 L 281.2,375.8 L 281.0,375.8 L 280.9,375.8 L 280.8,375.8 L 280.7,375.8 L 280.6,375.7 L 280.6,375.8 L 280.5,375.8 L 280.3,375.7 L 280.1,375.6 L 280.0,375.5 L 279.9,375.5 L 279.8,375.3 L 279.7,375.2 L 279.6,375.1 L 279.5,375.0 L 279.3,374.9 L 279.2,374.8 L 279.1,374.7 L 279.1,374.7 L 279.1,374.7 L 279.1,374.7 L 279.0,374.7 L 278.8,374.6 L 278.7,374.6 L 278.7,374.6 L 278.7,374.6 L 278.6,374.6 L 278.6,374.2 L 278.6,374.0 L 278.5,373.2 L 278.5,372.3 L 278.5,371.7 L 278.4,371.2 L 278.4,370.6 L 278.4,370.1 L 278.4,370.1 L 278.4,370.1 L 278.4,369.5 L 278.4,369.2 L 278.3,368.8 L 278.3,368.4 L 278.3,368.0 L 278.4,367.0 L 278.4,365.6 L 278.4,364.0 L 278.4,362.5 L 278.4,362.3 L 278.4,362.3 L 278.4,362.2 L 278.4,362.2 L 278.5,362.2 L 278.5,361.7 L 278.5,361.3 L 278.5,360.9 L 278.5,356.9 L 278.5,356.9 L 278.5,356.1 L 276.6,355.0 L 275.9,354.4 L 275.9,354.4 L 275.9,354.3 L 275.9,354.3 L 276.0,354.3 L 276.1,354.2 L 276.1,354.1 L 276.1,352.4 L 276.1,352.3 L 276.1,352.3 L 276.1,352.2 L 276.1,352.2 L 276.1,352.2 L 276.2,352.1 L 276.2,352.1 L 276.2,352.1 L 276.2,352.1 L 276.2,352.0 L 276.2,352.0 L 276.2,352.0 L 276.2,351.9 L 276.2,351.9 L 276.2,351.9 L 276.2,351.9 L 276.3,351.7 L 276.3,351.7 L 276.3,351.7 L 276.3,351.6 L 276.3,351.6 L 275.7,351.6 L 273.2,351.6 L 271.9,351.6 L 271.9,352.2 L 270.1,352.2 L 270.1,351.6 L 270.1,349.8 L 270.1,349.6 L 269.7,349.6 L 269.8,348.7 L 267.0,348.7 L 267.0,348.6 L 266.8,348.6 L 263.9,348.6 L 262.9,348.6 L 261.8,348.6 L 260.5,348.7 L 259.5,348.7 L 259.5,348.5 L 259.5,347.6 L 259.4,346.2 L 259.4,345.5 L 259.4,341.9 L 256.3,340.1 L 255.1,339.5 L 255.1,340.3 L 255.1,341.5 L 254.3,341.5 L 254.3,340.3 L 254.2,339.0 L 251.2,337.4 L 251.2,338.2 L 251.2,339.2 L 250.1,339.2 L 250.1,338.2 L 250.1,337.3 L 250.0,337.1 L 249.9,337.0 L 249.3,336.6 L 248.8,336.4 L 248.4,336.3 L 247.9,336.1 L 241.4,334.5 L 240.9,334.5 L 240.8,334.5 L 240.9,334.1 L 241.3,332.1 L 242.0,328.7 L 242.1,328.5 L 242.2,328.1 L 249.7,332.3 L 250.4,332.7 L 250.4,332.7 L 253.0,334.1 L 254.2,334.8 L 255.6,335.6 L 256.1,335.9 L 256.5,336.1 L 256.8,336.3 L 257.1,336.5 L 258.3,337.1 L 259.7,337.9 L 261.1,338.6 L 261.1,338.5 L 261.8,338.9 L 262.5,339.3 L 263.2,339.7 L 263.8,340.0 L 266.6,341.5 L 267.1,341.8 L 267.7,342.1 L 268.4,342.6 L 269.3,343.0 L 270.0,343.5 L 272.0,344.6 L 273.7,345.5 L 274.2,345.8 L 274.7,346.0 L 275.8,345.1 L 276.0,345.0 L 276.1,345.0 L 277.2,344.1 L 278.4,343.1 L 278.4,343.1 L 278.4,343.1 L 278.0,342.6 L 277.5,341.9 L 277.4,341.8 L 277.0,341.2 L 276.6,340.8 L 276.5,340.7 L 277.8,339.7 L 279.0,338.7 L 277.1,336.3 L 277.2,336.2 L 279.6,334.3 L 280.4,333.7 L 282.0,332.5 L 282.0,332.5 L 281.5,331.9 L 281.1,331.4 L 280.8,331.0 L 280.4,330.4 L 280.1,330.0 L 278.6,328.1 L 278.2,327.6 L 277.4,326.5 L 276.3,325.1 L 275.1,326.0 L 274.5,326.5 L 274.0,326.9 L 273.2,327.5 L 272.6,327.9 L 272.3,327.4 L 271.9,326.9 L 271.6,326.6 L 271.4,326.3 L 271.2,326.1 L 271.2,326.0 L 271.1,325.9 L 270.5,325.2 L 270.4,325.0 L 271.2,325.0 L 271.7,325.0 L 274.3,325.0 L 275.4,324.9 L 275.4,325.0 L 276.9,325.0 L 273.6,320.6 L 272.3,319.0 L 271.0,317.3 L 271.1,317.2 L 271.8,316.7 L 272.4,316.3 L 273.0,315.8 L 273.6,315.3 L 274.2,314.9 L 274.9,314.4 L 275.3,314.0 L 275.9,313.6 L 501.2,401.1 Z" class="poly" fill="#cb7740" data-short="22N01E20K001M" data-ma="Chico" data-base-year="2000" data-end-year="2022" data-span="22" data-area="12,799" data-rms-wells="22N01E20K001M" data-sy="0.0936" data-sy-source="SVSim" data-avg-dgwe="-0.98" data-cum-stor="-25,756" data-avg-rate="-1,171" data-critdry-share="92%" data-crit-share="53%" data-bucket-wet="+20,784" data-bucket-an="+3,833" data-bucket-bn="+7,367" data-bucket-dry="-24,342" data-bucket-critical="-33,399" data-hold="1,171" data-project="0" data-project-name="" data-coverage="-1,171" data-late="1"><title>Click for 22N01E20K001M detail</title></path>
<path d="M 256.9,306.2 L 256.9,306.0 L 256.9,305.6 L 256.9,305.2 L 256.9,304.8 L 256.9,304.5 L 256.9,304.1 L 256.9,303.7 L 256.8,300.0 L 256.9,300.0 L 257.9,300.1 L 258.5,299.8 L 258.7,299.7 L 258.9,299.7 L 260.1,298.5 L 260.8,296.9 L 261.1,296.4 L 262.8,294.0 L 263.1,293.3 L 263.1,293.2 L 263.1,293.0 L 263.0,292.5 L 263.0,291.8 L 262.9,291.5 L 263.0,291.0 L 263.0,290.9 L 263.3,290.5 L 263.3,290.2 L 263.6,288.8 L 263.8,288.6 L 264.4,288.4 L 264.7,288.2 L 264.9,287.8 L 265.1,287.2 L 265.4,286.9 L 265.7,286.7 L 266.4,286.1 L 266.5,286.0 L 267.5,284.0 L 268.6,282.7 L 268.7,282.0 L 269.2,281.3 L 269.8,280.5 L 269.8,280.5 L 269.8,280.5 L 267.9,278.2 L 267.8,278.1 L 265.6,275.4 L 260.7,269.6 L 260.2,269.0 L 251.7,258.4 L 250.9,257.4 L 250.7,257.2 L 250.4,257.1 L 251.1,256.9 L 251.8,256.9 L 251.8,256.4 L 251.9,256.4 L 251.9,256.1 L 254.1,256.2 L 254.1,256.8 L 254.8,256.8 L 255.2,256.8 L 255.5,256.8 L 256.2,256.8 L 256.3,256.8 L 256.9,256.8 L 257.5,256.8 L 257.5,257.7 L 257.5,258.0 L 257.5,258.1 L 257.5,259.1 L 258.0,259.1 L 258.5,259.1 L 258.9,259.1 L 259.4,259.1 L 259.7,259.1 L 259.9,259.1 L 260.4,259.1 L 260.8,259.1 L 261.5,260.1 L 261.8,260.5 L 263.1,260.5 L 264.1,260.5 L 265.1,260.5 L 266.1,260.5 L 266.1,260.4 L 266.1,260.3 L 266.1,260.2 L 266.1,260.1 L 266.2,260.0 L 266.2,260.0 L 266.2,259.9 L 266.2,259.9 L 266.4,259.9 L 266.4,260.7 L 266.4,261.4 L 266.4,262.1 L 266.5,263.5 L 266.5,264.0 L 266.5,265.3 L 266.5,266.3 L 266.5,266.7 L 266.4,268.0 L 266.7,268.5 L 267.0,269.0 L 267.3,269.5 L 267.7,270.0 L 268.0,270.5 L 268.3,271.0 L 268.6,271.5 L 268.9,272.0 L 269.2,272.5 L 269.6,273.0 L 269.9,273.5 L 270.3,274.0 L 270.6,274.5 L 271.0,275.0 L 271.0,275.0 L 271.4,275.5 L 271.9,276.1 L 272.0,276.1 L 272.4,276.7 L 272.6,276.8 L 273.1,277.4 L 273.6,277.4 L 273.7,277.4 L 273.9,277.4 L 274.5,277.6 L 275.0,277.0 L 275.3,276.9 L 275.3,276.9 L 275.3,276.9 L 275.3,276.9 L 275.3,276.8 L 275.3,276.8 L 275.3,276.8 L 275.3,276.8 L 275.3,276.8 L 275.3,276.7 L 275.3,276.7 L 275.3,276.7 L 275.3,276.7 L 275.3,276.7 L 275.3,276.7 L 275.3,276.6 L 275.3,276.6 L 275.3,276.6 L 275.3,276.6 L 275.3,276.6 L 275.3,276.5 L 275.3,276.5 L 275.3,276.5 L 275.3,276.5 L 275.3,276.5 L 275.3,276.5 L 275.3,276.4 L 275.3,276.4 L 275.3,276.4 L 275.2,276.4 L 275.2,276.4 L 275.2,276.4 L 275.2,276.3 L 275.2,276.3 L 275.2,276.3 L 275.2,276.3 L 275.2,276.3 L 275.2,276.3 L 275.2,276.2 L 275.2,276.2 L 274.8,275.7 L 274.6,275.3 L 274.5,275.0 L 276.5,274.9 L 276.7,275.1 L 277.1,275.4 L 277.5,275.6 L 277.9,275.6 L 278.1,275.6 L 278.7,275.4 L 280.1,274.9 L 280.7,274.7 L 281.4,274.6 L 282.4,274.6 L 283.3,274.8 L 284.4,275.4 L 284.9,276.0 L 285.0,276.2 L 285.2,276.3 L 285.3,276.6 L 285.3,276.8 L 285.5,277.0 L 285.7,277.3 L 286.2,277.7 L 287.3,278.4 L 288.5,279.1 L 288.9,279.3 L 289.3,279.4 L 291.2,279.3 L 291.3,279.3 L 291.3,279.3 L 291.4,279.4 L 291.5,279.4 L 291.9,279.5 L 292.5,279.7 L 292.8,279.9 L 293.1,280.1 L 294.1,280.9 L 294.7,280.9 L 295.3,281.6 L 295.7,281.9 L 296.3,282.4 L 296.7,282.8 L 297.7,283.4 L 297.7,283.4 L 297.6,281.0 L 297.3,281.0 L 297.3,281.0 L 297.3,281.0 L 297.4,274.7 L 297.4,273.3 L 297.4,271.0 L 292.5,270.9 L 292.5,270.9 L 292.4,270.9 L 292.3,270.5 L 292.2,270.4 L 297.4,270.4 L 297.3,268.4 L 297.3,258.8 L 331.9,267.2 L 331.9,267.9 L 331.8,267.9 L 331.9,268.0 L 330.1,268.1 L 328.9,268.1 L 329.0,274.3 L 328.9,274.3 L 328.9,275.6 L 328.9,276.8 L 328.9,277.0 L 331.0,280.3 L 331.1,280.5 L 331.3,280.4 L 335.0,280.4 L 336.6,280.4 L 337.3,280.4 L 338.2,280.4 L 339.7,280.3 L 339.9,280.3 L 341.3,280.3 L 344.6,280.3 L 348.3,280.2 L 349.3,280.2 L 353.7,280.1 L 377.6,279.3 L 377.6,278.5 L 378.4,278.4 L 383.4,279.7 L 392.0,290.5 L 392.0,290.5 L 392.0,290.5 L 396.1,302.0 L 396.3,302.5 L 395.3,303.4 L 396.4,303.4 L 396.7,303.4 L 396.7,303.3 L 402.9,298.5 L 410.0,292.8 L 417.5,291.2 L 426.6,290.1 L 445.8,294.8 L 452.8,301.4 L 453.7,302.4 L 454.0,302.7 L 454.7,303.4 L 460.0,308.4 L 471.5,322.0 L 474.1,326.0 L 478.3,334.7 L 481.3,339.7 L 486.9,348.2 L 493.3,357.0 L 495.3,360.5 L 497.0,363.5 L 505.0,375.7 L 505.4,376.3 L 507.5,379.0 L 507.8,379.3 L 507.8,379.3 L 508.0,379.6 L 508.6,380.4 L 510.5,382.8 L 511.3,383.8 L 517.0,390.3 L 514.0,392.4 L 510.8,394.5 L 506.4,397.6 L 502.5,400.2 L 501.2,401.1 L 275.9,313.6 L 276.0,313.5 L 275.0,312.3 L 273.1,309.8 L 272.0,308.3 L 271.7,308.0 L 271.2,307.4 L 270.6,306.6 L 270.8,306.4 L 270.6,306.2 L 270.5,306.3 L 270.4,306.3 L 268.9,306.3 L 268.6,306.3 L 268.4,306.3 L 268.2,306.3 L 267.9,306.3 L 267.7,306.3 L 267.5,306.3 L 267.3,306.3 L 267.0,306.3 L 266.8,306.3 L 266.5,306.3 L 266.3,306.3 L 266.1,306.3 L 265.8,306.3 L 265.6,306.3 L 265.4,306.3 L 265.2,306.3 L 265.0,306.3 L 264.8,306.3 L 264.1,306.4 L 264.0,306.4 L 263.2,306.4 L 263.1,306.4 L 262.8,306.4 L 261.8,306.4 L 261.0,306.4 L 260.5,306.4 L 260.1,306.4 L 259.3,306.4 L 257.6,306.4 L 257.4,306.4 L 256.9,306.2 Z" class="poly" fill="#cb7740" data-short="22N01E09B001M" data-ma="Chico" data-base-year="2002" data-end-year="2025" data-span="23" data-area="15,827" data-rms-wells="22N01E09B001M" data-sy="0.0936" data-sy-source="SVSim" data-avg-dgwe="-0.60" data-cum-stor="-20,296" data-avg-rate="-882" data-critdry-share="93%" data-crit-share="57%" data-bucket-wet="+23,185" data-bucket-an="+6,296" data-bucket-bn="+4,444" data-bucket-dry="-20,888" data-bucket-critical="-33,333" data-hold="882" data-project="0" data-project-name="" data-coverage="-882" data-late="1"><title>Click for 22N01E09B001M detail</title></path>
<path d="M 526.4,569.8 L 598.7,607.5 L 526.4,690.9 L 521.7,686.8 L 521.7,677.7 L 521.7,677.7 L 521.7,677.6 L 512.2,677.8 L 511.4,677.9 L 510.7,677.4 L 509.5,676.3 L 509.5,676.3 L 509.5,676.3 L 509.4,684.9 L 509.5,685.0 L 509.5,703.1 L 508.1,703.0 L 506.1,703.0 L 499.6,703.1 L 499.8,702.3 L 500.0,701.7 L 500.6,699.7 L 500.8,698.7 L 502.3,687.7 L 502.5,685.8 L 502.7,683.6 L 503.0,678.5 L 503.3,675.6 L 503.1,670.6 L 503.1,669.9 L 502.9,667.2 L 502.7,666.2 L 502.8,665.4 L 502.9,664.5 L 502.6,664.0 L 502.4,661.5 L 502.2,656.3 L 501.8,653.3 L 501.8,652.9 L 501.7,652.5 L 501.7,651.6 L 501.8,650.3 L 501.8,648.7 L 501.9,647.3 L 502.0,646.0 L 502.2,644.5 L 502.3,643.6 L 502.3,643.5 L 502.5,643.2 L 503.3,641.9 L 503.4,641.7 L 503.4,641.5 L 503.4,641.3 L 503.3,641.2 L 503.3,641.2 L 503.2,641.2 L 503.1,641.1 L 501.8,641.1 L 499.4,641.2 L 497.1,641.2 L 496.6,641.2 L 496.5,640.5 L 496.5,639.3 L 496.5,634.0 L 496.5,633.3 L 496.5,633.0 L 496.5,627.5 L 496.5,626.7 L 496.5,623.2 L 496.5,623.2 L 496.5,623.2 L 490.9,624.0 L 490.7,624.0 L 490.6,624.0 L 490.4,623.8 L 490.1,623.5 L 487.5,621.2 L 487.1,620.8 L 479.6,614.3 L 479.2,614.1 L 479.1,614.0 L 478.4,613.5 L 475.9,611.5 L 526.4,569.8 Z" class="poly" fill="#a8c8b0" data-short="20N02E24C001M" data-ma="South" data-base-year="2000" data-end-year="2024" data-span="24" data-area="7,861" data-rms-wells="20N02E24C001M" data-sy="0.0930" data-sy-source="SVSim" data-avg-dgwe="-0.97" data-cum-stor="-17,065" data-avg-rate="-711" data-critdry-share="85%" data-crit-share="51%" data-bucket-wet="+1,637" data-bucket-an="+3,220" data-bucket-bn="+558" data-bucket-dry="-8,974" data-bucket-critical="-13,505" data-hold="711" data-project="1,250" data-project-name="Conjunctive use (surface water replaces groundwater)" data-coverage="+539" data-late="1"><title>Click for 20N02E24C001M detail</title></path>
<path d="M 360.4,432.0 L 366.3,415.4 L 366.6,415.2 L 366.7,415.6 L 366.9,416.0 L 367.0,416.4 L 367.2,416.9 L 367.3,416.9 L 367.4,417.3 L 367.6,417.7 L 367.7,418.0 L 367.8,418.2 L 367.9,418.6 L 368.1,419.1 L 368.3,419.5 L 368.5,419.9 L 368.7,420.5 L 369.5,420.1 L 369.8,419.9 L 370.8,419.5 L 371.8,419.0 L 372.0,418.9 L 372.9,418.4 L 374.4,418.1 L 375.1,417.8 L 375.6,417.4 L 376.6,416.8 L 378.6,415.8 L 384.6,427.1 L 384.8,427.0 L 384.9,426.9 L 385.6,426.4 L 386.2,426.0 L 386.8,425.6 L 387.3,425.3 L 387.9,424.9 L 388.9,424.2 L 389.9,423.6 L 390.9,422.9 L 391.8,422.3 L 392.4,421.9 L 393.0,421.5 L 394.1,420.8 L 395.3,420.1 L 396.4,419.3 L 396.3,420.5 L 396.3,420.6 L 395.9,423.8 L 395.7,425.2 L 395.7,425.2 L 395.5,426.5 L 395.5,426.7 L 395.2,428.9 L 395.2,428.9 L 395.3,428.9 L 395.6,428.9 L 395.6,429.0 L 395.6,435.7 L 395.6,438.3 L 400.3,438.4 L 406.6,438.5 L 408.6,438.5 L 411.1,438.5 L 412.5,438.6 L 414.5,438.6 L 414.7,439.5 L 414.9,440.4 L 415.4,441.3 L 415.7,441.7 L 415.8,442.1 L 415.8,442.7 L 415.2,444.5 L 414.7,447.3 L 414.7,448.3 L 414.7,448.4 L 414.8,449.3 L 415.2,450.9 L 416.1,451.7 L 416.6,452.4 L 416.5,454.0 L 416.5,454.1 L 415.6,458.9 L 415.6,460.6 L 415.4,460.9 L 415.9,461.0 L 416.0,461.1 L 416.7,461.3 L 416.8,461.4 L 416.9,461.6 L 418.0,462.0 L 420.1,463.2 L 421.4,463.8 L 421.7,464.0 L 423.2,464.9 L 425.4,466.0 L 425.6,466.1 L 425.6,466.2 L 425.7,466.2 L 425.7,466.2 L 425.7,466.2 L 425.7,466.2 L 425.8,466.2 L 425.8,466.2 L 425.8,466.3 L 425.9,466.3 L 425.9,466.3 L 425.9,466.3 L 426.0,466.3 L 426.0,466.3 L 426.0,466.3 L 426.1,466.3 L 426.1,466.3 L 426.1,466.3 L 426.2,466.3 L 426.2,466.4 L 426.2,466.4 L 426.3,466.4 L 426.3,466.4 L 426.3,466.4 L 426.4,466.4 L 426.4,466.4 L 426.4,466.4 L 426.5,466.4 L 427.2,466.4 L 427.7,466.4 L 428.3,466.5 L 428.3,466.5 L 428.3,466.5 L 428.4,466.5 L 428.4,466.5 L 428.4,466.5 L 428.4,466.5 L 428.4,466.5 L 428.4,466.5 L 428.4,466.5 L 428.4,466.5 L 428.4,466.5 L 428.4,466.5 L 428.5,466.5 L 428.5,466.5 L 428.5,466.5 L 428.5,466.6 L 428.5,466.6 L 428.5,466.6 L 428.5,466.6 L 428.5,466.6 L 428.5,466.6 L 428.5,466.6 L 428.6,466.6 L 428.6,466.6 L 429.1,467.1 L 429.2,467.1 L 429.2,467.1 L 429.2,467.2 L 429.3,467.2 L 429.3,467.3 L 429.4,467.3 L 429.4,467.4 L 429.5,467.4 L 429.5,467.4 L 429.5,467.5 L 429.6,467.5 L 429.6,467.6 L 429.7,467.6 L 429.8,467.8 L 430.1,468.2 L 430.1,468.2 L 430.2,468.3 L 430.3,468.4 L 430.3,468.5 L 430.5,468.6 L 430.6,468.7 L 430.7,468.3 L 430.9,467.2 L 431.8,466.2 L 435.8,463.0 L 438.2,460.5 L 438.4,460.4 L 439.2,459.7 L 437.2,457.4 L 434.1,453.9 L 433.9,453.6 L 433.3,453.0 L 428.8,447.7 L 428.6,447.5 L 425.5,443.8 L 423.8,441.9 L 423.5,441.6 L 421.8,439.6 L 421.6,439.2 L 417.8,434.8 L 417.6,434.5 L 416.5,433.2 L 418.4,431.2 L 418.5,429.3 L 418.4,427.9 L 417.3,423.9 L 417.6,422.7 L 418.6,420.3 L 418.9,420.1 L 419.2,419.9 L 422.4,420.5 L 424.4,420.9 L 427.2,421.0 L 427.2,421.0 L 429.3,420.8 L 429.8,420.3 L 430.3,420.3 L 437.4,419.4 L 441.8,418.8 L 457.9,416.7 L 459.7,416.5 L 462.4,416.2 L 472.5,414.9 L 473.4,414.7 L 473.9,414.6 L 473.9,414.6 L 473.9,414.6 L 473.9,414.6 L 473.9,414.6 L 473.9,414.6 L 473.9,414.6 L 473.9,414.6 L 473.9,414.6 L 473.9,414.6 L 473.9,414.6 L 473.9,414.6 L 473.9,414.6 L 473.9,414.6 L 473.9,414.6 L 473.9,414.6 L 473.9,414.6 L 473.9,414.6 L 473.9,414.6 L 473.9,414.6 L 473.9,414.6 L 473.9,414.6 L 473.9,414.6 L 473.9,414.6 L 473.9,414.6 L 473.9,414.6 L 473.9,414.6 L 473.9,414.6 L 473.9,414.6 L 473.9,414.6 L 473.9,414.6 L 473.9,414.6 L 473.9,414.6 L 473.9,414.6 L 473.9,414.6 L 473.9,414.6 L 473.9,414.6 L 473.9,414.6 L 473.9,414.6 L 474.0,414.6 L 474.0,414.6 L 474.0,414.6 L 474.0,414.6 L 474.0,414.6 L 474.0,414.6 L 474.0,414.6 L 474.0,414.6 L 474.0,414.6 L 474.0,414.6 L 474.0,414.6 L 474.0,414.6 L 474.0,414.6 L 474.0,414.6 L 474.0,414.6 L 474.0,414.6 L 474.0,414.6 L 474.0,414.6 L 474.0,414.6 L 474.0,414.6 L 474.0,414.6 L 474.0,414.6 L 474.0,414.6 L 474.0,414.6 L 474.0,414.6 L 474.0,414.6 L 474.0,414.6 L 474.0,414.6 L 474.0,414.6 L 474.0,414.6 L 474.0,414.6 L 474.0,414.6 L 474.0,414.6 L 474.0,414.6 L 474.0,414.6 L 474.0,414.6 L 474.0,414.5 L 474.0,414.5 L 474.0,414.5 L 474.0,414.5 L 474.0,414.5 L 474.0,414.5 L 474.0,414.5 L 474.1,414.5 L 474.1,414.5 L 474.1,414.5 L 474.1,414.5 L 474.1,414.5 L 474.1,414.5 L 474.1,414.5 L 474.1,414.5 L 474.1,414.5 L 474.1,414.5 L 474.1,414.5 L 474.1,414.5 L 474.1,414.5 L 474.1,414.5 L 474.1,414.5 L 474.1,414.5 L 474.1,414.5 L 474.1,414.5 L 474.1,414.5 L 474.1,414.5 L 474.1,414.5 L 474.1,414.5 L 474.1,414.5 L 474.1,414.5 L 474.1,414.5 L 474.1,414.5 L 474.1,414.5 L 474.1,414.5 L 474.1,414.5 L 474.1,414.5 L 474.1,414.5 L 474.1,414.5 L 474.1,414.5 L 474.1,414.5 L 474.1,414.5 L 474.1,414.5 L 474.1,414.5 L 474.1,414.5 L 474.1,414.5 L 474.1,414.5 L 474.1,414.5 L 474.1,414.5 L 474.1,414.5 L 474.2,414.5 L 474.2,414.5 L 474.2,414.5 L 474.2,414.5 L 474.2,414.5 L 474.2,414.5 L 474.2,414.5 L 474.2,414.5 L 474.2,414.5 L 474.2,414.5 L 474.2,414.5 L 474.2,414.5 L 474.2,414.5 L 474.2,414.5 L 474.2,414.5 L 474.2,414.5 L 474.2,414.5 L 474.2,414.5 L 474.2,414.5 L 474.2,414.5 L 474.2,414.5 L 474.2,414.5 L 474.2,414.5 L 474.2,414.5 L 474.2,414.5 L 474.2,414.5 L 474.2,414.5 L 474.2,414.5 L 474.2,414.5 L 474.2,414.5 L 474.2,414.5 L 474.2,414.5 L 474.2,414.5 L 474.2,414.5 L 474.2,414.5 L 474.2,414.5 L 474.2,414.5 L 474.2,414.5 L 474.2,414.5 L 474.2,414.5 L 474.2,414.5 L 474.2,414.5 L 474.3,414.5 L 474.3,414.5 L 474.3,414.5 L 474.3,414.5 L 474.3,414.5 L 474.3,414.5 L 474.3,414.5 L 474.3,414.5 L 474.3,414.5 L 474.3,414.5 L 474.3,414.5 L 474.3,414.5 L 474.3,414.5 L 474.3,414.5 L 474.3,414.5 L 474.3,414.5 L 474.3,414.5 L 474.3,414.5 L 474.3,414.5 L 474.3,414.5 L 474.3,414.5 L 474.3,414.5 L 474.3,414.5 L 474.3,414.5 L 474.3,414.5 L 474.3,414.5 L 474.3,414.5 L 474.3,414.5 L 474.3,414.5 L 474.3,414.5 L 474.3,414.5 L 474.3,414.5 L 474.3,414.5 L 474.3,414.5 L 474.3,414.5 L 474.3,414.5 L 474.3,414.5 L 474.3,414.5 L 474.3,414.5 L 474.3,414.5 L 474.3,414.5 L 474.3,414.5 L 474.3,414.5 L 474.3,414.5 L 474.4,414.4 L 474.4,414.4 L 474.4,414.4 L 474.4,414.4 L 474.4,414.4 L 474.4,414.4 L 474.4,414.4 L 474.4,414.4 L 474.4,414.4 L 474.4,414.4 L 474.4,414.4 L 474.4,414.4 L 474.4,414.4 L 474.4,414.4 L 474.4,414.4 L 478.3,412.4 L 482.5,410.0 L 487.2,407.4 L 487.2,407.4 L 487.2,407.4 L 487.2,407.4 L 487.2,407.4 L 487.2,407.4 L 487.3,407.4 L 487.3,407.4 L 487.3,407.4 L 487.3,407.4 L 487.3,407.4 L 487.3,407.4 L 487.3,407.4 L 487.3,407.4 L 487.3,407.4 L 487.3,407.4 L 487.3,407.4 L 487.3,407.4 L 487.4,407.3 L 487.4,407.3 L 487.4,407.3 L 487.4,407.3 L 487.4,407.3 L 487.4,407.3 L 487.4,407.3 L 487.4,407.3 L 487.4,407.3 L 487.4,407.3 L 487.4,407.3 L 487.5,407.3 L 487.5,407.3 L 487.5,407.3 L 487.5,407.3 L 487.5,407.3 L 487.5,407.3 L 487.5,407.3 L 487.5,407.3 L 487.5,407.3 L 487.5,407.3 L 487.5,407.3 L 487.6,407.3 L 487.6,407.2 L 487.6,407.2 L 487.6,407.2 L 487.6,407.2 L 487.6,407.2 L 487.6,407.2 L 487.6,407.2 L 435.1,488.8 L 401.7,495.5 L 400.3,495.1 L 360.4,432.0 Z" class="poly" fill="#a8c8b0" data-short="21N02E18C003M" data-ma="South" data-base-year="2011" data-end-year="2025" data-span="14" data-area="5,244" data-rms-wells="21N02E18C003M" data-sy="0.1108" data-sy-source="SVSim" data-avg-dgwe="+0.90" data-cum-stor="+7,297" data-avg-rate="+521" data-critdry-share="61%" data-crit-share="37%" data-bucket-wet="+25,607" data-bucket-an="+1,593" data-bucket-bn="-10,396" data-bucket-dry="-5,309" data-bucket-critical="-4,198" data-hold="0" data-project="0" data-project-name="" data-coverage="+0" data-late="1"><title>Click for 21N02E18C003M detail</title></path>
<path d="M 332.9,537.5 L 381.1,550.8 L 393.7,571.1 L 385.2,608.0 L 385.1,604.4 L 384.9,604.0 L 384.9,604.0 L 384.9,604.0 L 383.6,603.9 L 377.2,603.9 L 377.1,603.9 L 376.8,603.8 L 369.0,603.7 L 368.1,603.4 L 362.7,603.4 L 357.0,603.5 L 356.7,603.6 L 356.2,603.6 L 356.0,603.6 L 354.0,603.6 L 351.7,603.5 L 350.5,603.7 L 348.9,604.2 L 348.7,604.5 L 348.2,605.4 L 347.9,605.9 L 347.2,605.9 L 346.6,605.9 L 346.4,606.0 L 343.7,606.1 L 341.0,606.0 L 340.6,606.1 L 340.2,606.3 L 338.5,607.7 L 338.2,607.8 L 337.4,607.9 L 336.7,608.2 L 336.0,608.5 L 336.0,609.0 L 336.0,609.9 L 336.0,610.0 L 336.1,610.2 L 336.1,610.3 L 336.2,612.3 L 336.2,613.2 L 335.6,613.2 L 331.9,613.2 L 324.4,613.3 L 324.0,613.3 L 323.5,613.2 L 323.3,613.0 L 323.3,611.9 L 323.3,609.0 L 323.2,604.5 L 323.3,603.1 L 323.2,594.2 L 323.2,591.5 L 323.1,590.8 L 323.1,589.7 L 323.0,587.0 L 323.1,585.2 L 323.0,585.0 L 323.0,584.6 L 323.0,582.7 L 323.0,579.0 L 323.0,578.6 L 323.0,578.6 L 323.0,578.6 L 322.7,578.6 L 320.9,578.6 L 314.7,578.6 L 310.7,578.8 L 292.4,579.0 L 292.2,579.0 L 292.0,579.0 L 286.3,579.0 L 286.0,579.1 L 285.8,579.3 L 283.3,579.3 L 332.9,537.5 Z M 261.7,597.6 L 261.8,604.6 L 253.4,604.7 L 261.7,597.6 Z" class="poly" fill="#f0d9a8" data-short="20N01E02H003M" data-ma="South" data-base-year="2002" data-end-year="2025" data-span="23" data-area="4,897" data-rms-wells="20N01E02H003M" data-sy="0.0690" data-sy-source="SVSim" data-avg-dgwe="-0.44" data-cum-stor="-3,429" data-avg-rate="-149" data-critdry-share="84%" data-crit-share="48%" data-bucket-wet="+7,933" data-bucket-an="+1,208" data-bucket-bn="+888" data-bucket-dry="-5,947" data-bucket-critical="-7,511" data-hold="149" data-project="0" data-project-name="" data-coverage="-149" data-late="1"><title>Click for 20N01E02H003M detail</title></path>
<path d="M 393.7,571.1 L 437.9,552.4 L 460.5,611.0 L 456.9,611.9 L 454.3,615.1 L 454.3,615.3 L 454.3,615.7 L 456.0,617.8 L 451.1,621.5 L 440.2,630.2 L 438.9,629.3 L 438.9,629.3 L 438.8,629.3 L 422.5,635.4 L 421.0,635.8 L 414.0,611.5 L 413.8,611.1 L 411.8,604.0 L 409.4,595.4 L 408.1,591.1 L 407.3,587.5 L 406.5,584.4 L 406.3,583.9 L 406.1,583.2 L 406.0,583.1 L 406.0,583.1 L 406.0,583.1 L 405.8,583.1 L 405.4,583.2 L 405.0,583.4 L 404.6,583.8 L 404.3,584.1 L 403.7,585.4 L 403.4,586.0 L 401.7,588.1 L 400.9,589.1 L 400.1,590.2 L 399.0,591.5 L 397.6,593.2 L 396.6,594.5 L 395.9,595.8 L 394.6,598.0 L 393.1,601.0 L 392.3,602.6 L 390.7,605.0 L 390.0,606.1 L 389.6,607.9 L 388.9,609.8 L 387.8,612.6 L 386.7,614.4 L 385.4,615.5 L 385.2,608.0 L 393.7,571.1 Z" class="poly" fill="#6b9479" data-short="20N02E08H003M" data-ma="South" data-base-year="2008" data-end-year="2025" data-span="17" data-area="3,457" data-rms-wells="20N02E08H003M" data-sy="0.0916" data-sy-source="SVSim" data-avg-dgwe="-0.38" data-cum-stor="-2,058" data-avg-rate="-121" data-critdry-share="69%" data-crit-share="17%" data-bucket-wet="+3,563" data-bucket-an="+285" data-bucket-bn="-1,077" data-bucket-dry="-3,879" data-bucket-critical="-950" data-hold="121" data-project="2,250" data-project-name="Conjunctive use (surface water replaces groundwater)" data-coverage="+2,129" data-late="1"><title>Click for 20N02E08H003M detail</title></path>
<path d="M 437.9,552.4 L 447.9,533.2 L 520.9,556.4 L 526.4,569.8 L 475.9,611.5 L 471.7,608.3 L 471.7,608.3 L 471.7,608.3 L 460.5,611.0 L 437.9,552.4 Z" class="poly" fill="#6b9479" data-short="20N02E09G001M" data-ma="South" data-base-year="2002" data-end-year="2024" data-span="22" data-area="4,210" data-rms-wells="20N02E09G001M" data-sy="0.0987" data-sy-source="SVSim" data-avg-dgwe="-0.56" data-cum-stor="-5,107" data-avg-rate="-232" data-critdry-share="92%" data-crit-share="43%" data-bucket-wet="+3,744" data-bucket-an="+1,342" data-bucket-bn="+1,138" data-bucket-dry="-6,829" data-bucket-critical="-4,503" data-hold="232" data-project="2,250" data-project-name="Conjunctive use (surface water replaces groundwater)" data-coverage="+2,018" data-late="1"><title>Click for 20N02E09G001M detail</title></path>
<path d="M 598.7,607.5 L 652.2,600.3 L 649.7,605.8 L 649.6,605.8 L 648.2,608.1 L 646.5,610.2 L 644.9,611.6 L 632.2,621.4 L 629.2,623.0 L 625.9,624.8 L 622.3,626.3 L 616.1,630.0 L 604.5,638.9 L 600.4,641.6 L 598.2,643.4 L 593.4,648.6 L 592.3,651.7 L 592.0,653.8 L 592.3,656.9 L 593.0,659.5 L 596.6,669.4 L 598.9,680.7 L 599.7,689.8 L 601.0,697.9 L 601.0,704.5 L 601.0,704.5 L 599.9,704.5 L 590.2,704.7 L 590.2,706.9 L 590.3,709.9 L 585.7,710.0 L 585.7,713.1 L 571.7,712.9 L 571.6,702.5 L 554.3,702.4 L 552.7,702.5 L 551.4,702.6 L 547.0,702.7 L 547.0,708.8 L 546.9,709.1 L 546.2,709.1 L 541.3,704.6 L 540.1,703.4 L 537.5,701.0 L 534.6,698.3 L 532.5,696.5 L 532.1,696.1 L 526.4,690.9 L 598.7,607.5 Z" class="poly" fill="#a8c8b0" data-short="20N03E33L001M" data-ma="South" data-base-year="2000" data-end-year="2025" data-span="25" data-area="5,186" data-rms-wells="20N03E33L001M" data-sy="0.1172" data-sy-source="SVSim" data-avg-dgwe="-0.69" data-cum-stor="-10,405" data-avg-rate="-416" data-critdry-share="69%" data-crit-share="40%" data-bucket-wet="+4,278" data-bucket-an="+322" data-bucket-bn="-3,670" data-bucket-dry="-4,590" data-bucket-critical="-6,745" data-hold="416" data-project="1,250" data-project-name="Conjunctive use (surface water replaces groundwater)" data-coverage="+834" data-late="1"><title>Click for 20N03E33L001M detail</title></path>
<path d="M 360.4,432.0 L 326.5,471.3 L 267.3,459.1 L 268.4,457.7 L 269.4,457.2 L 270.4,457.0 L 270.5,457.0 L 271.2,456.6 L 271.3,456.1 L 271.8,454.6 L 272.6,453.9 L 273.6,453.6 L 275.5,452.1 L 275.7,451.9 L 275.9,451.7 L 277.0,451.2 L 278.1,449.9 L 278.5,448.0 L 274.8,445.8 L 274.3,445.4 L 274.0,445.0 L 273.9,444.4 L 274.0,442.3 L 274.1,439.0 L 272.6,439.5 L 270.0,440.4 L 266.3,441.6 L 263.9,440.1 L 258.6,441.7 L 255.0,442.0 L 252.8,441.9 L 251.1,442.0 L 250.7,442.0 L 249.4,442.4 L 248.8,442.4 L 247.8,442.4 L 246.8,442.9 L 246.2,443.7 L 245.6,443.9 L 244.7,443.6 L 244.7,442.0 L 244.5,442.1 L 244.3,442.2 L 244.1,442.4 L 243.9,442.6 L 243.5,442.8 L 243.3,442.8 L 243.0,443.0 L 242.8,443.0 L 242.6,443.1 L 242.2,443.1 L 241.9,443.3 L 241.6,443.5 L 241.5,443.7 L 241.3,444.2 L 241.0,444.4 L 240.7,444.7 L 240.5,444.9 L 240.1,445.1 L 239.8,445.0 L 239.5,445.0 L 239.2,444.9 L 239.0,444.9 L 238.9,444.9 L 238.8,444.9 L 238.6,445.0 L 238.6,443.1 L 238.5,439.9 L 238.5,425.2 L 238.5,424.9 L 243.5,423.0 L 263.7,415.3 L 267.1,414.3 L 271.1,412.9 L 273.3,406.1 L 274.2,403.3 L 275.1,400.6 L 276.1,397.8 L 279.6,397.3 L 279.9,397.2 L 282.1,396.9 L 285.1,396.4 L 285.1,396.1 L 284.5,392.8 L 290.9,391.8 L 293.3,391.4 L 291.0,386.8 L 288.4,387.2 L 288.1,385.3 L 289.9,385.0 L 291.3,384.8 L 290.6,380.8 L 290.6,380.8 L 292.0,380.7 L 292.0,380.7 L 292.8,381.0 L 293.4,380.9 L 293.4,381.0 L 293.8,383.1 L 294.0,384.4 L 294.0,384.5 L 295.3,384.3 L 298.3,384.0 L 298.4,384.3 L 298.4,384.6 L 298.4,385.0 L 298.5,385.3 L 298.5,385.6 L 298.6,385.9 L 298.6,386.3 L 298.7,386.7 L 298.8,387.2 L 299.1,387.2 L 299.4,387.1 L 299.8,387.1 L 300.2,387.0 L 300.5,387.0 L 301.2,386.9 L 301.6,386.8 L 301.5,386.3 L 301.4,385.8 L 301.4,385.5 L 301.3,385.2 L 302.0,385.1 L 302.7,385.0 L 303.9,384.8 L 303.8,384.0 L 303.7,383.2 L 304.0,383.1 L 306.5,382.7 L 307.3,382.6 L 309.4,382.3 L 312.2,381.9 L 313.6,381.7 L 313.8,382.6 L 313.8,383.0 L 313.9,383.4 L 313.9,383.8 L 314.0,384.1 L 314.0,384.5 L 314.1,384.9 L 314.1,384.9 L 314.1,384.9 L 314.8,384.8 L 315.5,384.7 L 315.8,386.9 L 316.0,387.9 L 316.0,388.2 L 316.1,388.4 L 316.2,389.6 L 316.2,389.6 L 316.2,389.6 L 316.4,390.9 L 316.5,391.5 L 315.8,391.6 L 315.8,391.9 L 315.9,392.2 L 315.6,392.2 L 314.8,392.4 L 314.4,392.4 L 314.1,392.5 L 313.9,392.5 L 313.7,392.5 L 312.8,392.7 L 312.5,392.8 L 312.0,392.9 L 311.8,393.4 L 311.3,395.1 L 310.9,396.2 L 310.7,396.9 L 310.6,397.4 L 310.4,398.0 L 310.3,398.2 L 310.2,398.5 L 310.0,399.1 L 309.8,399.7 L 311.3,400.2 L 311.9,400.5 L 314.5,401.3 L 314.5,401.3 L 314.7,400.8 L 315.2,399.2 L 316.0,397.0 L 316.5,395.6 L 316.4,395.6 L 316.6,394.9 L 317.2,395.1 L 318.8,395.6 L 318.7,395.8 L 318.7,395.8 L 318.7,395.8 L 318.6,396.3 L 319.8,396.6 L 322.4,397.4 L 322.6,397.5 L 322.5,397.8 L 322.4,398.1 L 322.2,398.5 L 322.1,398.9 L 321.7,400.2 L 322.2,400.2 L 322.5,400.3 L 322.8,400.1 L 323.0,399.9 L 323.5,399.7 L 323.6,399.7 L 323.8,399.4 L 323.8,399.4 L 324.0,399.2 L 324.1,399.0 L 324.2,398.7 L 324.3,398.6 L 324.9,398.2 L 325.7,398.4 L 328.5,399.3 L 328.9,399.3 L 328.9,399.1 L 331.0,392.3 L 331.4,391.1 L 331.4,391.1 L 331.5,391.1 L 331.5,390.9 L 332.8,392.4 L 333.6,393.2 L 333.3,393.2 L 333.3,393.2 L 333.3,393.2 L 338.3,398.5 L 338.6,398.5 L 341.3,401.7 L 343.5,404.4 L 343.7,404.6 L 344.0,404.6 L 344.6,404.6 L 350.7,404.2 L 353.5,404.1 L 353.8,404.0 L 354.9,404.1 L 357.6,404.1 L 357.3,404.5 L 357.2,405.1 L 356.9,405.5 L 356.4,405.5 L 356.3,405.8 L 355.9,406.4 L 355.7,406.6 L 355.5,406.8 L 355.1,407.3 L 355.1,407.4 L 355.0,407.8 L 355.0,407.8 L 355.0,407.8 L 355.1,407.9 L 355.0,408.1 L 355.0,408.4 L 355.1,408.7 L 355.0,409.0 L 354.5,409.4 L 354.5,409.5 L 354.5,409.5 L 354.3,409.6 L 354.3,409.8 L 354.2,409.8 L 354.2,409.8 L 353.8,409.8 L 353.6,409.9 L 353.4,410.0 L 353.2,410.1 L 352.9,410.2 L 352.7,410.1 L 352.4,410.1 L 352.1,410.2 L 351.8,410.2 L 351.4,410.2 L 351.3,410.2 L 351.2,410.3 L 351.1,410.3 L 351.0,410.3 L 350.9,410.3 L 350.6,410.5 L 350.4,410.7 L 350.4,410.8 L 350.3,411.2 L 349.9,411.4 L 351.5,413.2 L 351.7,413.2 L 354.4,416.5 L 355.3,417.7 L 355.9,418.5 L 356.4,419.2 L 356.6,419.4 L 357.4,420.7 L 357.5,420.8 L 358.2,421.7 L 358.2,421.7 L 358.2,421.7 L 358.5,421.9 L 359.8,420.7 L 360.6,420.1 L 361.2,419.5 L 361.5,419.3 L 362.8,418.2 L 363.9,417.3 L 363.9,417.4 L 365.3,416.3 L 365.9,415.8 L 366.3,415.4 L 360.4,432.0 Z" class="poly" fill="#a8c8b0" data-short="21N01E10B003M" data-ma="South" data-base-year="1999" data-end-year="2025" data-span="26" data-area="6,650" data-rms-wells="21N01E10B003M" data-sy="0.0895" data-sy-source="SVSim" data-avg-dgwe="-0.84" data-cum-stor="-12,975" data-avg-rate="-499" data-critdry-share="84%" data-crit-share="40%" data-bucket-wet="+13,571" data-bucket-an="+4,345" data-bucket-bn="+1,458" data-bucket-dry="-16,874" data-bucket-critical="-15,475" data-hold="499" data-project="1,500" data-project-name="Comanche Creek recharge" data-coverage="+1,001" data-late=""><title>Click for 21N01E10B003M detail</title></path>
<path d="M 326.5,471.3 L 360.4,432.0 L 400.3,495.1 L 342.7,497.4 L 326.5,471.3 Z" class="poly" fill="#cb7740" data-short="21N01E13L004M" data-ma="South" data-base-year="2012" data-end-year="2025" data-span="13" data-area="2,713" data-rms-wells="21N01E13L004M" data-sy="0.0921" data-sy-source="SVSim" data-avg-dgwe="-4.00" data-cum-stor="-13,005" data-avg-rate="-1,000" data-critdry-share="97%" data-crit-share="28%" data-bucket-wet="+4,386" data-bucket-an="+2,265" data-bucket-bn="+1,417" data-bucket-dry="-15,004" data-bucket-critical="-6,069" data-hold="1,000" data-project="0" data-project-name="" data-coverage="-1,000" data-late="1"><title>Click for 21N01E13L004M detail</title></path>
<path d="M 342.7,497.4 L 400.3,495.1 L 401.7,495.5 L 381.1,550.8 L 332.9,537.5 L 342.7,497.4 Z" class="poly" fill="#f0d9a8" data-short="21N01E25K001M" data-ma="South" data-base-year="1999" data-end-year="2025" data-span="26" data-area="2,748" data-rms-wells="21N01E25K001M" data-sy="0.0845" data-sy-source="basin-mean fallback" data-avg-dgwe="-0.89" data-cum-stor="-5,386" data-avg-rate="-207" data-critdry-share="89%" data-crit-share="45%" data-bucket-wet="+6,872" data-bucket-an="+789" data-bucket-bn="-70" data-bucket-dry="-6,477" data-bucket-critical="-6,500" data-hold="207" data-project="0" data-project-name="" data-coverage="-207" data-late=""><title>Click for 21N01E25K001M detail</title></path>
<path d="M 283.3,579.3 L 283.3,579.3 L 261.3,579.5 L 261.4,588.9 L 261.4,591.5 L 261.7,592.8 L 261.7,597.6 L 253.4,604.7 L 244.5,604.7 L 244.4,597.7 L 243.1,532.9 L 214.7,542.6 L 214.4,541.8 L 213.3,535.9 L 213.2,530.3 L 221.4,529.2 L 224.8,526.5 L 224.8,517.6 L 224.9,511.6 L 225.1,505.3 L 231.7,505.4 L 243.2,505.6 L 243.5,505.6 L 243.6,505.6 L 243.7,497.8 L 243.8,481.4 L 243.8,480.6 L 246.3,480.6 L 246.7,469.6 L 249.3,467.6 L 252.4,465.1 L 253.2,464.3 L 254.6,463.2 L 255.1,462.7 L 256.8,461.3 L 257.2,460.8 L 260.6,459.7 L 261.0,460.1 L 264.1,459.2 L 265.1,459.6 L 265.8,459.6 L 266.1,459.7 L 266.3,459.7 L 266.4,459.5 L 266.7,459.6 L 267.0,459.5 L 267.3,459.1 L 326.5,471.3 L 342.7,497.4 L 332.9,537.5 L 283.3,579.3 Z" class="poly" fill="#e3a76f" data-short="21N01E27D001M" data-ma="South" data-base-year="1999" data-end-year="2025" data-span="26" data-area="10,825" data-rms-wells="21N01E27D001M" data-sy="0.0698" data-sy-source="SVSim" data-avg-dgwe="-0.76" data-cum-stor="-14,960" data-avg-rate="-575" data-critdry-share="79%" data-crit-share="45%" data-bucket-wet="+20,740" data-bucket-an="+1,662" data-bucket-bn="-793" data-bucket-dry="-15,640" data-bucket-critical="-20,929" data-hold="575" data-project="0" data-project-name="" data-coverage="-575" data-late=""><title>Click for 21N01E27D001M detail</title></path>
<path d="M 487.6,407.2 L 487.6,407.2 L 487.6,407.2 L 487.6,407.2 L 487.7,407.2 L 487.7,407.2 L 487.7,407.2 L 487.7,407.2 L 487.7,407.2 L 487.7,407.2 L 487.7,407.2 L 487.7,407.2 L 487.7,407.2 L 487.7,407.2 L 487.7,407.2 L 487.8,407.2 L 487.8,407.2 L 487.8,407.2 L 487.8,407.1 L 487.8,407.1 L 487.8,407.1 L 487.8,407.1 L 487.8,407.1 L 487.8,407.1 L 487.8,407.1 L 487.8,407.1 L 487.9,407.1 L 487.9,407.1 L 487.9,407.1 L 487.9,407.1 L 487.9,407.1 L 487.9,407.1 L 487.9,407.1 L 487.9,407.1 L 487.9,407.1 L 487.9,407.1 L 487.9,407.1 L 488.0,407.1 L 488.0,407.1 L 488.0,407.1 L 488.0,407.1 L 488.0,407.1 L 488.0,407.1 L 488.0,407.1 L 488.0,407.0 L 488.0,407.0 L 488.0,407.0 L 488.1,407.0 L 488.1,407.0 L 488.1,407.0 L 488.1,407.0 L 488.1,407.0 L 488.1,407.0 L 488.1,407.0 L 488.1,407.0 L 488.1,407.0 L 488.1,407.0 L 488.1,407.0 L 488.2,407.0 L 488.2,407.0 L 488.2,407.0 L 488.2,407.0 L 488.2,407.0 L 488.2,407.0 L 488.2,407.0 L 488.2,407.0 L 496.3,404.1 L 496.3,404.1 L 496.3,404.1 L 496.4,404.1 L 496.4,404.1 L 496.4,404.1 L 496.4,404.1 L 496.4,404.1 L 496.4,404.1 L 496.4,404.1 L 496.4,404.1 L 496.4,404.1 L 496.4,404.1 L 496.5,404.1 L 496.5,404.1 L 496.5,404.1 L 496.5,404.1 L 496.5,404.1 L 496.5,404.1 L 496.5,404.1 L 496.5,404.1 L 496.5,404.1 L 496.5,404.1 L 496.6,404.1 L 496.6,404.1 L 496.6,404.0 L 496.6,404.0 L 496.6,404.0 L 496.6,404.0 L 496.6,404.0 L 496.6,404.0 L 496.6,404.0 L 496.6,404.0 L 496.6,404.0 L 496.7,404.0 L 496.7,404.0 L 496.7,404.0 L 496.7,404.0 L 496.7,404.0 L 496.7,404.0 L 496.7,404.0 L 496.7,404.0 L 496.7,404.0 L 496.7,404.0 L 496.8,404.0 L 496.8,404.0 L 496.8,404.0 L 496.8,404.0 L 496.8,404.0 L 496.8,404.0 L 496.8,403.9 L 498.0,403.3 L 501.9,400.6 L 502.5,400.2 L 506.4,397.6 L 510.8,394.5 L 514.0,392.4 L 517.0,390.3 L 522.8,396.7 L 526.1,401.3 L 529.3,406.7 L 531.2,409.3 L 534.3,413.5 L 540.7,423.0 L 520.9,556.4 L 447.9,533.2 L 435.1,488.8 L 487.6,407.2 Z" class="poly" fill="#e3a76f" data-short="21N02E26E006M" data-ma="South" data-base-year="2008" data-end-year="2025" data-span="17" data-area="11,480" data-rms-wells="21N02E26E006M" data-sy="0.1066" data-sy-source="SVSim" data-avg-dgwe="-0.43" data-cum-stor="-8,863" data-avg-rate="-521" data-critdry-share="81%" data-crit-share="46%" data-bucket-wet="+3,493" data-bucket-an="+1,693" data-bucket-bn="+4,364" data-bucket-dry="-4,050" data-bucket-critical="-14,364" data-hold="521" data-project="0" data-project-name="" data-coverage="-521" data-late="1"><title>Click for 21N02E26E006M detail</title></path>
<path d="M 435.1,488.8 L 447.9,533.2 L 437.9,552.4 L 393.7,571.1 L 381.1,550.8 L 401.7,495.5 L 435.1,488.8 Z" class="poly" fill="#a8c8b0" data-short="21N02E32E001M" data-ma="South" data-base-year="2009" data-end-year="2025" data-span="16" data-area="3,692" data-rms-wells="21N02E32E001M" data-sy="0.0716" data-sy-source="SVSim" data-avg-dgwe="+0.00" data-cum-stor="+0" data-avg-rate="+0" data-critdry-share="75%" data-crit-share="58%" data-bucket-wet="+6,370" data-bucket-an="+648" data-bucket-bn="+330" data-bucket-dry="-1,652" data-bucket-critical="-5,696" data-hold="0" data-project="0" data-project-name="" data-coverage="+0" data-late="1"><title>Click for 21N02E32E001M detail</title></path>
<path d="M 598.7,607.5 L 526.4,569.8 L 520.9,556.4 L 540.7,423.0 L 541.3,423.8 L 548.5,436.2 L 556.1,446.4 L 565.8,457.9 L 572.8,466.8 L 576.5,471.8 L 580.8,477.7 L 585.0,483.1 L 589.4,488.6 L 591.5,491.7 L 593.7,495.0 L 598.1,500.5 L 599.8,502.2 L 600.6,503.1 L 601.5,503.9 L 603.1,505.3 L 607.2,508.7 L 609.9,511.3 L 620.0,521.5 L 631.3,534.3 L 634.5,538.0 L 636.0,539.2 L 639.5,541.7 L 641.8,542.7 L 642.9,542.9 L 655.1,542.9 L 659.0,544.2 L 661.6,545.4 L 663.6,546.9 L 665.8,549.1 L 668.3,553.0 L 670.0,558.0 L 669.5,563.1 L 668.5,565.9 L 667.3,568.1 L 666.1,569.8 L 663.5,571.8 L 661.0,573.6 L 657.7,576.6 L 655.0,580.4 L 653.6,582.2 L 653.6,588.0 L 654.2,593.6 L 654.1,594.8 L 652.7,599.2 L 652.2,600.3 L 598.7,607.5 Z" class="poly" fill="#f0d9a8" data-short="21N03E32B001M" data-ma="South" data-base-year="2000" data-end-year="2025" data-span="25" data-area="14,225" data-rms-wells="21N03E32B001M" data-sy="0.0752" data-sy-source="SVSim" data-avg-dgwe="-0.18" data-cum-stor="-4,921" data-avg-rate="-197" data-critdry-share="70%" data-crit-share="22%" data-bucket-wet="+1,051" data-bucket-an="+11" data-bucket-bn="-243" data-bucket-dry="-3,930" data-bucket-critical="-1,809" data-hold="197" data-project="0" data-project-name="" data-coverage="-197" data-late="1"><title>Click for 21N03E32B001M detail</title></path>
<circle class="well" cx="108.9" cy="273.7" r="3.0"/>
<text class="label" x="145.0" y="348.5">05M00</text>
<circle class="well" cx="248.0" cy="140.0" r="3.0"/>
<text class="label" x="288.1" y="134.3">07H00</text>
<circle class="well-project" cx="215.2" cy="256.4" r="4.2"/>
<text class="label" x="246.8" y="366.2">36P00</text>
<circle class="well" cx="69.1" cy="213.4" r="3.0"/>
<text class="label" x="42.2" y="194.3">25C00</text>
<circle class="well-project" cx="266.0" cy="228.6" r="4.2"/>
<text class="label" x="301.8" y="257.9">29P00</text>
<circle class="well" cx="178.9" cy="117.0" r="3.0"/>
<text class="label" x="184.5" y="121.1">03H00</text>
<circle class="well" cx="131.4" cy="139.5" r="3.0"/>
<text class="label" x="73.7" y="120.7">09E00</text>
<circle class="well" cx="155.8" cy="145.0" r="3.0"/>
<text class="label" x="154.1" y="165.1">10M00</text>
<circle class="well" cx="201.7" cy="180.9" r="3.0"/>
<text class="label" x="206.9" y="176.8">14R00</text>
<circle class="well" cx="166.0" cy="220.6" r="3.0"/>
<text class="label" x="165.8" y="217.1">27L00</text>
<circle class="well" cx="133.8" cy="219.3" r="3.0"/>
<text class="label" x="129.0" y="217.7">28M00</text>
<circle class="well" cx="83.2" cy="246.7" r="3.0"/>
<text class="label" x="66.7" y="251.1">31M00</text>
<circle class="well-project" cx="303.4" cy="234.9" r="4.2"/>
<text class="label" x="315.4" y="242.6">33A00</text>
<circle class="well" cx="267.1" cy="347.0" r="3.0"/>
<text class="label" x="367.6" y="396.9">20K00</text>
<circle class="well" cx="291.8" cy="282.9" r="3.0"/>
<text class="label" x="300.3" y="287.3">09B00</text>
<circle class="well-project" cx="515.8" cy="628.0" r="4.2"/>
<text class="label" x="502.8" y="652.5">24C00</text>
<circle class="well" cx="390.8" cy="454.6" r="3.0"/>
<text class="label" x="448.6" y="427.9">18C00</text>
<circle class="well" cx="357.5" cy="568.6" r="3.0"/>
<text class="label" x="334.3" y="596.9">02H00</text>
<circle class="well-project" cx="427.2" cy="584.7" r="4.2"/>
<text class="label" x="411.7" y="600.1">08H00</text>
<circle class="well-project" cx="467.4" cy="569.1" r="4.2"/>
<text class="label" x="472.3" y="581.2">09G00</text>
<circle class="well-project" cx="589.8" cy="692.8" r="4.2"/>
<text class="label" x="588.9" y="669.7">33L00</text>
<circle class="well-project" cx="322.5" cy="430.0" r="4.2"/>
<text class="label" x="308.8" y="409.2">10B00</text>
<circle class="well" cx="367.8" cy="469.2" r="3.0"/>
<text class="label" x="351.3" y="473.4">13L00</text>
<circle class="well" cx="369.9" cy="523.4" r="3.0"/>
<text class="label" x="366.9" y="512.3">25K00</text>
<circle class="well" cx="306.5" cy="507.8" r="3.0"/>
<text class="label" x="255.0" y="510.0">27D00</text>
<circle class="well" cx="484.4" cy="515.2" r="3.0"/>
<text class="label" x="493.7" y="408.1">26E00</text>
<circle class="well" cx="407.4" cy="537.5" r="3.0"/>
<text class="label" x="418.9" y="525.8">32E00</text>
<circle class="well" cx="567.7" cy="527.6" r="3.0"/>
<text class="label" x="620.1" y="532.7">32B00</text>
<g transform="translate(16,730)">
<rect class="legend-bg" x="-8" y="-22" width="715" height="86"/>
<text class="legend-title" x="0" y="-6">Coverage after project portfolio (AF/yr): project allocation − polygon avg loss</text>
<text class="legend-text" x="0" y="9" font-style="italic" font-size="9.5" fill="#5b5547">greens = surplus / covered  ·  oranges → reds = shortfall by AF/yr</text>
<rect x="10.0" y="18" width="56" height="18" fill="#6b9479" stroke="#332e22" stroke-width="0.4"/>
<text class="legend-text" x="38.0" y="48" text-anchor="middle">Surplus</text>
<rect x="86.0" y="18" width="56" height="18" fill="#a8c8b0" stroke="#332e22" stroke-width="0.4"/>
<text class="legend-text" x="114.0" y="48" text-anchor="middle">Covered</text>
<rect x="162.0" y="18" width="56" height="18" fill="#f0d9a8" stroke="#332e22" stroke-width="0.4"/>
<text class="legend-text" x="190.0" y="48" text-anchor="middle">Near</text>
<rect x="238.0" y="18" width="56" height="18" fill="#e3a76f" stroke="#332e22" stroke-width="0.4"/>
<text class="legend-text" x="266.0" y="48" text-anchor="middle">Short <750</text>
<rect x="314.0" y="18" width="56" height="18" fill="#cb7740" stroke="#332e22" stroke-width="0.4"/>
<text class="legend-text" x="342.0" y="48" text-anchor="middle">Short <1.5k</text>
<rect x="390.0" y="18" width="56" height="18" fill="#a84a2c" stroke="#332e22" stroke-width="0.4"/>
<text class="legend-text" x="418.0" y="48" text-anchor="middle">Short <2.5k</text>
<rect x="466.0" y="18" width="56" height="18" fill="#7c2820" stroke="#332e22" stroke-width="0.4"/>
<text class="legend-text" x="494.0" y="48" text-anchor="middle">Short ≥2.5k</text>
<circle cx="548" cy="22" r="3"/>
<text class="legend-text" x="558" y="26">2026 GWL RMS well</text>
<circle class="well-project" cx="548" cy="38" r="4.2"/>
<text class="legend-text" x="558" y="42">RMS well + project</text>
</g>
</svg>