<svg xmlns="http://www.w3.org/2000/svg" viewBox="0 0 700 820" style="background:#fafaf7;font-family:ui-sans-serif,system-ui;width:100%;height:auto;display:block;">
<defs><style>.poly{stroke:#5b5547;stroke-width:0.7;cursor:pointer;}.poly:hover{stroke-width:2;filter:brightness(1.05);}.well{fill:#1f1f1f;pointer-events:none;}.well-project{fill:#1f3a5f;stroke:#fafaf7;stroke-width:1.2;pointer-events:none;}.label{font-size:8.5px;fill:#332e22;text-anchor:middle;font-weight:500;pointer-events:none;}.title{font-size:13px;font-weight:700;fill:#1a1612;text-anchor:middle;}.subtitle{font-size:11px;fill:#5b5547;text-anchor:middle;font-style:italic;}.legend-text{font-size:10.5px;fill:#332e22;}.legend-title{font-size:11px;font-weight:700;fill:#1a1612;}.legend-bg{fill:#fafaf7;fill-opacity:0.97;stroke:#cfc9b8;stroke-width:0.6;}</style></defs>
<text class="title" x="350.0" y="18">Vina 2027 BC RMS network (28 polygons) — Coverage status after project portfolio (target 2032)</text>
<text class="subtitle" x="350.0" y="32">Click any polygon for detail. Color = project allocation minus polygon avg loss rate (AF/yr).</text>
<path d="M 173.9,340.1 L 168.7,351.4 L 168.1,351.3 L 167.6,351.5 L 166.7,351.8 L 165.4,352.5 L 163.5,353.6 L 162.5,354.4 L 161.7,355.2 L 161.1,356.3 L 160.9,357.6 L 160.9,359.0 L 161.1,360.5 L 161.4,362.2 L 161.6,363.9 L 161.5,365.2 L 161.0,366.3 L 160.4,367.1 L 159.5,367.8 L 158.3,368.2 L 157.4,368.1 L 156.4,367.8 L 155.2,367.6 L 153.6,367.3 L 152.6,367.0 L 151.4,366.6 L 150.2,366.2 L 147.8,365.4 L 146.6,365.2 L 145.0,364.3 L 144.0,363.2 L 143.3,362.1 L 142.7,360.8 L 142.1,359.9 L 141.5,358.8 L 140.7,357.1 L 139.9,355.8 L 139.0,354.1 L 138.1,352.2 L 136.8,349.7 L 135.7,347.8 L 134.7,346.2 L 133.5,344.5 L 132.3,342.8 L 130.7,341.1 L 128.1,337.8 L 128.1,337.7 L 126.2,335.4 L 123.6,332.7 L 120.3,329.3 L 118.1,327.3 L 116.0,325.7 L 113.2,324.0 L 110.0,321.8 L 104.1,319.5 L 100.0,318.2 L 97.1,315.5 L 94.9,312.8 L 92.1,309.8 L 88.4,304.5 L 86.4,301.4 L 84.5,297.6 L 82.3,294.0 L 81.6,292.8 L 79.4,289.0 L 78.7,286.6 L 79.6,284.9 L 81.2,282.4 L 82.8,279.7 L 83.7,278.6 L 84.7,277.4 L 86.8,274.8 L 87.9,271.8 L 88.6,266.9 L 113.6,243.0 L 147.9,258.7 L 163.4,275.4 L 173.9,340.1 Z" class="poly" fill="#a8c8b0" data-short="22N01W05M001M" data-ma="North" data-base-year="1999" data-end-year="2025" data-span="26" data-area="7,047" data-rms-wells="22N01W05M001M" data-sy="0.0825" data-sy-source="SVSim" data-avg-dgwe="+0.00" data-cum-stor="+0" data-avg-rate="+0" data-critdry-share="82%" data-crit-share="39%" data-bucket-wet="+2,975" data-bucket-an="+4,264" data-bucket-bn="-775" data-bucket-dry="-3,362" data-bucket-critical="-3,101" data-hold="0" data-project="0" data-project-name="" data-coverage="+0" data-late=""><title>Click for 22N01W05M001M detail</title></path>
<path d="M 293.6,176.7 L 247.3,186.1 L 208.5,142.2 L 219.9,107.8 L 228.8,107.8 L 254.6,107.8 L 279.7,107.4 L 316.6,106.7 L 316.6,106.7 L 324.9,118.2 L 332.2,130.2 L 336.1,137.8 L 337.7,141.9 L 341.1,148.9 L 293.6,176.7 Z" class="poly" fill="#e3a76f" data-short="23N01E07H001M" data-ma="North" data-base-year="2019" data-end-year="2025" data-span="6" data-area="7,823" data-rms-wells="23N01E07H001M" data-sy="0.0935" data-sy-source="SVSim" data-avg-dgwe="-0.57" data-cum-stor="-2,487" data-avg-rate="-414" data-critdry-share="86%" data-crit-share="70%" data-bucket-wet="+73" data-bucket-an="+878" data-bucket-bn="+0" data-bucket-dry="-622" data-bucket-critical="-2,816" data-hold="414" data-project="0" data-project-name="" data-coverage="-414" data-late="1"><title>Click for 23N01E07H001M detail</title></path>
<path d="M 280.6,254.7 L 293.6,176.7 L 341.1,148.9 L 345.6,158.2 L 349.8,166.1 L 353.4,172.9 L 354.2,174.3 L 360.1,186.9 L 362.0,190.6 L 367.9,200.2 L 378.1,211.4 L 387.0,222.4 L 392.1,229.5 L 400.0,242.2 L 411.7,256.0 L 419.5,268.2 L 423.4,273.2 L 425.7,275.7 L 432.3,281.6 L 434.4,284.0 L 438.1,287.6 L 444.4,292.9 L 446.8,295.0 L 446.8,295.0 L 280.6,254.7 Z" class="poly" fill="#a8c8b0" data-short="23N01E33A001M" data-ma="North" data-base-year="2003" data-end-year="2025" data-span="22" data-area="11,053" data-rms-wells="23N01E33A001M" data-sy="0.0791" data-sy-source="SVSim" data-avg-dgwe="-0.67" data-cum-stor="-12,808" data-avg-rate="-582" data-critdry-share="81%" data-crit-share="63%" data-bucket-wet="+5,893" data-bucket-an="-2,920" data-bucket-bn="+5,071" data-bucket-dry="-3,672" data-bucket-critical="-17,180" data-hold="582" data-project="2,000" data-project-name="Recharge project" data-coverage="+1,418" data-late="1"><title>Click for 23N01E33A001M detail</title></path>
<path d="M 204.1,219.2 L 225.6,215.4 L 253.9,267.5 L 242.5,300.7 L 173.9,340.1 L 163.4,275.4 L 204.1,219.2 Z" class="poly" fill="#6b9479" data-short="23N01W36P001M" data-ma="North" data-base-year="1999" data-end-year="2025" data-span="26" data-area="7,088" data-rms-wells="23N01W36P001M" data-sy="0.0607" data-sy-source="SVSim" data-avg-dgwe="-0.45" data-cum-stor="-4,991" data-avg-rate="-192" data-critdry-share="80%" data-crit-share="29%" data-bucket-wet="+16,974" data-bucket-an="+1,334" data-bucket-bn="-2,044" data-bucket-dry="-14,543" data-bucket-critical="-6,712" data-hold="192" data-project="2,000" data-project-name="Rock Creek recharge" data-coverage="+1,808" data-late=""><title>Click for 23N01W36P001M detail</title></path>
<path d="M 104.3,180.1 L 100.8,219.3 L 46.9,242.2 L 46.6,242.0 L 45.3,240.8 L 44.8,240.4 L 44.4,240.2 L 42.8,238.8 L 42.4,238.4 L 42.1,238.0 L 41.7,237.4 L 41.0,236.6 L 40.6,236.1 L 39.8,235.3 L 39.4,235.0 L 39.0,234.8 L 38.8,234.5 L 38.5,234.3 L 37.7,233.7 L 37.3,233.3 L 36.8,233.1 L 36.4,232.8 L 36.0,232.4 L 35.3,230.9 L 35.2,230.4 L 35.1,230.0 L 35.0,229.3 L 35.0,228.8 L 35.1,228.3 L 35.2,227.9 L 35.5,227.4 L 35.9,226.9 L 36.2,226.5 L 36.5,226.2 L 36.9,225.8 L 37.6,225.3 L 37.9,225.1 L 39.0,224.4 L 39.6,224.0 L 40.3,223.3 L 40.9,222.7 L 41.6,221.9 L 42.3,221.0 L 42.8,220.3 L 43.1,219.5 L 43.4,218.7 L 43.6,217.4 L 43.8,216.1 L 44.2,214.2 L 44.4,213.7 L 44.6,213.2 L 44.8,212.6 L 45.8,210.7 L 46.2,209.9 L 46.5,209.2 L 46.7,208.6 L 46.8,208.1 L 46.9,207.2 L 46.9,206.1 L 46.9,205.1 L 46.9,204.6 L 46.7,203.8 L 46.5,203.2 L 46.3,202.8 L 46.0,202.3 L 45.7,201.9 L 45.3,201.3 L 44.2,200.4 L 43.9,200.0 L 43.3,199.5 L 42.4,199.1 L 41.8,198.7 L 41.3,198.4 L 40.7,198.1 L 40.2,197.8 L 39.8,197.5 L 38.5,196.6 L 38.2,196.3 L 37.4,195.3 L 36.8,194.4 L 36.3,193.6 L 35.4,192.6 L 35.0,192.1 L 34.4,191.5 L 34.1,191.1 L 33.7,190.7 L 33.3,190.2 L 32.6,189.1 L 32.3,188.4 L 31.8,187.6 L 31.4,186.6 L 31.2,186.3 L 31.0,185.9 L 30.7,185.0 L 30.5,184.6 L 30.3,183.7 L 30.0,182.8 L 30.0,182.4 L 30.0,181.4 L 30.1,180.9 L 30.2,180.4 L 30.3,180.1 L 31.2,178.3 L 32.0,177.2 L 32.3,176.6 L 33.4,175.3 L 33.8,174.7 L 34.2,174.3 L 34.6,173.7 L 35.4,172.7 L 35.8,172.2 L 36.5,171.6 L 36.9,171.4 L 37.2,171.1 L 37.9,170.8 L 38.4,170.6 L 39.1,170.1 L 39.6,169.7 L 40.0,169.6 L 40.9,168.9 L 41.3,168.4 L 42.2,167.4 L 43.0,166.4 L 43.3,165.9 L 44.1,164.8 L 44.6,163.9 L 44.9,163.3 L 45.2,162.9 L 45.5,162.3 L 46.1,161.0 L 46.1,160.7 L 46.8,158.8 L 47.0,158.5 L 47.6,156.9 L 47.7,156.3 L 48.1,155.0 L 48.1,154.6 L 48.3,152.4 L 48.2,151.8 L 48.2,151.3 L 48.0,149.5 L 47.9,149.1 L 47.7,148.3 L 47.4,147.3 L 47.2,145.9 L 47.2,144.7 L 47.2,144.3 L 47.4,142.8 L 47.7,142.0 L 48.3,140.8 L 49.7,139.2 L 50.0,138.8 L 51.2,137.5 L 52.4,136.3 L 52.4,136.2 L 104.3,180.1 Z" class="poly" fill="#a8c8b0" data-short="23N02W25C001M" data-ma="North" data-base-year="1999" data-end-year="2025" data-span="26" data-area="4,902" data-rms-wells="23N02W25C001M" data-sy="0.0868" data-sy-source="basin-mean fallback" data-avg-dgwe="+0.18" data-cum-stor="+1,957" data-avg-rate="+75" data-critdry-share="52%" data-crit-share="25%" data-bucket-wet="+10,061" data-bucket-an="+3,829" data-bucket-bn="-5,573" data-bucket-dry="-3,531" data-bucket-critical="-2,829" data-hold="0" data-project="0" data-project-name="" data-coverage="+0" data-late=""><title>Click for 23N02W25C001M detail</title></path>
<path d="M 225.6,215.4 L 247.3,186.1 L 293.6,176.7 L 280.6,254.7 L 253.9,267.5 L 225.6,215.4 Z" class="poly" fill="#6b9479" data-short="23N01E29P002M" data-ma="North" data-base-year="1999" data-end-year="2025" data-span="26" data-area="3,968" data-rms-wells="23N01E29P002M" data-sy="0.0868" data-sy-source="basin-mean fallback" data-avg-dgwe="-0.67" data-cum-stor="-5,993" data-avg-rate="-230" data-critdry-share="82%" data-crit-share="40%" data-bucket-wet="+8,008" data-bucket-an="+499" data-bucket-bn="-327" data-bucket-dry="-7,215" data-bucket-critical="-6,957" data-hold="230" data-project="2,000" data-project-name="Rock Creek recharge" data-coverage="+1,770" data-late=""><title>Click for 23N01E29P002M detail</title></path>
<path d="M 149.1,116.0 L 145.0,107.5 L 153.9,107.5 L 179.2,107.8 L 203.8,107.9 L 219.9,107.8 L 208.5,142.2 L 189.2,149.0 L 149.1,116.0 Z" class="poly" fill="#f0d9a8" data-short="23N01W03H004M" data-ma="North" data-base-year="2012" data-end-year="2025" data-span="13" data-area="1,997" data-rms-wells="23N01W03H004M" data-sy="0.1098" data-sy-source="SVSim" data-avg-dgwe="-0.34" data-cum-stor="-965" data-avg-rate="-74" data-critdry-share="58%" data-crit-share="45%" data-bucket-wet="+1,706" data-bucket-an="+535" data-bucket-bn="-1,250" data-bucket-dry="-662" data-bucket-critical="-1,294" data-hold="74" data-project="0" data-project-name="" data-coverage="-74" data-late="1"><title>Click for 23N01W03H004M detail</title></path>
<path d="M 149.1,116.0 L 135.0,179.2 L 104.3,180.1 L 52.4,136.2 L 53.2,135.5 L 54.3,134.4 L 54.7,134.0 L 55.0,133.7 L 55.9,132.6 L 56.2,132.4 L 56.9,131.4 L 57.4,130.9 L 57.7,130.4 L 58.2,129.7 L 58.6,129.0 L 60.5,126.3 L 60.7,125.9 L 60.9,125.3 L 61.2,124.8 L 61.3,124.6 L 61.3,124.6 L 61.7,123.8 L 62.0,123.4 L 62.5,122.5 L 62.6,122.3 L 63.1,121.1 L 63.3,120.4 L 63.6,119.8 L 64.3,118.6 L 65.9,116.9 L 67.0,115.3 L 67.3,114.7 L 67.6,113.9 L 67.7,113.6 L 67.7,112.9 L 67.6,111.9 L 67.6,111.9 L 67.5,111.4 L 67.4,110.9 L 67.2,110.5 L 67.2,110.5 L 66.8,109.9 L 66.8,109.9 L 66.0,108.9 L 66.0,108.9 L 65.9,108.8 L 65.9,108.8 L 65.1,108.3 L 65.1,108.3 L 61.8,106.9 L 61.8,106.9 L 82.0,107.0 L 120.3,107.4 L 120.3,107.3 L 120.3,107.3 L 129.2,107.4 L 145.0,107.5 L 149.1,116.0 Z" class="poly" fill="#f0d9a8" data-short="23N01W09E001M" data-ma="North" data-base-year="1999" data-end-year="2025" data-span="26" data-area="5,285" data-rms-wells="23N01W09E001M" data-sy="0.0821" data-sy-source="SVSim" data-avg-dgwe="-0.11" data-cum-stor="-1,215" data-avg-rate="-47" data-critdry-share="70%" data-crit-share="14%" data-bucket-wet="+15,099" data-bucket-an="+2,148" data-bucket-bn="-4,534" data-bucket-dry="-11,585" data-bucket-critical="-2,343" data-hold="47" data-project="0" data-project-name="" data-coverage="-47" data-late=""><title>Click for 23N01W09E001M detail</title></path>
<path d="M 151.0,183.9 L 135.0,179.2 L 149.1,116.0 L 189.2,149.0 L 163.1,182.3 L 151.0,183.9 Z" class="poly" fill="#f0d9a8" data-short="23N01W10M001M" data-ma="North" data-base-year="2002" data-end-year="2025" data-span="23" data-area="2,110" data-rms-wells="23N01W10M001M" data-sy="0.0797" data-sy-source="SVSim" data-avg-dgwe="-0.10" data-cum-stor="-384" data-avg-rate="-17" data-critdry-share="70%" data-crit-share="35%" data-bucket-wet="+4,607" data-bucket-an="+771" data-bucket-bn="-883" data-bucket-dry="-2,561" data-bucket-critical="-2,319" data-hold="17" data-project="0" data-project-name="" data-coverage="-17" data-late="1"><title>Click for 23N01W10M001M detail</title></path>
<path d="M 189.2,149.0 L 208.5,142.2 L 247.3,186.1 L 225.6,215.4 L 204.1,219.2 L 163.1,182.3 L 189.2,149.0 Z" class="poly" fill="#f0d9a8" data-short="23N01W14R002M" data-ma="North" data-base-year="1999" data-end-year="2025" data-span="26" data-area="3,865" data-rms-wells="23N01W14R002M" data-sy="0.0594" data-sy-source="SVSim" data-avg-dgwe="-0.57" data-cum-stor="-3,421" data-avg-rate="-132" data-critdry-share="79%" data-crit-share="48%" data-bucket-wet="+2,614" data-bucket-an="+719" data-bucket-bn="-555" data-bucket-dry="-2,342" data-bucket-critical="-3,857" data-hold="132" data-project="0" data-project-name="" data-coverage="-132" data-late=""><title>Click for 23N01W14R002M detail</title></path>
<path d="M 147.9,258.7 L 151.0,183.9 L 163.1,182.3 L 204.1,219.2 L 163.4,275.4 L 147.9,258.7 Z" class="poly" fill="#f0d9a8" data-short="23N01W27L001M" data-ma="North" data-base-year="1999" data-end-year="2025" data-span="26" data-area="3,166" data-rms-wells="23N01W27L001M" data-sy="0.0675" data-sy-source="SVSim" data-avg-dgwe="-0.18" data-cum-stor="-983" data-avg-rate="-38" data-critdry-share="73%" data-crit-share="29%" data-bucket-wet="+8,306" data-bucket-an="+1,146" data-bucket-bn="-1,955" data-bucket-dry="-5,552" data-bucket-critical="-2,928" data-hold="38" data-project="0" data-project-name="" data-coverage="-38" data-late=""><title>Click for 23N01W27L001M detail</title></path>
<path d="M 113.6,243.0 L 100.8,219.3 L 104.3,180.1 L 135.0,179.2 L 151.0,183.9 L 147.9,258.7 L 113.6,243.0 Z" class="poly" fill="#a8c8b0" data-short="23N01W28M004M" data-ma="North" data-base-year="2009" data-end-year="2025" data-span="16" data-area="3,227" data-rms-wells="23N01W28M004M" data-sy="0.0950" data-sy-source="SVSim" data-avg-dgwe="+0.11" data-cum-stor="+545" data-avg-rate="+34" data-critdry-share="59%" data-crit-share="32%" data-bucket-wet="+8,898" data-bucket-an="+1,198" data-bucket-bn="-4,084" data-bucket-dry="-2,701" data-bucket-critical="-2,765" data-hold="0" data-project="0" data-project-name="" data-coverage="+0" data-late="1"><title>Click for 23N01W28M004M detail</title></path>
<path d="M 100.8,219.3 L 113.6,243.0 L 88.6,266.9 L 88.6,266.7 L 89.1,262.6 L 89.9,257.9 L 90.0,254.7 L 88.6,252.4 L 86.6,250.9 L 83.4,250.8 L 79.2,251.7 L 75.1,253.7 L 73.3,255.1 L 73.6,257.4 L 74.0,258.7 L 74.2,260.3 L 72.9,262.0 L 70.9,263.2 L 69.3,263.9 L 68.0,263.4 L 66.1,262.3 L 64.6,260.3 L 62.1,257.5 L 60.1,255.4 L 59.9,255.2 L 59.6,254.6 L 59.5,254.3 L 58.8,253.1 L 58.5,252.6 L 58.1,251.7 L 57.9,251.3 L 57.7,250.7 L 57.5,250.3 L 57.2,249.8 L 57.0,249.0 L 56.7,248.5 L 56.5,248.2 L 56.0,246.6 L 55.8,246.1 L 55.6,245.8 L 55.4,245.6 L 55.2,245.6 L 54.5,245.3 L 54.1,245.3 L 53.9,245.2 L 53.4,245.3 L 52.9,245.3 L 51.8,245.3 L 51.5,245.2 L 50.7,245.0 L 50.1,244.6 L 48.8,243.7 L 47.5,242.6 L 46.9,242.2 L 100.8,219.3 Z" class="poly" fill="#a8c8b0" data-short="23N01W31M004M" data-ma="North" data-base-year="2009" data-end-year="2024" data-span="15" data-area="1,575" data-rms-wells="23N01W31M004M" data-sy="0.0864" data-sy-source="SVSim" data-avg-dgwe="+0.05" data-cum-stor="+104" data-avg-rate="+7" data-critdry-share="55%" data-crit-share="21%" data-bucket-wet="+2,368" data-bucket-an="+75" data-bucket-bn="-1,065" data-bucket-dry="-926" data-bucket-critical="-349" data-hold="0" data-project="0" data-project-name="" data-coverage="+0" data-late="1"><title>Click for 23N01W31M004M detail</title></path>
<path d="M 358.4,345.6 L 292.3,390.0 L 291.5,388.3 L 291.5,388.3 L 290.7,386.7 L 290.7,386.7 L 289.9,386.9 L 288.2,387.2 L 287.9,385.3 L 289.6,385.0 L 291.0,384.8 L 291.0,384.8 L 291.0,384.8 L 291.0,384.7 L 290.9,384.0 L 290.4,380.8 L 290.4,380.8 L 290.3,380.8 L 290.3,380.8 L 290.2,380.7 L 290.2,380.7 L 290.2,380.7 L 290.1,380.7 L 290.1,380.7 L 290.0,380.7 L 290.0,380.7 L 289.9,380.7 L 289.9,380.6 L 289.8,380.6 L 289.8,380.6 L 289.8,380.6 L 289.8,380.6 L 289.7,380.6 L 289.7,380.6 L 289.7,380.6 L 289.7,380.6 L 289.6,380.6 L 289.6,380.6 L 289.6,380.6 L 289.5,380.6 L 289.5,380.6 L 289.5,380.6 L 289.4,380.7 L 289.3,380.7 L 289.3,380.7 L 289.2,380.7 L 289.2,380.7 L 289.2,380.8 L 289.1,380.8 L 289.0,380.8 L 288.9,380.8 L 288.9,380.8 L 288.9,380.9 L 288.8,380.9 L 288.8,380.9 L 288.8,380.9 L 288.7,380.9 L 288.6,380.9 L 288.4,380.7 L 288.4,380.7 L 288.4,380.7 L 288.4,380.7 L 288.4,380.7 L 288.4,380.7 L 288.4,380.7 L 288.3,380.6 L 288.3,380.6 L 288.2,380.5 L 288.2,380.5 L 288.1,380.4 L 288.1,380.4 L 288.0,380.3 L 288.0,380.3 L 287.8,380.2 L 287.8,380.2 L 287.7,380.1 L 287.7,380.1 L 287.5,380.0 L 287.5,380.0 L 287.1,379.8 L 287.1,379.8 L 287.0,379.8 L 287.0,379.8 L 286.9,379.7 L 286.9,379.7 L 286.8,379.6 L 286.8,379.6 L 286.6,379.5 L 286.6,379.5 L 286.1,379.1 L 286.1,379.1 L 286.0,379.1 L 286.0,379.1 L 285.9,379.0 L 285.9,379.0 L 285.8,379.0 L 285.8,379.0 L 285.6,378.8 L 285.6,378.8 L 285.5,378.7 L 285.5,378.7 L 285.4,378.7 L 285.4,378.7 L 285.2,378.6 L 285.2,378.6 L 285.1,378.5 L 285.1,378.5 L 285.0,378.5 L 284.9,378.5 L 284.8,378.5 L 284.7,378.4 L 284.5,378.4 L 284.4,378.5 L 284.2,378.5 L 284.1,378.4 L 284.0,378.4 L 284.0,378.4 L 283.9,378.3 L 283.9,378.3 L 283.8,378.8 L 282.1,378.2 L 282.1,378.2 L 282.5,377.2 L 282.4,377.1 L 282.4,377.1 L 282.4,377.0 L 282.4,376.9 L 282.3,376.8 L 282.3,376.8 L 282.3,376.8 L 282.2,376.6 L 282.2,376.6 L 282.1,376.5 L 282.1,376.5 L 281.9,376.3 L 281.9,376.3 L 281.6,376.2 L 281.6,376.2 L 281.3,376.1 L 281.3,376.1 L 281.2,376.0 L 281.2,376.0 L 281.1,375.9 L 281.1,375.9 L 281.1,375.9 L 281.1,375.9 L 281.0,375.9 L 281.0,375.9 L 281.0,375.8 L 281.0,375.8 L 280.9,375.8 L 280.9,375.8 L 280.8,375.8 L 280.7,375.8 L 280.5,375.7 L 280.4,375.7 L 280.4,375.7 L 280.4,375.7 L 280.3,375.7 L 280.3,375.7 L 280.2,375.7 L 280.0,375.7 L 280.0,375.7 L 279.9,375.6 L 279.9,375.6 L 279.9,375.6 L 279.9,375.6 L 279.8,375.6 L 279.8,375.6 L 279.7,375.5 L 279.7,375.5 L 279.7,375.4 L 279.7,375.4 L 279.5,375.3 L 279.5,375.3 L 279.4,375.2 L 279.4,375.2 L 279.3,375.1 L 279.3,375.1 L 279.2,375.0 L 279.2,375.0 L 279.0,374.8 L 279.0,374.8 L 279.0,374.8 L 279.0,374.8 L 278.9,374.7 L 278.9,374.7 L 278.8,374.7 L 278.7,374.7 L 278.6,374.6 L 278.5,374.6 L 278.5,374.6 L 278.4,374.6 L 278.4,374.6 L 278.3,374.6 L 278.1,374.7 L 277.9,374.8 L 277.8,374.9 L 277.7,375.0 L 277.4,375.1 L 277.3,375.2 L 277.3,375.2 L 277.2,375.3 L 277.1,375.5 L 276.9,375.6 L 276.8,375.8 L 276.7,375.9 L 276.6,376.0 L 276.6,376.1 L 276.5,376.3 L 276.3,376.5 L 276.0,376.9 L 275.8,377.0 L 275.7,377.2 L 275.6,377.3 L 275.2,377.5 L 275.2,377.5 L 275.2,377.5 L 275.0,377.6 L 274.6,377.7 L 274.3,377.7 L 274.0,377.7 L 273.7,377.7 L 273.4,377.6 L 273.4,377.6 L 273.3,377.6 L 273.3,377.6 L 273.3,377.6 L 273.3,377.6 L 273.2,377.5 L 273.2,377.5 L 273.2,377.5 L 273.1,377.5 L 273.1,377.5 L 273.0,377.5 L 272.8,377.4 L 272.6,377.4 L 272.6,377.4 L 272.5,377.5 L 272.3,377.5 L 272.2,377.6 L 272.0,377.7 L 271.8,377.8 L 271.7,377.8 L 271.5,377.8 L 271.4,377.9 L 271.4,377.9 L 271.2,377.9 L 271.0,377.9 L 270.7,377.9 L 270.5,378.0 L 270.5,378.0 L 270.3,378.1 L 270.0,378.3 L 269.8,378.4 L 269.5,378.6 L 269.3,378.8 L 269.2,378.8 L 269.1,378.9 L 268.9,379.2 L 268.7,379.3 L 268.6,379.4 L 268.5,379.5 L 268.5,379.6 L 268.4,379.7 L 268.4,379.7 L 268.4,379.7 L 268.3,379.8 L 268.2,379.9 L 268.2,379.9 L 268.1,379.9 L 268.1,380.0 L 268.0,380.0 L 268.0,380.0 L 267.9,380.1 L 267.9,380.1 L 267.8,380.1 L 267.8,380.1 L 267.7,380.2 L 267.6,380.2 L 267.5,380.2 L 267.3,380.3 L 267.1,380.5 L 266.9,380.6 L 266.7,380.7 L 266.5,380.7 L 266.5,380.7 L 266.3,380.7 L 266.2,380.7 L 266.2,380.7 L 266.1,380.7 L 266.0,380.7 L 266.0,380.6 L 265.8,380.6 L 265.8,380.6 L 265.7,380.5 L 265.7,380.5 L 265.7,380.5 L 265.7,380.5 L 265.6,380.4 L 265.6,380.4 L 265.5,380.3 L 265.5,380.3 L 265.5,380.3 L 265.3,380.3 L 265.3,380.3 L 265.2,380.3 L 265.1,380.3 L 265.1,380.3 L 264.8,380.3 L 264.6,380.3 L 264.5,380.3 L 264.4,380.3 L 264.4,380.4 L 264.2,380.4 L 264.0,380.5 L 263.8,380.7 L 263.7,380.9 L 263.6,380.9 L 263.6,380.9 L 263.4,381.1 L 263.3,381.2 L 263.2,381.3 L 262.9,381.5 L 262.7,381.6 L 262.7,381.6 L 262.5,381.8 L 262.4,381.9 L 262.2,382.0 L 262.0,382.1 L 261.7,382.2 L 261.4,382.3 L 261.1,382.3 L 260.8,382.4 L 260.6,382.4 L 260.4,382.4 L 260.2,382.4 L 260.1,382.4 L 260.0,382.4 L 259.8,382.4 L 259.7,382.4 L 259.7,382.4 L 259.5,382.3 L 259.3,382.3 L 259.3,382.3 L 259.2,382.3 L 259.0,382.2 L 259.0,382.2 L 259.0,382.2 L 258.8,382.1 L 258.8,382.1 L 258.8,382.0 L 258.8,382.0 L 258.6,382.1 L 258.5,382.1 L 258.4,382.1 L 258.4,382.1 L 258.4,382.0 L 258.4,382.0 L 258.3,382.1 L 258.3,382.1 L 258.1,382.1 L 258.1,382.0 L 258.1,382.0 L 257.8,382.0 L 257.7,382.1 L 257.4,382.1 L 257.3,382.1 L 257.1,382.2 L 257.0,382.2 L 256.8,382.3 L 256.7,382.4 L 256.5,382.6 L 256.3,382.9 L 256.1,383.2 L 256.1,383.3 L 256.0,383.4 L 255.8,383.5 L 255.7,383.6 L 255.6,383.8 L 255.5,384.0 L 255.4,384.2 L 255.3,384.4 L 255.2,384.5 L 255.0,384.7 L 254.8,384.8 L 254.7,384.9 L 254.3,385.0 L 254.2,385.0 L 254.0,385.0 L 253.8,385.0 L 253.6,385.0 L 253.4,385.0 L 253.1,385.2 L 252.9,385.4 L 252.8,385.5 L 252.6,385.6 L 252.5,385.8 L 252.4,386.1 L 252.4,386.2 L 252.2,386.4 L 252.1,386.6 L 252.0,386.6 L 251.8,386.7 L 251.7,386.8 L 251.6,386.9 L 251.4,387.0 L 251.3,387.0 L 251.2,387.0 L 250.9,387.0 L 250.8,387.1 L 250.7,387.0 L 250.6,386.9 L 250.6,386.9 L 250.5,386.7 L 250.5,386.7 L 250.3,386.7 L 250.3,386.7 L 250.1,386.7 L 250.0,386.8 L 249.8,386.9 L 249.6,387.1 L 249.4,387.2 L 249.2,387.3 L 249.1,387.4 L 248.8,387.5 L 248.7,387.6 L 248.6,387.7 L 248.4,387.9 L 248.2,388.0 L 248.1,388.1 L 248.0,388.2 L 247.7,388.3 L 247.5,388.4 L 247.3,388.5 L 247.1,388.6 L 247.0,388.8 L 246.9,388.9 L 246.8,389.0 L 246.7,389.2 L 246.7,389.3 L 246.6,389.4 L 246.5,389.6 L 246.3,389.6 L 246.2,389.7 L 246.1,389.7 L 245.9,389.6 L 245.9,389.6 L 245.6,389.6 L 245.1,389.9 L 245.0,390.0 L 244.8,390.1 L 244.7,390.2 L 244.6,390.2 L 244.3,390.4 L 244.2,390.4 L 244.1,390.5 L 244.0,390.6 L 243.7,390.6 L 243.7,390.6 L 243.4,390.6 L 243.1,390.6 L 242.9,390.5 L 242.6,390.5 L 242.3,390.4 L 242.1,390.3 L 242.1,390.3 L 241.9,390.2 L 241.9,390.2 L 241.5,390.1 L 241.2,390.1 L 241.0,390.1 L 240.8,390.1 L 240.2,390.3 L 239.7,390.7 L 239.3,391.1 L 238.9,391.3 L 238.5,391.7 L 238.1,392.0 L 237.7,392.2 L 237.2,392.3 L 236.8,392.5 L 236.6,392.7 L 236.4,393.0 L 236.1,393.1 L 236.0,393.3 L 235.6,393.4 L 235.3,393.5 L 235.0,393.6 L 234.7,393.6 L 234.3,393.7 L 233.5,393.6 L 232.8,393.5 L 232.7,393.4 L 232.7,393.4 L 232.3,393.3 L 231.7,393.3 L 231.3,393.3 L 230.8,393.2 L 230.0,393.1 L 229.4,393.6 L 229.0,394.0 L 228.5,394.2 L 228.3,394.4 L 227.9,394.4 L 227.6,394.5 L 227.2,394.4 L 227.2,394.4 L 226.9,394.3 L 226.9,394.3 L 226.6,394.1 L 226.6,394.1 L 226.3,394.1 L 225.9,394.3 L 225.6,394.4 L 225.4,394.5 L 224.9,394.5 L 224.3,394.0 L 224.3,394.0 L 223.8,393.6 L 223.8,393.6 L 223.1,393.5 L 221.3,393.7 L 220.8,393.5 L 220.8,393.5 L 220.6,393.3 L 220.6,393.3 L 220.4,393.0 L 220.4,393.0 L 220.1,393.0 L 220.0,393.2 L 219.7,393.4 L 219.4,393.6 L 218.9,393.8 L 218.6,394.1 L 218.3,394.3 L 218.1,394.4 L 217.8,394.5 L 217.5,394.5 L 217.2,394.6 L 217.0,394.7 L 216.8,394.7 L 216.5,394.7 L 216.0,394.7 L 215.7,394.9 L 215.5,395.1 L 215.3,395.1 L 215.0,395.2 L 214.8,395.1 L 214.5,395.1 L 214.5,395.1 L 214.4,395.1 L 214.4,395.1 L 214.1,395.1 L 213.9,395.2 L 213.6,395.3 L 213.4,395.4 L 213.2,395.4 L 212.5,395.7 L 212.2,396.0 L 212.0,396.3 L 211.9,396.5 L 211.8,396.9 L 211.8,396.9 L 212.0,397.1 L 212.2,397.6 L 212.2,397.6 L 212.6,398.2 L 212.6,398.2 L 212.9,399.0 L 212.9,399.3 L 212.8,400.6 L 212.8,401.6 L 212.6,402.0 L 212.4,402.6 L 212.0,403.3 L 211.8,403.5 L 211.4,403.8 L 211.1,404.2 L 210.9,404.5 L 210.9,405.3 L 211.1,405.9 L 210.9,406.5 L 210.8,406.8 L 210.7,407.0 L 210.5,407.5 L 210.5,407.8 L 210.3,408.3 L 210.1,408.7 L 209.9,408.9 L 209.8,409.2 L 209.7,409.3 L 209.6,410.1 L 209.3,410.3 L 209.0,410.3 L 208.8,410.4 L 208.6,410.5 L 208.2,410.7 L 208.1,410.9 L 207.9,411.1 L 207.7,411.3 L 207.4,411.4 L 207.0,411.3 L 206.7,411.5 L 206.3,411.8 L 206.3,412.1 L 206.3,412.3 L 206.1,412.7 L 205.9,413.0 L 205.3,413.4 L 204.7,413.7 L 204.2,414.2 L 203.6,414.4 L 203.1,414.7 L 202.9,415.3 L 202.8,416.2 L 202.7,416.8 L 202.2,420.8 L 199.5,425.3 L 199.4,425.6 L 199.4,425.6 L 199.4,425.6 L 199.4,425.2 L 199.0,424.1 L 198.6,422.9 L 198.3,421.7 L 197.7,420.7 L 197.2,419.0 L 196.4,416.9 L 195.7,415.6 L 194.5,413.3 L 193.8,411.8 L 193.3,410.5 L 193.1,409.4 L 193.1,408.0 L 193.3,407.1 L 193.6,405.8 L 193.7,404.5 L 193.9,403.5 L 193.8,402.6 L 193.5,401.2 L 193.3,400.3 L 192.8,399.0 L 192.3,397.9 L 191.4,396.6 L 190.5,395.4 L 189.7,394.4 L 188.7,393.6 L 188.3,392.7 L 187.9,391.8 L 187.7,390.5 L 187.7,389.6 L 187.7,388.9 L 188.0,387.9 L 188.2,386.6 L 188.6,385.7 L 189.2,384.4 L 189.9,383.4 L 190.6,382.5 L 191.4,381.3 L 192.0,380.3 L 192.4,379.4 L 192.5,378.0 L 192.4,376.5 L 192.3,374.9 L 192.3,373.2 L 192.3,371.4 L 191.8,370.2 L 191.4,369.4 L 190.9,368.4 L 190.1,367.5 L 189.3,366.8 L 188.4,366.4 L 187.5,366.2 L 186.9,366.3 L 186.0,366.5 L 185.5,366.7 L 185.0,367.1 L 184.7,367.8 L 184.4,368.7 L 184.0,370.0 L 183.5,371.6 L 182.8,373.3 L 182.3,374.7 L 181.9,376.1 L 181.5,377.3 L 181.3,378.8 L 181.1,380.6 L 181.0,382.0 L 180.8,383.8 L 180.7,385.9 L 180.3,387.6 L 179.6,388.4 L 178.6,389.4 L 178.1,390.1 L 177.3,390.7 L 176.1,391.4 L 174.8,391.9 L 173.4,392.4 L 171.7,392.6 L 170.6,392.3 L 169.8,391.7 L 169.1,391.1 L 168.1,390.3 L 167.2,389.7 L 166.2,388.9 L 165.7,388.0 L 165.1,387.1 L 164.5,386.2 L 164.1,384.8 L 164.1,383.7 L 164.2,382.5 L 164.3,381.3 L 164.5,380.1 L 165.1,378.8 L 165.7,377.8 L 166.3,376.6 L 166.9,375.4 L 167.1,374.6 L 167.8,374.0 L 168.5,373.6 L 169.4,373.1 L 170.6,372.8 L 172.0,372.4 L 172.4,371.8 L 172.9,371.0 L 173.2,369.9 L 173.3,368.9 L 173.4,367.5 L 173.6,366.0 L 174.0,364.4 L 174.1,363.4 L 174.4,362.1 L 174.0,360.6 L 173.8,359.9 L 173.3,358.8 L 173.0,358.1 L 172.5,357.0 L 172.0,356.1 L 171.3,355.0 L 170.5,353.6 L 169.6,352.2 L 168.9,351.4 L 168.7,351.4 L 173.9,340.1 L 242.5,300.7 L 358.4,345.6 Z M 284.6,395.2 L 284.2,392.8 L 289.4,392.0 L 284.6,395.2 Z M 274.3,402.1 L 274.8,400.6 L 275.8,397.8 L 279.3,397.3 L 279.6,397.2 L 281.8,396.9 L 282.2,396.8 L 274.3,402.1 Z M 238.2,426.4 L 238.2,425.2 L 238.2,424.9 L 243.1,423.0 L 243.4,422.9 L 243.5,422.9 L 238.2,426.4 Z" class="poly" fill="#cb7740" data-short="22N01E20K001M" data-ma="Chico" data-base-year="2000" data-end-year="2022" data-span="22" data-area="11,638" data-rms-wells="22N01E20K001M" data-sy="0.0754" data-sy-source="SVSim" data-avg-dgwe="-0.98" data-cum-stor="-18,867" data-avg-rate="-858" data-critdry-share="92%" data-crit-share="53%" data-bucket-wet="+15,225" data-bucket-an="+2,808" data-bucket-bn="+5,397" data-bucket-dry="-17,831" data-bucket-critical="-24,465" data-hold="858" data-project="0" data-project-name="" data-coverage="-858" data-late="1"><title>Click for 22N01E20K001M detail</title></path>
<path d="M 280.6,254.7 L 446.8,295.0 L 453.8,302.6 L 454.4,303.2 L 393.8,338.2 L 358.4,345.6 L 242.5,300.7 L 253.9,267.5 L 280.6,254.7 Z" class="poly" fill="#e3a76f" data-short="22N01E09B001M" data-ma="Chico" data-base-year="2002" data-end-year="2025" data-span="23" data-area="11,159" data-rms-wells="22N01E09B001M" data-sy="0.0936" data-sy-source="SVSim" data-avg-dgwe="-0.60" data-cum-stor="-14,309" data-avg-rate="-622" data-critdry-share="93%" data-crit-share="57%" data-bucket-wet="+16,346" data-bucket-an="+4,439" data-bucket-bn="+3,133" data-bucket-dry="-14,727" data-bucket-critical="-23,500" data-hold="622" data-project="0" data-project-name="" data-coverage="-622" data-late="1"><title>Click for 22N01E09B001M detail</title></path>
<path d="M 526.3,569.9 L 598.7,607.6 L 526.3,691.2 L 522.8,688.0 L 522.8,688.0 L 521.6,687.0 L 521.6,677.8 L 521.6,677.8 L 521.6,677.8 L 521.6,677.8 L 512.1,678.0 L 511.3,678.1 L 511.3,678.1 L 511.3,678.1 L 510.6,677.6 L 510.6,677.6 L 509.4,676.5 L 509.4,676.5 L 509.4,676.5 L 509.4,676.5 L 509.3,684.0 L 509.3,685.1 L 509.3,685.1 L 509.4,685.2 L 509.4,685.2 L 509.4,703.3 L 508.0,703.2 L 506.0,703.2 L 499.4,703.3 L 499.4,703.3 L 499.4,703.3 L 499.7,702.5 L 499.7,702.5 L 499.9,701.9 L 499.9,701.9 L 500.5,700.0 L 500.5,700.0 L 500.7,698.9 L 500.7,698.9 L 502.1,687.9 L 502.1,687.9 L 502.4,686.0 L 502.4,686.0 L 502.6,683.8 L 502.6,683.8 L 502.7,682.0 L 502.9,678.7 L 502.9,678.7 L 503.2,675.8 L 503.2,675.8 L 502.9,670.7 L 502.9,670.7 L 503.0,670.0 L 503.0,670.0 L 502.8,667.4 L 502.8,667.4 L 502.6,666.4 L 502.7,665.6 L 502.7,665.6 L 502.8,664.7 L 502.8,664.7 L 502.5,664.2 L 502.5,664.2 L 502.3,661.6 L 502.3,661.6 L 502.0,656.5 L 502.0,656.5 L 501.7,653.4 L 501.6,653.1 L 501.6,653.1 L 501.6,652.7 L 501.6,652.7 L 501.6,651.8 L 501.6,651.8 L 501.6,650.5 L 501.6,650.5 L 501.7,648.9 L 501.7,648.9 L 501.7,647.5 L 501.7,647.5 L 501.9,646.2 L 501.9,646.2 L 502.1,644.7 L 502.1,644.7 L 502.1,643.8 L 502.1,643.8 L 502.2,643.7 L 502.2,643.7 L 502.4,643.3 L 503.2,642.1 L 503.3,641.9 L 503.3,641.6 L 503.3,641.6 L 503.3,641.5 L 503.1,641.3 L 503.1,641.3 L 503.1,641.3 L 503.0,641.3 L 501.7,641.3 L 499.3,641.4 L 497.0,641.4 L 496.5,641.4 L 496.5,641.4 L 496.3,640.7 L 496.4,639.4 L 496.4,639.4 L 496.4,634.1 L 496.4,634.1 L 496.4,633.5 L 496.4,633.5 L 496.4,633.2 L 496.4,633.2 L 496.4,627.7 L 496.4,627.7 L 496.4,626.9 L 496.4,626.9 L 496.4,623.3 L 496.4,623.3 L 496.4,623.4 L 490.8,624.2 L 490.6,624.2 L 490.5,624.1 L 490.5,624.1 L 490.5,624.1 L 490.5,624.1 L 490.2,623.9 L 490.2,623.9 L 489.9,623.7 L 489.9,623.7 L 487.4,621.3 L 487.4,621.3 L 487.0,620.9 L 487.0,620.9 L 479.4,614.5 L 479.4,614.5 L 479.0,614.2 L 479.0,614.2 L 478.9,614.1 L 478.9,614.1 L 478.3,613.6 L 478.3,613.6 L 475.8,611.7 L 526.3,569.9 Z" class="poly" fill="#e3a76f" data-short="20N02E24C001M" data-ma="South" data-base-year="2000" data-end-year="2024" data-span="24" data-area="7,862" data-rms-wells="20N02E24C001M" data-sy="0.0930" data-sy-source="SVSim" data-avg-dgwe="-0.97" data-cum-stor="-17,069" data-avg-rate="-711" data-critdry-share="85%" data-crit-share="51%" data-bucket-wet="+1,637" data-bucket-an="+3,221" data-bucket-bn="+558" data-bucket-dry="-8,976" data-bucket-critical="-13,508" data-hold="711" data-project="0" data-project-name="" data-coverage="-711" data-late="1"><title>Click for 20N02E24C001M detail</title></path>
<path d="M 401.5,495.6 L 400.1,495.2 L 360.2,432.0 L 393.8,338.2 L 454.4,303.2 L 459.9,308.3 L 471.3,321.9 L 473.9,325.9 L 478.2,334.7 L 481.1,339.6 L 486.8,348.1 L 493.2,357.0 L 495.2,360.5 L 496.9,363.5 L 504.8,375.7 L 505.3,376.3 L 506.5,377.8 L 435.0,488.9 L 401.5,495.6 Z" class="poly" fill="#a8c8b0" data-short="21N02E18C003M" data-ma="South" data-base-year="2011" data-end-year="2025" data-span="14" data-area="17,184" data-rms-wells="21N02E18C003M" data-sy="0.1092" data-sy-source="SVSim" data-avg-dgwe="+0.90" data-cum-stor="+23,569" data-avg-rate="+1,684" data-critdry-share="61%" data-crit-share="37%" data-bucket-wet="+82,708" data-bucket-an="+5,146" data-bucket-bn="-33,578" data-bucket-dry="-17,147" data-bucket-critical="-13,559" data-hold="0" data-project="0" data-project-name="" data-coverage="+0" data-late="1"><title>Click for 21N02E18C003M detail</title></path>
<path d="M 261.5,597.7 L 261.6,604.8 L 261.3,604.8 L 261.3,604.9 L 260.8,604.9 L 252.8,605.0 L 261.5,597.7 Z M 332.6,537.6 L 380.9,550.9 L 393.5,571.2 L 385.0,608.2 L 384.9,604.5 L 384.9,604.5 L 384.7,604.1 L 384.7,604.1 L 384.7,604.1 L 383.4,604.1 L 377.0,604.0 L 376.9,604.0 L 376.6,604.0 L 368.8,603.9 L 367.9,603.6 L 362.5,603.6 L 356.8,603.7 L 356.5,603.7 L 356.0,603.8 L 355.8,603.8 L 353.8,603.7 L 351.5,603.7 L 350.2,603.9 L 348.7,604.3 L 348.5,604.6 L 347.9,605.5 L 347.7,606.1 L 347.0,606.1 L 346.4,606.1 L 346.2,606.1 L 343.5,606.2 L 340.7,606.2 L 340.3,606.2 L 340.0,606.4 L 338.3,607.8 L 338.0,608.0 L 337.1,608.0 L 336.5,608.3 L 335.8,608.7 L 335.8,608.7 L 335.8,609.2 L 335.8,609.2 L 335.8,610.0 L 335.8,610.1 L 335.9,610.4 L 335.9,610.4 L 335.9,610.5 L 335.9,610.5 L 336.0,612.4 L 336.0,612.4 L 336.0,613.3 L 335.8,613.3 L 335.4,613.3 L 331.6,613.4 L 324.1,613.4 L 323.8,613.4 L 323.4,613.4 L 323.2,613.4 L 323.2,613.4 L 323.2,613.4 L 323.1,613.1 L 323.1,613.1 L 323.0,612.0 L 323.0,612.0 L 323.0,609.2 L 323.0,609.2 L 323.0,604.6 L 323.0,604.6 L 323.0,603.4 L 323.0,603.2 L 323.0,603.2 L 322.9,595.7 L 322.9,594.4 L 322.9,594.4 L 322.9,591.7 L 322.9,591.7 L 322.8,590.9 L 322.8,590.9 L 322.8,589.8 L 322.8,589.8 L 322.8,587.1 L 322.8,587.1 L 322.8,585.3 L 322.8,585.3 L 322.8,585.1 L 322.8,585.1 L 322.7,584.8 L 322.7,584.8 L 322.8,582.8 L 322.8,582.8 L 322.7,579.1 L 322.7,579.1 L 322.7,579.0 L 322.7,578.7 L 322.7,578.7 L 322.7,578.7 L 322.4,578.7 L 320.7,578.7 L 314.5,578.8 L 310.4,578.9 L 292.2,579.1 L 292.0,579.2 L 291.8,579.2 L 286.0,579.1 L 285.8,579.2 L 285.5,579.4 L 283.1,579.5 L 332.6,537.6 Z" class="poly" fill="#f0d9a8" data-short="20N01E02H003M" data-ma="South" data-base-year="2002" data-end-year="2025" data-span="23" data-area="4,899" data-rms-wells="20N01E02H003M" data-sy="0.0690" data-sy-source="SVSim" data-avg-dgwe="-0.44" data-cum-stor="-3,431" data-avg-rate="-149" data-critdry-share="84%" data-crit-share="48%" data-bucket-wet="+7,937" data-bucket-an="+1,208" data-bucket-bn="+888" data-bucket-dry="-5,950" data-bucket-critical="-7,514" data-hold="149" data-project="0" data-project-name="" data-coverage="-149" data-late="1"><title>Click for 20N01E02H003M detail</title></path>
<path d="M 393.5,571.2 L 437.8,552.5 L 460.4,611.2 L 456.7,612.1 L 454.2,615.2 L 454.2,615.2 L 454.1,615.5 L 454.2,615.9 L 454.2,615.9 L 455.9,617.9 L 455.9,617.9 L 450.9,621.7 L 440.0,630.3 L 440.0,630.3 L 440.0,630.3 L 438.7,629.5 L 438.7,629.5 L 438.7,629.5 L 422.3,635.5 L 420.8,636.0 L 420.8,636.0 L 413.8,611.6 L 413.8,611.6 L 413.6,611.3 L 413.6,611.3 L 411.7,604.2 L 407.9,591.2 L 407.4,588.8 L 407.1,587.6 L 406.3,584.5 L 406.1,584.0 L 405.9,583.4 L 405.8,583.2 L 405.8,583.2 L 405.8,583.2 L 405.7,583.2 L 405.3,583.3 L 404.8,583.6 L 404.4,583.9 L 404.1,584.3 L 403.5,585.5 L 403.2,586.1 L 401.5,588.2 L 400.7,589.2 L 399.9,590.4 L 398.8,591.6 L 397.4,593.3 L 396.5,594.7 L 395.7,596.0 L 394.4,598.2 L 392.9,601.1 L 392.1,602.8 L 390.5,605.2 L 389.8,606.2 L 389.8,606.2 L 389.4,608.1 L 389.4,608.1 L 388.7,610.0 L 388.7,610.0 L 387.6,612.7 L 387.6,612.7 L 386.5,614.6 L 385.2,615.7 L 385.2,615.7 L 385.2,615.6 L 385.0,608.2 L 393.5,571.2 Z" class="poly" fill="#6b9479" data-short="20N02E08H003M" data-ma="South" data-base-year="2008" data-end-year="2025" data-span="17" data-area="3,458" data-rms-wells="20N02E08H003M" data-sy="0.0916" data-sy-source="SVSim" data-avg-dgwe="-0.38" data-cum-stor="-2,059" data-avg-rate="-121" data-critdry-share="69%" data-crit-share="17%" data-bucket-wet="+3,564" data-bucket-an="+285" data-bucket-bn="-1,077" data-bucket-dry="-3,880" data-bucket-critical="-950" data-hold="121" data-project="2,250" data-project-name="Conjunctive use (surface water replaces groundwater)" data-coverage="+2,129" data-late="1"><title>Click for 20N02E08H003M detail</title></path>
<path d="M 437.8,552.5 L 447.8,533.3 L 520.8,556.5 L 526.3,569.9 L 475.8,611.7 L 471.6,608.5 L 471.6,608.5 L 471.6,608.5 L 460.4,611.2 L 437.8,552.5 Z" class="poly" fill="#6b9479" data-short="20N02E09G001M" data-ma="South" data-base-year="2002" data-end-year="2024" data-span="22" data-area="4,210" data-rms-wells="20N02E09G001M" data-sy="0.0987" data-sy-source="SVSim" data-avg-dgwe="-0.56" data-cum-stor="-5,107" data-avg-rate="-232" data-critdry-share="92%" data-crit-share="43%" data-bucket-wet="+3,744" data-bucket-an="+1,342" data-bucket-bn="+1,138" data-bucket-dry="-6,829" data-bucket-critical="-4,503" data-hold="232" data-project="2,250" data-project-name="Conjunctive use (surface water replaces groundwater)" data-coverage="+2,018" data-late="1"><title>Click for 20N02E09G001M detail</title></path>
<path d="M 652.2,600.4 L 649.6,605.9 L 649.6,606.0 L 648.2,608.2 L 646.5,610.4 L 644.9,611.7 L 632.2,621.5 L 629.2,623.1 L 625.8,624.9 L 622.3,626.4 L 616.0,630.1 L 604.5,639.1 L 600.3,641.8 L 598.1,643.6 L 593.3,648.8 L 593.3,648.8 L 592.3,651.8 L 592.3,651.8 L 591.9,654.0 L 591.9,654.0 L 592.3,657.1 L 592.9,659.7 L 596.5,669.6 L 598.9,680.9 L 598.9,680.9 L 599.7,690.0 L 599.7,690.0 L 600.9,698.1 L 600.9,698.1 L 600.9,704.7 L 600.9,704.7 L 600.9,704.7 L 600.9,704.7 L 599.8,704.7 L 590.1,704.9 L 590.1,706.6 L 590.2,707.1 L 590.2,707.2 L 590.2,710.2 L 585.6,710.2 L 585.6,711.0 L 585.6,713.3 L 584.4,713.3 L 584.2,713.3 L 582.5,713.3 L 580.2,713.2 L 577.0,713.2 L 574.5,713.1 L 574.4,713.1 L 574.4,713.1 L 571.7,713.1 L 571.7,712.3 L 571.7,711.1 L 571.6,709.4 L 571.6,707.9 L 571.6,706.4 L 571.6,704.8 L 571.6,702.9 L 571.6,702.9 L 571.6,702.7 L 571.6,702.7 L 571.5,702.5 L 571.5,702.5 L 555.2,702.6 L 554.2,702.6 L 552.7,702.7 L 551.4,702.9 L 546.9,703.0 L 546.9,703.0 L 546.9,709.1 L 546.9,709.1 L 546.8,709.4 L 546.1,709.3 L 546.1,709.3 L 546.1,709.3 L 541.2,704.8 L 541.2,704.8 L 540.0,703.6 L 540.0,703.6 L 537.4,701.2 L 537.4,701.2 L 534.5,698.5 L 534.5,698.5 L 532.4,696.7 L 532.4,696.7 L 532.0,696.3 L 532.0,696.3 L 526.3,691.2 L 598.7,607.6 L 652.2,600.4 Z" class="poly" fill="#a8c8b0" data-short="20N03E33L001M" data-ma="South" data-base-year="2000" data-end-year="2025" data-span="25" data-area="5,182" data-rms-wells="20N03E33L001M" data-sy="0.1172" data-sy-source="SVSim" data-avg-dgwe="-0.69" data-cum-stor="-10,397" data-avg-rate="-416" data-critdry-share="69%" data-crit-share="40%" data-bucket-wet="+4,275" data-bucket-an="+322" data-bucket-bn="-3,667" data-bucket-dry="-4,587" data-bucket-critical="-6,740" data-hold="416" data-project="1,250" data-project-name="Conjunctive use (surface water replaces groundwater)" data-coverage="+834" data-late="1"><title>Click for 20N03E33L001M detail</title></path>
<path d="M 358.4,345.6 L 393.8,338.2 L 360.2,432.0 L 326.2,471.4 L 267.0,459.1 L 268.1,457.7 L 269.1,457.2 L 270.1,457.1 L 270.3,457.1 L 270.9,456.7 L 271.0,456.1 L 271.5,454.6 L 272.3,453.9 L 273.3,453.7 L 273.5,453.5 L 275.2,452.1 L 275.2,452.1 L 275.5,451.9 L 275.5,451.9 L 275.5,451.9 L 275.5,451.9 L 275.6,451.8 L 276.7,451.2 L 277.9,449.9 L 278.3,448.0 L 274.5,445.9 L 274.5,445.9 L 274.0,445.5 L 274.0,445.5 L 273.7,445.0 L 273.7,445.0 L 273.6,444.4 L 273.7,442.3 L 273.8,439.0 L 273.8,439.0 L 272.3,439.6 L 269.7,440.4 L 266.0,441.7 L 263.6,440.1 L 263.6,440.1 L 258.3,441.8 L 254.7,442.0 L 252.5,441.9 L 250.8,442.0 L 250.4,442.0 L 249.1,442.4 L 248.5,442.4 L 247.5,442.5 L 246.5,442.9 L 245.9,443.7 L 245.3,443.9 L 244.4,443.6 L 244.4,443.6 L 244.4,442.1 L 244.4,442.1 L 244.1,442.2 L 244.0,442.3 L 243.8,442.4 L 243.6,442.6 L 243.2,442.8 L 243.0,442.9 L 242.7,443.0 L 242.5,443.1 L 242.3,443.1 L 241.9,443.2 L 241.6,443.3 L 241.3,443.6 L 241.2,443.7 L 240.9,444.2 L 240.7,444.4 L 240.4,444.7 L 240.2,444.9 L 239.8,445.1 L 239.4,445.0 L 239.2,445.0 L 238.9,445.0 L 238.7,444.9 L 238.6,444.9 L 238.5,444.9 L 238.3,445.0 L 238.3,443.1 L 238.2,439.9 L 238.2,426.4 L 243.5,422.9 L 263.4,415.3 L 266.8,414.3 L 270.8,412.9 L 272.2,408.8 L 273.0,406.1 L 273.9,403.3 L 274.3,402.1 L 282.2,396.8 L 284.8,396.4 L 284.8,396.1 L 284.6,395.2 L 289.4,392.0 L 290.6,391.8 L 293.0,391.4 L 292.9,391.3 L 292.9,391.3 L 292.3,390.0 L 358.4,345.6 Z" class="poly" fill="#a8c8b0" data-short="21N01E10B003M" data-ma="South" data-base-year="1999" data-end-year="2025" data-span="26" data-area="10,124" data-rms-wells="21N01E10B003M" data-sy="0.0895" data-sy-source="SVSim" data-avg-dgwe="-0.84" data-cum-stor="-19,753" data-avg-rate="-760" data-critdry-share="84%" data-crit-share="40%" data-bucket-wet="+20,659" data-bucket-an="+6,614" data-bucket-bn="+2,220" data-bucket-dry="-25,687" data-bucket-critical="-23,558" data-hold="760" data-project="1,500" data-project-name="Comanche Creek recharge" data-coverage="+740" data-late=""><title>Click for 21N01E10B003M detail</title></path>
<path d="M 400.1,495.2 L 342.5,497.4 L 326.2,471.4 L 360.2,432.0 L 400.1,495.2 Z" class="poly" fill="#cb7740" data-short="21N01E13L004M" data-ma="South" data-base-year="2012" data-end-year="2025" data-span="13" data-area="2,713" data-rms-wells="21N01E13L004M" data-sy="0.0921" data-sy-source="SVSim" data-avg-dgwe="-4.00" data-cum-stor="-13,005" data-avg-rate="-1,000" data-critdry-share="97%" data-crit-share="28%" data-bucket-wet="+4,386" data-bucket-an="+2,265" data-bucket-bn="+1,417" data-bucket-dry="-15,004" data-bucket-critical="-6,069" data-hold="1,000" data-project="0" data-project-name="" data-coverage="-1,000" data-late="1"><title>Click for 21N01E13L004M detail</title></path>
<path d="M 401.5,495.6 L 380.9,550.9 L 332.6,537.6 L 342.5,497.4 L 400.1,495.2 L 401.5,495.6 Z" class="poly" fill="#f0d9a8" data-short="21N01E25K001M" data-ma="South" data-base-year="1999" data-end-year="2025" data-span="26" data-area="2,748" data-rms-wells="21N01E25K001M" data-sy="0.0868" data-sy-source="basin-mean fallback" data-avg-dgwe="-0.89" data-cum-stor="-5,533" data-avg-rate="-213" data-critdry-share="89%" data-crit-share="45%" data-bucket-wet="+7,060" data-bucket-an="+811" data-bucket-bn="-72" data-bucket-dry="-6,654" data-bucket-critical="-6,678" data-hold="213" data-project="0" data-project-name="" data-coverage="-213" data-late=""><title>Click for 21N01E25K001M detail</title></path>
<path d="M 326.2,471.4 L 342.5,497.4 L 332.6,537.6 L 283.1,579.5 L 283.0,579.5 L 261.0,579.6 L 261.0,579.6 L 261.0,579.7 L 261.1,589.0 L 261.1,589.0 L 261.1,591.6 L 261.1,591.6 L 261.2,591.8 L 261.4,593.0 L 261.4,593.0 L 261.5,597.7 L 252.8,605.0 L 242.1,605.2 L 241.7,568.0 L 241.7,556.3 L 241.7,555.1 L 241.7,554.8 L 241.7,547.7 L 241.7,540.2 L 241.7,532.4 L 230.7,536.1 L 230.3,536.2 L 227.7,537.0 L 227.4,537.1 L 215.2,541.5 L 214.9,541.6 L 214.1,541.9 L 213.0,536.0 L 212.9,530.4 L 221.1,529.3 L 224.0,527.0 L 224.5,526.5 L 224.5,517.6 L 224.6,511.7 L 224.7,505.4 L 231.3,505.5 L 242.9,505.7 L 243.2,505.7 L 243.3,505.7 L 243.4,497.9 L 243.5,481.5 L 243.5,480.7 L 246.0,480.7 L 246.4,469.6 L 249.0,467.6 L 252.1,465.1 L 252.9,464.3 L 254.3,463.3 L 254.8,462.7 L 256.5,461.3 L 256.9,460.8 L 260.3,459.7 L 260.3,459.7 L 260.7,460.1 L 263.8,459.2 L 264.8,459.6 L 265.5,459.7 L 265.8,459.8 L 266.0,459.8 L 266.1,459.6 L 266.4,459.6 L 266.7,459.5 L 267.0,459.1 L 326.2,471.4 Z" class="poly" fill="#a8c8b0" data-short="21N01E27D001M" data-ma="South" data-base-year="1999" data-end-year="2025" data-span="26" data-area="10,931" data-rms-wells="21N01E27D001M" data-sy="0.0698" data-sy-source="SVSim" data-avg-dgwe="-0.76" data-cum-stor="-15,107" data-avg-rate="-581" data-critdry-share="79%" data-crit-share="45%" data-bucket-wet="+20,943" data-bucket-an="+1,679" data-bucket-bn="-801" data-bucket-dry="-15,793" data-bucket-critical="-21,134" data-hold="581" data-project="1,250" data-project-name="Conjunctive use (surface water replaces groundwater)" data-coverage="+669" data-late=""><title>Click for 21N01E27D001M detail</title></path>
<path d="M 520.8,556.5 L 447.8,533.3 L 435.0,488.9 L 506.5,377.8 L 507.4,379.0 L 507.7,379.3 L 507.7,379.3 L 508.5,380.4 L 510.4,382.8 L 511.2,383.8 L 522.7,396.7 L 526.0,401.3 L 529.2,406.7 L 531.1,409.3 L 534.2,413.5 L 540.6,423.0 L 520.8,556.5 Z" class="poly" fill="#e3a76f" data-short="21N02E26E006M" data-ma="South" data-base-year="2008" data-end-year="2025" data-span="17" data-area="11,791" data-rms-wells="21N02E26E006M" data-sy="0.1066" data-sy-source="SVSim" data-avg-dgwe="-0.43" data-cum-stor="-9,104" data-avg-rate="-536" data-critdry-share="81%" data-crit-share="46%" data-bucket-wet="+3,588" data-bucket-an="+1,739" data-bucket-bn="+4,482" data-bucket-dry="-4,159" data-bucket-critical="-14,753" data-hold="536" data-project="0" data-project-name="" data-coverage="-536" data-late="1"><title>Click for 21N02E26E006M detail</title></path>
<path d="M 437.8,552.5 L 393.5,571.2 L 380.9,550.9 L 401.5,495.6 L 435.0,488.9 L 447.8,533.3 L 437.8,552.5 Z" class="poly" fill="#a8c8b0" data-short="21N02E32E001M" data-ma="South" data-base-year="2009" data-end-year="2025" data-span="16" data-area="3,692" data-rms-wells="21N02E32E001M" data-sy="0.0716" data-sy-source="SVSim" data-avg-dgwe="+0.00" data-cum-stor="+0" data-avg-rate="+0" data-critdry-share="75%" data-crit-share="58%" data-bucket-wet="+6,370" data-bucket-an="+648" data-bucket-bn="+330" data-bucket-dry="-1,652" data-bucket-critical="-5,696" data-hold="0" data-project="0" data-project-name="" data-coverage="+0" data-late="1"><title>Click for 21N02E32E001M detail</title></path>
<path d="M 598.7,607.6 L 526.3,569.9 L 520.8,556.5 L 540.6,423.0 L 541.2,423.8 L 548.4,436.2 L 556.1,446.4 L 565.8,457.9 L 572.8,466.9 L 576.4,471.9 L 580.7,477.8 L 584.9,483.1 L 589.3,488.7 L 591.4,491.8 L 593.6,495.0 L 598.0,500.5 L 599.7,502.3 L 600.5,503.2 L 601.5,504.0 L 603.1,505.3 L 607.2,508.8 L 609.8,511.4 L 620.0,521.5 L 631.2,534.4 L 634.5,538.1 L 635.9,539.3 L 639.5,541.8 L 641.8,542.7 L 642.9,543.0 L 655.1,543.0 L 659.0,544.3 L 661.6,545.5 L 663.5,547.0 L 665.8,549.2 L 668.3,553.1 L 670.0,558.1 L 670.0,558.1 L 669.5,563.2 L 669.5,563.2 L 668.5,566.0 L 668.5,566.0 L 667.3,568.3 L 666.1,569.9 L 663.5,571.9 L 661.0,573.7 L 657.7,576.7 L 655.0,580.5 L 653.6,582.4 L 653.6,582.4 L 653.6,588.2 L 653.6,588.2 L 654.2,593.7 L 654.2,593.7 L 654.1,595.0 L 654.1,595.0 L 652.7,599.4 L 652.7,599.4 L 652.2,600.4 L 598.7,607.6 Z" class="poly" fill="#f0d9a8" data-short="21N03E32B001M" data-ma="South" data-base-year="2000" data-end-year="2025" data-span="25" data-area="14,223" data-rms-wells="21N03E32B001M" data-sy="0.0752" data-sy-source="SVSim" data-avg-dgwe="-0.18" data-cum-stor="-4,920" data-avg-rate="-197" data-critdry-share="70%" data-crit-share="22%" data-bucket-wet="+1,051" data-bucket-an="+11" data-bucket-bn="-243" data-bucket-dry="-3,929" data-bucket-critical="-1,809" data-hold="197" data-project="0" data-project-name="" data-coverage="-197" data-late="1"><title>Click for 21N03E32B001M detail</title></path>
<circle class="well" cx="108.5" cy="273.6" r="3.0"/>
<text class="label" x="131.8" y="334.2">05M00</text>
<circle class="well" cx="247.7" cy="139.8" r="3.0"/>
<text class="label" x="288.7" y="133.5">07H00</text>
<circle class="well-project" cx="303.2" cy="234.7" r="4.2"/>
<text class="label" x="382.8" y="232.0">33A00</text>
<circle class="well-project" cx="214.9" cy="256.3" r="4.2"/>
<text class="label" x="209.7" y="262.5">36P00</text>
<circle class="well" cx="68.6" cy="213.2" r="3.0"/>
<text class="label" x="41.9" y="193.8">25C00</text>
<circle class="well-project" cx="265.7" cy="228.5" r="4.2"/>
<text class="label" x="254.4" y="219.3">29P00</text>
<circle class="well" cx="178.6" cy="116.8" r="3.0"/>
<text class="label" x="177.5" y="118.0">03H00</text>
<circle class="well" cx="131.0" cy="139.4" r="3.0"/>
<text class="label" x="73.3" y="120.5">09E00</text>
<circle class="well" cx="155.5" cy="144.8" r="3.0"/>
<text class="label" x="156.4" y="165.7">10M00</text>
<circle class="well" cx="201.3" cy="180.8" r="3.0"/>
<text class="label" x="203.8" y="177.6">14R00</text>
<circle class="well" cx="165.6" cy="220.5" r="3.0"/>
<text class="label" x="162.9" y="229.7">27L00</text>
<circle class="well" cx="133.4" cy="219.1" r="3.0"/>
<text class="label" x="123.7" y="215.3">28M00</text>
<circle class="well" cx="82.8" cy="246.6" r="3.0"/>
<text class="label" x="66.4" y="251.0">31M00</text>
<circle class="well" cx="266.8" cy="347.0" r="3.0"/>
<text class="label" x="246.2" y="385.4">20K00</text>
<circle class="well" cx="291.6" cy="282.8" r="3.0"/>
<text class="label" x="351.7" y="295.8">09B00</text>
<circle class="well" cx="515.7" cy="628.2" r="3.0"/>
<text class="label" x="501.7" y="654.9">24C00</text>
<circle class="well" cx="390.7" cy="454.6" r="3.0"/>
<text class="label" x="457.9" y="380.9">18C00</text>
<circle class="well" cx="357.3" cy="568.7" r="3.0"/>
<text class="label" x="330.7" y="597.9">02H00</text>
<circle class="well-project" cx="427.1" cy="584.8" r="4.2"/>
<text class="label" x="412.4" y="603.6">08H00</text>
<circle class="well-project" cx="467.3" cy="569.2" r="4.2"/>
<text class="label" x="472.1" y="581.3">09G00</text>
<circle class="well-project" cx="589.8" cy="693.0" r="4.2"/>
<text class="label" x="581.4" y="684.2">33L00</text>
<circle class="well-project" cx="322.3" cy="430.0" r="4.2"/>
<text class="label" x="265.7" y="434.9">10B00</text>
<circle class="well" cx="367.6" cy="469.3" r="3.0"/>
<text class="label" x="365.8" y="478.2">13L00</text>
<circle class="well" cx="369.7" cy="523.5" r="3.0"/>
<text class="label" x="376.5" y="512.0">25K00</text>
<circle class="well-project" cx="306.3" cy="507.8" r="4.2"/>
<text class="label" x="252.4" y="519.2">27D00</text>
<circle class="well" cx="484.3" cy="515.2" r="3.0"/>
<text class="label" x="509.8" y="426.4">26E00</text>
<circle class="well" cx="407.3" cy="537.6" r="3.0"/>
<text class="label" x="419.2" y="535.0">32E00</text>
<circle class="well" cx="567.7" cy="527.7" r="3.0"/>
<text class="label" x="625.4" y="539.3">32B00</text>
<g transform="translate(16,730)">
<rect class="legend-bg" x="-8" y="-22" width="715" height="86"/>
<text class="legend-title" x="0" y="-6">Coverage after project portfolio (AF/yr): project allocation − polygon avg loss</text>
<text class="legend-text" x="0" y="9" font-style="italic" font-size="9.5" fill="#5b5547">greens = surplus / covered  ·  oranges → reds = shortfall by AF/yr</text>
<rect x="10.0" y="18" width="56" height="18" fill="#6b9479" stroke="#332e22" stroke-width="0.4"/>
<text class="legend-text" x="38.0" y="48" text-anchor="middle">Surplus</text>
<rect x="86.0" y="18" width="56" height="18" fill="#a8c8b0" stroke="#332e22" stroke-width="0.4"/>
<text class="legend-text" x="114.0" y="48" text-anchor="middle">Covered</text>
<rect x="162.0" y="18" width="56" height="18" fill="#f0d9a8" stroke="#332e22" stroke-width="0.4"/>
<text class="legend-text" x="190.0" y="48" text-anchor="middle">Near</text>
<rect x="238.0" y="18" width="56" height="18" fill="#e3a76f" stroke="#332e22" stroke-width="0.4"/>
<text class="legend-text" x="266.0" y="48" text-anchor="middle">Short <750</text>
<rect x="314.0" y="18" width="56" height="18" fill="#cb7740" stroke="#332e22" stroke-width="0.4"/>
<text class="legend-text" x="342.0" y="48" text-anchor="middle">Short <1.5k</text>
<rect x="390.0" y="18" width="56" height="18" fill="#a84a2c" stroke="#332e22" stroke-width="0.4"/>
<text class="legend-text" x="418.0" y="48" text-anchor="middle">Short <2.5k</text>
<rect x="466.0" y="18" width="56" height="18" fill="#7c2820" stroke="#332e22" stroke-width="0.4"/>
<text class="legend-text" x="494.0" y="48" text-anchor="middle">Short ≥2.5k</text>
<circle cx="548" cy="22" r="3"/>
<text class="legend-text" x="558" y="26">2026 GWL RMS well</text>
<circle class="well-project" cx="548" cy="38" r="4.2"/>
<text class="legend-text" x="558" y="42">RMS well + project</text>
</g>
</svg>